<svg width="214" height="196" viewBox="0 0 214 196" fill="none" xmlns="http://www.w3.org/2000/svg">
<mask id="path-1-outside-1_5547_3341" maskUnits="userSpaceOnUse" x="0" y="0" width="214" height="196" fill="black">
<rect fill="white" width="214" height="196"/>
<path d="M137 11H143V47H155V53H161V59H167V71H173V77H185V71H203V83H197V89H185V95H161V83H155V77H143V107H155V113H161V119H173V125H185V131H191V137H197V149H203V161H209V191H191V185H185V179H179V167H173V155H167V149H161V143H149V137H137V131H125V125H107V131H101V137H95V143H89V149H83V155H77V161H71V167H59V173H47V167H35V161H29V155H23V149H17V137H11V131H5V113H23V119H29V125H35V131H41V137H59V131H65V125H71V119H77V113H83V101H89V83H95V65H71V77H65V89H59V95H47V77H53V59H59V47H83V41H107V23H113V11H119V5H137V11Z"/>
</mask>
<path d="M137 11H143V47H155V53H161V59H167V71H173V77H185V71H203V83H197V89H185V95H161V83H155V77H143V107H155V113H161V119H173V125H185V131H191V137H197V149H203V161H209V191H191V185H185V179H179V167H173V155H167V149H161V143H149V137H137V131H125V125H107V131H101V137H95V143H89V149H83V155H77V161H71V167H59V173H47V167H35V161H29V155H23V149H17V137H11V131H5V113H23V119H29V125H35V131H41V137H59V131H65V125H71V119H77V113H83V101H89V83H95V65H71V77H65V89H59V95H47V77H53V59H59V47H83V41H107V23H113V11H119V5H137V11Z" fill="#FF94A6"/>
<path d="M137 11H132V16H137V11ZM143 11H148V6H143V11ZM143 47H138V52H143V47ZM155 47H160V42H155V47ZM155 53H150V58H155V53ZM161 53H166V48H161V53ZM161 59H156V64H161V59ZM167 59H172V54H167V59ZM167 71H162V76H167V71ZM173 71H178V66H173V71ZM173 77H168V82H173V77ZM185 77V82H190V77H185ZM185 71V66H180V71H185ZM203 71H208V66H203V71ZM203 83V88H208V83H203ZM197 83V78H192V83H197ZM197 89V94H202V89H197ZM185 89V84H180V89H185ZM185 95V100H190V95H185ZM161 95H156V100H161V95ZM161 83H166V78H161V83ZM155 83H150V88H155V83ZM155 77H160V72H155V77ZM143 77V72H138V77H143ZM143 107H138V112H143V107ZM155 107H160V102H155V107ZM155 113H150V118H155V113ZM161 113H166V108H161V113ZM161 119H156V124H161V119ZM173 119H178V114H173V119ZM173 125H168V130H173V125ZM185 125H190V120H185V125ZM185 131H180V136H185V131ZM191 131H196V126H191V131ZM191 137H186V142H191V137ZM197 137H202V132H197V137ZM197 149H192V154H197V149ZM203 149H208V144H203V149ZM203 161H198V166H203V161ZM209 161H214V156H209V161ZM209 191V196H214V191H209ZM191 191H186V196H191V191ZM191 185H196V180H191V185ZM185 185H180V190H185V185ZM185 179H190V174H185V179ZM179 179H174V184H179V179ZM179 167H184V162H179V167ZM173 167H168V172H173V167ZM173 155H178V150H173V155ZM167 155H162V160H167V155ZM167 149H172V144H167V149ZM161 149H156V154H161V149ZM161 143H166V138H161V143ZM149 143H144V148H149V143ZM149 137H154V132H149V137ZM137 137H132V142H137V137ZM137 131H142V126H137V131ZM125 131H120V136H125V131ZM125 125H130V120H125V125ZM107 125V120H102V125H107ZM107 131V136H112V131H107ZM101 131V126H96V131H101ZM101 137V142H106V137H101ZM95 137V132H90V137H95ZM95 143V148H100V143H95ZM89 143V138H84V143H89ZM89 149V154H94V149H89ZM83 149V144H78V149H83ZM83 155V160H88V155H83ZM77 155V150H72V155H77ZM77 161V166H82V161H77ZM71 161V156H66V161H71ZM71 167V172H76V167H71ZM59 167V162H54V167H59ZM59 173V178H64V173H59ZM47 173H42V178H47V173ZM47 167H52V162H47V167ZM35 167H30V172H35V167ZM35 161H40V156H35V161ZM29 161H24V166H29V161ZM29 155H34V150H29V155ZM23 155H18V160H23V155ZM23 149H28V144H23V149ZM17 149H12V154H17V149ZM17 137H22V132H17V137ZM11 137H6V142H11V137ZM11 131H16V126H11V131ZM5 131H0V136H5V131ZM5 113V108H0V113H5ZM23 113H28V108H23V113ZM23 119H18V124H23V119ZM29 119H34V114H29V119ZM29 125H24V130H29V125ZM35 125H40V120H35V125ZM35 131H30V136H35V131ZM41 131H46V126H41V131ZM41 137H36V142H41V137ZM59 137V142H64V137H59ZM59 131V126H54V131H59ZM65 131V136H70V131H65ZM65 125V120H60V125H65ZM71 125V130H76V125H71ZM71 119V114H66V119H71ZM77 119V124H82V119H77ZM77 113V108H72V113H77ZM83 113V118H88V113H83ZM83 101V96H78V101H83ZM89 101V106H94V101H89ZM89 83V78H84V83H89ZM95 83V88H100V83H95ZM95 65H100V60H95V65ZM71 65V60H66V65H71ZM71 77V82H76V77H71ZM65 77V72H60V77H65ZM65 89V94H70V89H65ZM59 89V84H54V89H59ZM59 95V100H64V95H59ZM47 95H42V100H47V95ZM47 77V72H42V77H47ZM53 77V82H58V77H53ZM53 59V54H48V59H53ZM59 59V64H64V59H59ZM59 47V42H54V47H59ZM83 47V52H88V47H83ZM83 41V36H78V41H83ZM107 41V46H112V41H107ZM107 23V18H102V23H107ZM113 23V28H118V23H113ZM113 11V6H108V11H113ZM119 11V16H124V11H119ZM119 5V0H114V5H119ZM137 5H142V0H137V5ZM137 11V16H143V11V6H137V11ZM143 11H138V47H143H148V11H143ZM143 47V52H155V47V42H143V47ZM155 47H150V53H155H160V47H155ZM155 53V58H161V53V48H155V53ZM161 53H156V59H161H166V53H161ZM161 59V64H167V59V54H161V59ZM167 59H162V71H167H172V59H167ZM167 71V76H173V71V66H167V71ZM173 71H168V77H173H178V71H173ZM173 77V82H185V77V72H173V77ZM185 77H190V71H185H180V77H185ZM185 71V76H203V71V66H185V71ZM203 71H198V83H203H208V71H203ZM203 83V78H197V83V88H203V83ZM197 83H192V89H197H202V83H197ZM197 89V84H185V89V94H197V89ZM185 89H180V95H185H190V89H185ZM185 95V90H161V95V100H185V95ZM161 95H166V83H161H156V95H161ZM161 83V78H155V83V88H161V83ZM155 83H160V77H155H150V83H155ZM155 77V72H143V77V82H155V77ZM143 77H138V107H143H148V77H143ZM143 107V112H155V107V102H143V107ZM155 107H150V113H155H160V107H155ZM155 113V118H161V113V108H155V113ZM161 113H156V119H161H166V113H161ZM161 119V124H173V119V114H161V119ZM173 119H168V125H173H178V119H173ZM173 125V130H185V125V120H173V125ZM185 125H180V131H185H190V125H185ZM185 131V136H191V131V126H185V131ZM191 131H186V137H191H196V131H191ZM191 137V142H197V137V132H191V137ZM197 137H192V149H197H202V137H197ZM197 149V154H203V149V144H197V149ZM203 149H198V161H203H208V149H203ZM203 161V166H209V161V156H203V161ZM209 161H204V191H209H214V161H209ZM209 191V186H191V191V196H209V191ZM191 191H196V185H191H186V191H191ZM191 185V180H185V185V190H191V185ZM185 185H190V179H185H180V185H185ZM185 179V174H179V179V184H185V179ZM179 179H184V167H179H174V179H179ZM179 167V162H173V167V172H179V167ZM173 167H178V155H173H168V167H173ZM173 155V150H167V155V160H173V155ZM167 155H172V149H167H162V155H167ZM167 149V144H161V149V154H167V149ZM161 149H166V143H161H156V149H161ZM161 143V138H149V143V148H161V143ZM149 143H154V137H149H144V143H149ZM149 137V132H137V137V142H149V137ZM137 137H142V131H137H132V137H137ZM137 131V126H125V131V136H137V131ZM125 131H130V125H125H120V131H125ZM125 125V120H107V125V130H125V125ZM107 125H102V131H107H112V125H107ZM107 131V126H101V131V136H107V131ZM101 131H96V137H101H106V131H101ZM101 137V132H95V137V142H101V137ZM95 137H90V143H95H100V137H95ZM95 143V138H89V143V148H95V143ZM89 143H84V149H89H94V143H89ZM89 149V144H83V149V154H89V149ZM83 149H78V155H83H88V149H83ZM83 155V150H77V155V160H83V155ZM77 155H72V161H77H82V155H77ZM77 161V156H71V161V166H77V161ZM71 161H66V167H71H76V161H71ZM71 167V162H59V167V172H71V167ZM59 167H54V173H59H64V167H59ZM59 173V168H47V173V178H59V173ZM47 173H52V167H47H42V173H47ZM47 167V162H35V167V172H47V167ZM35 167H40V161H35H30V167H35ZM35 161V156H29V161V166H35V161ZM29 161H34V155H29H24V161H29ZM29 155V150H23V155V160H29V155ZM23 155H28V149H23H18V155H23ZM23 149V144H17V149V154H23V149ZM17 149H22V137H17H12V149H17ZM17 137V132H11V137V142H17V137ZM11 137H16V131H11H6V137H11ZM11 131V126H5V131V136H11V131ZM5 131H10V113H5H0V131H5ZM5 113V118H23V113V108H5V113ZM23 113H18V119H23H28V113H23ZM23 119V124H29V119V114H23V119ZM29 119H24V125H29H34V119H29ZM29 125V130H35V125V120H29V125ZM35 125H30V131H35H40V125H35ZM35 131V136H41V131V126H35V131ZM41 131H36V137H41H46V131H41ZM41 137V142H59V137V132H41V137ZM59 137H64V131H59H54V137H59ZM59 131V136H65V131V126H59V131ZM65 131H70V125H65H60V131H65ZM65 125V130H71V125V120H65V125ZM71 125H76V119H71H66V125H71ZM71 119V124H77V119V114H71V119ZM77 119H82V113H77H72V119H77ZM77 113V118H83V113V108H77V113ZM83 113H88V101H83H78V113H83ZM83 101V106H89V101V96H83V101ZM89 101H94V83H89H84V101H89ZM89 83V88H95V83V78H89V83ZM95 83H100V65H95H90V83H95ZM95 65V60H71V65V70H95V65ZM71 65H66V77H71H76V65H71ZM71 77V72H65V77V82H71V77ZM65 77H60V89H65H70V77H65ZM65 89V84H59V89V94H65V89ZM59 89H54V95H59H64V89H59ZM59 95V90H47V95V100H59V95ZM47 95H52V77H47H42V95H47ZM47 77V82H53V77V72H47V77ZM53 77H58V59H53H48V77H53ZM53 59V64H59V59V54H53V59ZM59 59H64V47H59H54V59H59ZM59 47V52H83V47V42H59V47ZM83 47H88V41H83H78V47H83ZM83 41V46H107V41V36H83V41ZM107 41H112V23H107H102V41H107ZM107 23V28H113V23V18H107V23ZM113 23H118V11H113H108V23H113ZM113 11V16H119V11V6H113V11ZM119 11H124V5H119H114V11H119ZM119 5V10H137V5V0H119V5ZM137 5H132V11H137H142V5H137Z" fill="black" mask="url(#path-1-outside-1_5547_3341)"/>
<path d="M119 5H125V11H119V5Z" fill="#FF98AA"/>
<path d="M125 5H131V11H125V5Z" fill="#FF9CAC"/>
<path d="M131 5H137V11H131V5Z" fill="#FF9DAE"/>
<path d="M113 11H119V17H113V11Z" fill="#FA2C4F"/>
<path d="M119 11H125V17H119V11Z" fill="#F9163C"/>
<path d="M125 11H131V17H125V11Z" fill="#FA2145"/>
<path d="M131 11H137V17H131V11Z" fill="#FE7E93"/>
<path d="M137 11H143V17H137V11Z" fill="#FF9DAE"/>
<path d="M113 17H119V23H113V17Z" fill="#F91239"/>
<path d="M119 17H125V23H119V17Z" fill="#F91239"/>
<path d="M125 17H131V23H125V17Z" fill="#F91239"/>
<path d="M131 17H137V23H131V17Z" fill="#FA3153"/>
<path d="M137 17H143V23H137V17Z" fill="#FF9DAE"/>
<path d="M107 23H113V29H107V23Z" fill="#F91239"/>
<path d="M113 23H119V29H113V23Z" fill="#F91239"/>
<path d="M119 23H125V29H119V23Z" fill="#F91239"/>
<path d="M125 23H131V29H125V23Z" fill="#F91239"/>
<path d="M131 23H137V29H131V23Z" fill="#FB3657"/>
<path d="M137 23H143V29H137V23Z" fill="#FF9DAE"/>
<path d="M107 29H113V35H107V29Z" fill="#F91239"/>
<path d="M113 29H119V35H113V29Z" fill="#F91339"/>
<path d="M119 29H125V35H119V29Z" fill="#F91239"/>
<path d="M125 29H131V35H125V29Z" fill="#F91239"/>
<path d="M131 29H137V35H131V29Z" fill="#FB4665"/>
<path d="M107 35H113V41H107V35Z" fill="#F91339"/>
<path d="M113 35H119V41H113V35Z" fill="#F91339"/>
<path d="M119 35H125V41H119V35Z" fill="#F91339"/>
<path d="M125 35H131V41H125V35Z" fill="#F91239"/>
<path d="M131 35H137V41H131V35Z" fill="#FC5E78"/>
<path d="M83 41H89V47H83V41Z" fill="#FF9FAC" fill-opacity="0.313726"/>
<path d="M89 41H95V47H89V41Z" fill="#FF9DAE"/>
<path d="M95 41H101V47H95V41Z" fill="#FE889C"/>
<path d="M101 41H107V47H101V41Z" fill="#F9133A"/>
<path d="M107 41H113V47H107V41Z" fill="#F91239"/>
<path d="M113 41H119V47H113V41Z" fill="#F91239"/>
<path d="M119 41H125V47H119V41Z" fill="#F91239"/>
<path d="M125 41H131V47H125V41Z" fill="#F91339"/>
<path d="M131 41H137V47H131V41Z" fill="#FD7A90"/>
<path d="M59 47H65V53H59V47Z" fill="#FE8DA0"/>
<path d="M65 47H71V53H65V47Z" fill="#FD768D"/>
<path d="M71 47H77V53H71V47Z" fill="#FD728A"/>
<path d="M77 47H83V53H77V47Z" fill="#FC5A75"/>
<path d="M83 47H89V53H83V47Z" fill="#FB4261"/>
<path d="M89 47H95V53H89V47Z" fill="#FB3556"/>
<path d="M95 47H101V53H95V47Z" fill="#F9173D"/>
<path d="M101 47H107V53H101V47Z" fill="#F91339"/>
<path d="M107 47H113V53H107V47Z" fill="#F91239"/>
<path d="M113 47H119V53H113V47Z" fill="#F91339"/>
<path d="M119 47H125V53H119V47Z" fill="#F91339"/>
<path d="M125 47H131V53H125V47Z" fill="#F91239"/>
<path d="M131 47H137V53H131V47Z" fill="#FD768D"/>
<path d="M137 47H143V53H137V47Z" fill="#FF98A9"/>
<path d="M143 47H149V53H143V47Z" fill="#FF9DAE"/>
<path d="M149 47H155V53H149V47Z" fill="#FF9DAE"/>
<path d="M59 53H65V59H59V53Z" fill="#F91339"/>
<path d="M65 53H71V59H65V53Z" fill="#F91339"/>
<path d="M71 53H77V59H71V53Z" fill="#F91239"/>
<path d="M77 53H83V59H77V53Z" fill="#F91239"/>
<path d="M83 53H89V59H83V53Z" fill="#F91239"/>
<path d="M89 53H95V59H89V53Z" fill="#F91239"/>
<path d="M95 53H101V59H95V53Z" fill="#F91239"/>
<path d="M101 53H107V59H101V53Z" fill="#F91239"/>
<path d="M107 53H113V59H107V53Z" fill="#F91239"/>
<path d="M113 53H119V59H113V53Z" fill="#F91239"/>
<path d="M119 53H125V59H119V53Z" fill="#F91239"/>
<path d="M125 53H131V59H125V53Z" fill="#F91239"/>
<path d="M131 53H137V59H131V53Z" fill="#F91239"/>
<path d="M137 53H143V59H137V53Z" fill="#F9173D"/>
<path d="M143 53H149V59H143V53Z" fill="#FA3556"/>
<path d="M149 53H155V59H149V53Z" fill="#FE859A"/>
<path d="M155 53H161V59H155V53Z" fill="#FF9DAE"/>
<path d="M53 59H59V65H53V59Z" fill="#F91339"/>
<path d="M59 59H65V65H59V59Z" fill="#F91239"/>
<path d="M65 59H71V65H65V59Z" fill="#F91239"/>
<path d="M71 59H77V65H71V59Z" fill="#F91239"/>
<path d="M77 59H83V65H77V59Z" fill="#F91339"/>
<path d="M83 59H89V65H83V59Z" fill="#F91339"/>
<path d="M89 59H95V65H89V59Z" fill="#F91239"/>
<path d="M95 59H101V65H95V59Z" fill="#F91239"/>
<path d="M101 59H107V65H101V59Z" fill="#F91239"/>
<path d="M107 59H113V65H107V59Z" fill="#F91339"/>
<path d="M113 59H119V65H113V59Z" fill="#F91239"/>
<path d="M119 59H125V65H119V59Z" fill="#F91239"/>
<path d="M125 59H131V65H125V59Z" fill="#F91239"/>
<path d="M131 59H137V65H131V59Z" fill="#F91239"/>
<path d="M137 59H143V65H137V59Z" fill="#F91239"/>
<path d="M143 59H149V65H143V59Z" fill="#F91239"/>
<path d="M149 59H155V65H149V59Z" fill="#F9193F"/>
<path d="M155 59H161V65H155V59Z" fill="#FF92A5"/>
<path d="M161 59H167V65H161V59Z" fill="#FF9DAE" fill-opacity="0.937255"/>
<path d="M53 65H59V71H53V65Z" fill="#F91239"/>
<path d="M59 65H65V71H59V65Z" fill="#F91239"/>
<path d="M65 65H71V71H65V65Z" fill="#F91239"/>
<path d="M95 65H101V71H95V65Z" fill="#F91239"/>
<path d="M101 65H107V71H101V65Z" fill="#F91339"/>
<path d="M107 65H113V71H107V65Z" fill="#F91239"/>
<path d="M113 65H119V71H113V65Z" fill="#F91239"/>
<path d="M119 65H125V71H119V65Z" fill="#F91339"/>
<path d="M125 65H131V71H125V65Z" fill="#F91239"/>
<path d="M131 65H137V71H131V65Z" fill="#F91239"/>
<path d="M137 65H143V71H137V65Z" fill="#F91339"/>
<path d="M143 65H149V71H143V65Z" fill="#F91239"/>
<path d="M149 65H155V71H149V65Z" fill="#F91239"/>
<path d="M155 65H161V71H155V65Z" fill="#FC536F"/>
<path d="M161 65H167V71H161V65Z" fill="#FF9DAE"/>
<path d="M53 71H59V77H53V71Z" fill="#F91239"/>
<path d="M59 71H65V77H59V71Z" fill="#F9163D"/>
<path d="M65 71H71V77H65V71Z" fill="#FD768D"/>
<path d="M95 71H101V77H95V71Z" fill="#F91239"/>
<path d="M101 71H107V77H101V71Z" fill="#F91339"/>
<path d="M107 71H113V77H107V71Z" fill="#F91239"/>
<path d="M113 71H119V77H113V71Z" fill="#F91239"/>
<path d="M119 71H125V77H119V71Z" fill="#F91339"/>
<path d="M125 71H131V77H125V71Z" fill="#F91339"/>
<path d="M131 71H137V77H131V71Z" fill="#F91239"/>
<path d="M137 71H143V77H137V71Z" fill="#F91339"/>
<path d="M143 71H149V77H143V71Z" fill="#F91239"/>
<path d="M149 71H155V77H149V71Z" fill="#F71438" fill-opacity="0.25098"/>
<path d="M155 71H161V77H155V71Z" fill="#F9173E"/>
<path d="M161 71H167V77H161V71Z" fill="#FE91A3"/>
<path d="M167 71H173V77H167V71Z" fill="#FF9DAE"/>
<path d="M185 71H191V77H185V71Z" fill="#FF93A6"/>
<path d="M191 71H197V77H191V71Z" fill="#FF97A8"/>
<path d="M197 71H203V77H197V71Z" fill="#FF9DAE"/>
<path d="M47 77H53V83H47V77Z" fill="#F91239"/>
<path d="M53 77H59V83H53V77Z" fill="#F91339"/>
<path d="M59 77H65V83H59V77Z" fill="#FC516E"/>
<path d="M95 77H101V83H95V77Z" fill="#F91339"/>
<path d="M101 77H107V83H101V77Z" fill="#F91239"/>
<path d="M107 77H113V83H107V77Z" fill="#F91339"/>
<path d="M113 77H119V83H113V77Z" fill="#F91339"/>
<path d="M119 77H125V83H119V77Z" fill="#F91239"/>
<path d="M125 77H131V83H125V77Z" fill="#F91239"/>
<path d="M131 77H137V83H131V77Z" fill="#F91239"/>
<path d="M137 77H143V83H137V77Z" fill="#FC4E6C"/>
<path d="M155 77H161V83H155V77Z" fill="#F91239"/>
<path d="M161 77H167V83H161V77Z" fill="#FA3355"/>
<path d="M167 77H173V83H167V77Z" fill="#FE8C9F"/>
<path d="M173 77H179V83H173V77Z" fill="#FE7E94"/>
<path d="M179 77H185V83H179V77Z" fill="#FA3556"/>
<path d="M185 77H191V83H185V77Z" fill="#F9143A"/>
<path d="M191 77H197V83H191V77Z" fill="#F9193F"/>
<path d="M197 77H203V83H197V77Z" fill="#FF95A6"/>
<path d="M47 83H53V89H47V83Z" fill="#F91239"/>
<path d="M53 83H59V89H53V83Z" fill="#F9173E"/>
<path d="M59 83H65V89H59V83Z" fill="#FF94A6"/>
<path d="M89 83H95V89H89V83Z" fill="#F9133A" fill-opacity="0.686275"/>
<path d="M95 83H101V89H95V83Z" fill="#F91239"/>
<path d="M101 83H107V89H101V83Z" fill="#F91339"/>
<path d="M107 83H113V89H107V83Z" fill="#F91239"/>
<path d="M113 83H119V89H113V83Z" fill="#F91239"/>
<path d="M119 83H125V89H119V83Z" fill="#F91339"/>
<path d="M125 83H131V89H125V83Z" fill="#F91339"/>
<path d="M131 83H137V89H131V83Z" fill="#F91239"/>
<path d="M137 83H143V89H137V83Z" fill="#FD748B"/>
<path d="M161 83H167V89H161V83Z" fill="#F91339"/>
<path d="M167 83H173V89H167V83Z" fill="#F91239"/>
<path d="M173 83H179V89H173V83Z" fill="#F91339"/>
<path d="M179 83H185V89H179V83Z" fill="#F91239"/>
<path d="M185 83H191V89H185V83Z" fill="#F91239"/>
<path d="M191 83H197V89H191V83Z" fill="#FB3B5B"/>
<path d="M47 89H53V95H47V89Z" fill="#F91339"/>
<path d="M53 89H59V95H53V89Z" fill="#FC516E"/>
<path d="M89 89H95V95H89V89Z" fill="#F91339"/>
<path d="M95 89H101V95H95V89Z" fill="#F91339"/>
<path d="M101 89H107V95H101V89Z" fill="#F91239"/>
<path d="M107 89H113V95H107V89Z" fill="#F91339"/>
<path d="M113 89H119V95H113V89Z" fill="#F91239"/>
<path d="M119 89H125V95H119V89Z" fill="#F91339"/>
<path d="M125 89H131V95H125V89Z" fill="#F91239"/>
<path d="M131 89H137V95H131V89Z" fill="#F91239"/>
<path d="M137 89H143V95H137V89Z" fill="#FD768D"/>
<path d="M161 89H167V95H161V89Z" fill="#F91239" fill-opacity="0.937255"/>
<path d="M167 89H173V95H167V89Z" fill="#F91239"/>
<path d="M173 89H179V95H173V89Z" fill="#F91339"/>
<path d="M179 89H185V95H179V89Z" fill="#F91339"/>
<path d="M89 95H95V101H89V95Z" fill="#F91339"/>
<path d="M95 95H101V101H95V95Z" fill="#F91239"/>
<path d="M101 95H107V101H101V95Z" fill="#F91239"/>
<path d="M107 95H113V101H107V95Z" fill="#F91239"/>
<path d="M113 95H119V101H113V95Z" fill="#F91239"/>
<path d="M119 95H125V101H119V95Z" fill="#F91339"/>
<path d="M125 95H131V101H125V95Z" fill="#F91339"/>
<path d="M131 95H137V101H131V95Z" fill="#F91239"/>
<path d="M137 95H143V101H137V95Z" fill="#FD788F"/>
<path d="M83 101H89V107H83V101Z" fill="#F91339"/>
<path d="M89 101H95V107H89V101Z" fill="#F91339"/>
<path d="M95 101H101V107H95V101Z" fill="#F91239"/>
<path d="M101 101H107V107H101V101Z" fill="#F91239"/>
<path d="M107 101H113V107H107V101Z" fill="#F91239"/>
<path d="M113 101H119V107H113V101Z" fill="#F91239"/>
<path d="M119 101H125V107H119V101Z" fill="#F91339"/>
<path d="M125 101H131V107H125V101Z" fill="#F91339"/>
<path d="M131 101H137V107H131V101Z" fill="#F91239"/>
<path d="M137 101H143V107H137V101Z" fill="#FE7E93"/>
<path d="M83 107H89V113H83V107Z" fill="#F91239"/>
<path d="M89 107H95V113H89V107Z" fill="#F91339"/>
<path d="M95 107H101V113H95V107Z" fill="#F91239"/>
<path d="M101 107H107V113H101V107Z" fill="#F91239"/>
<path d="M107 107H113V113H107V107Z" fill="#F91239"/>
<path d="M113 107H119V113H113V107Z" fill="#F91239"/>
<path d="M119 107H125V113H119V107Z" fill="#F91239"/>
<path d="M125 107H131V113H125V107Z" fill="#F91339"/>
<path d="M131 107H137V113H131V107Z" fill="#F91239"/>
<path d="M137 107H143V113H137V107Z" fill="#FD788F"/>
<path d="M143 107H149V113H143V107Z" fill="#FF9DAE"/>
<path d="M149 107H155V113H149V107Z" fill="#FF9FAF" fill-opacity="0.25098"/>
<path d="M5 113H11V119H5V113Z" fill="#FF9DAD" fill-opacity="0.376471"/>
<path d="M11 113H17V119H11V113Z" fill="#FF9DAE"/>
<path d="M17 113H23V119H17V113Z" fill="#FF9DAE"/>
<path d="M77 113H83V119H77V113Z" fill="#F91339"/>
<path d="M83 113H89V119H83V113Z" fill="#F91239"/>
<path d="M89 113H95V119H89V113Z" fill="#F91239"/>
<path d="M95 113H101V119H95V113Z" fill="#F91339"/>
<path d="M101 113H107V119H101V113Z" fill="#F91339"/>
<path d="M107 113H113V119H107V113Z" fill="#F91239"/>
<path d="M113 113H119V119H113V113Z" fill="#F91339"/>
<path d="M119 113H125V119H119V113Z" fill="#F91339"/>
<path d="M125 113H131V119H125V113Z" fill="#F91239"/>
<path d="M131 113H137V119H131V113Z" fill="#F91339"/>
<path d="M137 113H143V119H137V113Z" fill="#FA2C4F"/>
<path d="M143 113H149V119H143V113Z" fill="#FC5B76"/>
<path d="M149 113H155V119H149V113Z" fill="#FF97A8"/>
<path d="M155 113H161V119H155V113Z" fill="#FF9DAE"/>
<path d="M5 119H11V125H5V119Z" fill="#FA2B4E"/>
<path d="M11 119H17V125H11V119Z" fill="#FA3355"/>
<path d="M17 119H23V125H17V119Z" fill="#FE859A"/>
<path d="M23 119H29V125H23V119Z" fill="#FF9DAE"/>
<path d="M71 119H77V125H71V119Z" fill="#F9143B"/>
<path d="M77 119H83V125H77V119Z" fill="#F91239"/>
<path d="M83 119H89V125H83V119Z" fill="#F91239"/>
<path d="M89 119H95V125H89V119Z" fill="#F91239"/>
<path d="M95 119H101V125H95V119Z" fill="#F91239"/>
<path d="M101 119H107V125H101V119Z" fill="#F91239"/>
<path d="M107 119H113V125H107V119Z" fill="#F91239"/>
<path d="M113 119H119V125H113V119Z" fill="#F91239"/>
<path d="M119 119H125V125H119V119Z" fill="#F91239"/>
<path d="M125 119H131V125H125V119Z" fill="#F91339"/>
<path d="M131 119H137V125H131V119Z" fill="#F91339"/>
<path d="M137 119H143V125H137V119Z" fill="#F91239"/>
<path d="M143 119H149V125H143V119Z" fill="#F91239"/>
<path d="M149 119H155V125H149V119Z" fill="#FA2449"/>
<path d="M155 119H161V125H155V119Z" fill="#FD778E"/>
<path d="M161 119H167V125H161V119Z" fill="#FF9BAC"/>
<path d="M167 119H173V125H167V119Z" fill="#FF9DAE"/>
<path d="M5 125H11V131H5V125Z" fill="#F91239"/>
<path d="M11 125H17V131H11V125Z" fill="#F91239"/>
<path d="M17 125H23V131H17V125Z" fill="#F9183E"/>
<path d="M23 125H29V131H23V125Z" fill="#FE8297"/>
<path d="M29 125H35V131H29V125Z" fill="#FF9DAE"/>
<path d="M65 125H71V131H65V125Z" fill="#F9163C"/>
<path d="M71 125H77V131H71V125Z" fill="#F91239"/>
<path d="M77 125H83V131H77V125Z" fill="#F91239"/>
<path d="M83 125H89V131H83V125Z" fill="#F91339"/>
<path d="M89 125H95V131H89V125Z" fill="#F91239"/>
<path d="M95 125H101V131H95V125Z" fill="#F91339"/>
<path d="M101 125H107V131H101V125Z" fill="#FA3354"/>
<path d="M125 125H131V131H125V125Z" fill="#F91239"/>
<path d="M131 125H137V131H131V125Z" fill="#F91239"/>
<path d="M137 125H143V131H137V125Z" fill="#F91339"/>
<path d="M143 125H149V131H143V125Z" fill="#F91239"/>
<path d="M149 125H155V131H149V125Z" fill="#F91239"/>
<path d="M155 125H161V131H155V125Z" fill="#F91239"/>
<path d="M161 125H167V131H161V125Z" fill="#FA2247"/>
<path d="M167 125H173V131H167V125Z" fill="#FD657F"/>
<path d="M173 125H179V131H173V125Z" fill="#FF99AA"/>
<path d="M179 125H185V131H179V125Z" fill="#FF9DAE"/>
<path d="M11 131H17V137H11V131Z" fill="#F91239"/>
<path d="M17 131H23V137H17V131Z" fill="#F91339"/>
<path d="M23 131H29V137H23V131Z" fill="#F91A3F"/>
<path d="M29 131H35V137H29V131Z" fill="#FE8599"/>
<path d="M35 131H41V137H35V131Z" fill="#FF9DAE"/>
<path d="M59 131H65V137H59V131Z" fill="#F9173E"/>
<path d="M65 131H71V137H65V131Z" fill="#F91339"/>
<path d="M71 131H77V137H71V131Z" fill="#F91339"/>
<path d="M77 131H83V137H77V131Z" fill="#F91239"/>
<path d="M83 131H89V137H83V131Z" fill="#F91239"/>
<path d="M89 131H95V137H89V131Z" fill="#F91239"/>
<path d="M95 131H101V137H95V131Z" fill="#FB3D5C"/>
<path d="M137 131H143V137H137V131Z" fill="#F91239"/>
<path d="M143 131H149V137H143V131Z" fill="#F91239"/>
<path d="M149 131H155V137H149V131Z" fill="#F91239"/>
<path d="M155 131H161V137H155V131Z" fill="#F91239"/>
<path d="M161 131H167V137H161V131Z" fill="#F91239"/>
<path d="M167 131H173V137H167V131Z" fill="#F91339"/>
<path d="M173 131H179V137H173V131Z" fill="#F91E43"/>
<path d="M179 131H185V137H179V131Z" fill="#FE7C91"/>
<path d="M185 131H191V137H185V131Z" fill="#FF9DAE"/>
<path d="M17 137H23V143H17V137Z" fill="#F91239"/>
<path d="M23 137H29V143H23V137Z" fill="#F91339"/>
<path d="M29 137H35V143H29V137Z" fill="#F9173E"/>
<path d="M35 137H41V143H35V137Z" fill="#FD7087"/>
<path d="M41 137H47V143H41V137Z" fill="#FF99AA"/>
<path d="M47 137H53V143H47V137Z" fill="#FE8095"/>
<path d="M53 137H59V143H53V137Z" fill="#F9193F"/>
<path d="M59 137H65V143H59V137Z" fill="#F91239"/>
<path d="M65 137H71V143H65V137Z" fill="#F91239"/>
<path d="M71 137H77V143H71V137Z" fill="#F91239"/>
<path d="M77 137H83V143H77V137Z" fill="#F91239"/>
<path d="M83 137H89V143H83V137Z" fill="#F91239"/>
<path d="M89 137H95V143H89V137Z" fill="#FA2448"/>
<path d="M149 137H155V143H149V137Z" fill="#F91339"/>
<path d="M155 137H161V143H155V137Z" fill="#F91239"/>
<path d="M161 137H167V143H161V137Z" fill="#F91239"/>
<path d="M167 137H173V143H167V137Z" fill="#F91239"/>
<path d="M173 137H179V143H173V137Z" fill="#F91239"/>
<path d="M179 137H185V143H179V137Z" fill="#F9163D"/>
<path d="M185 137H191V143H185V137Z" fill="#FE8599"/>
<path d="M191 137H197V143H191V137Z" fill="#FF9DAE"/>
<path d="M17 143H23V149H17V143Z" fill="#F91239"/>
<path d="M23 143H29V149H23V143Z" fill="#F91339"/>
<path d="M29 143H35V149H29V143Z" fill="#F91239"/>
<path d="M35 143H41V149H35V143Z" fill="#F91239"/>
<path d="M41 143H47V149H41V143Z" fill="#F9183D"/>
<path d="M47 143H53V149H47V143Z" fill="#F91339"/>
<path d="M53 143H59V149H53V143Z" fill="#F91239"/>
<path d="M59 143H65V149H59V143Z" fill="#F91239"/>
<path d="M65 143H71V149H65V143Z" fill="#F91239"/>
<path d="M71 143H77V149H71V143Z" fill="#F91239"/>
<path d="M77 143H83V149H77V143Z" fill="#F91239"/>
<path d="M83 143H89V149H83V143Z" fill="#F9173E"/>
<path d="M161 143H167V149H161V143Z" fill="#F91239"/>
<path d="M167 143H173V149H167V143Z" fill="#F91239"/>
<path d="M173 143H179V149H173V143Z" fill="#F91239"/>
<path d="M179 143H185V149H179V143Z" fill="#F91239"/>
<path d="M185 143H191V149H185V143Z" fill="#FA294D"/>
<path d="M191 143H197V149H191V143Z" fill="#FF9CAD"/>
<path d="M23 149H29V155H23V149Z" fill="#F91339"/>
<path d="M29 149H35V155H29V149Z" fill="#F91239"/>
<path d="M35 149H41V155H35V149Z" fill="#F91239"/>
<path d="M41 149H47V155H41V149Z" fill="#F91339"/>
<path d="M47 149H53V155H47V149Z" fill="#F91239"/>
<path d="M53 149H59V155H53V149Z" fill="#F91239"/>
<path d="M59 149H65V155H59V149Z" fill="#F91239"/>
<path d="M65 149H71V155H65V149Z" fill="#F91239"/>
<path d="M71 149H77V155H71V149Z" fill="#F91239"/>
<path d="M77 149H83V155H77V149Z" fill="#F9143B"/>
<path d="M167 149H173V155H167V149Z" fill="#F91339"/>
<path d="M173 149H179V155H173V149Z" fill="#F91239"/>
<path d="M179 149H185V155H179V149Z" fill="#F91239"/>
<path d="M185 149H191V155H185V149Z" fill="#F91239"/>
<path d="M191 149H197V155H191V149Z" fill="#FD7289"/>
<path d="M197 149H203V155H197V149Z" fill="#FF9DAE"/>
<path d="M29 155H35V161H29V155Z" fill="#F91339"/>
<path d="M35 155H41V161H35V155Z" fill="#F91339"/>
<path d="M41 155H47V161H41V155Z" fill="#F91239"/>
<path d="M47 155H53V161H47V155Z" fill="#F91339"/>
<path d="M53 155H59V161H53V155Z" fill="#F91239"/>
<path d="M59 155H65V161H59V155Z" fill="#F91239"/>
<path d="M65 155H71V161H65V155Z" fill="#F91239"/>
<path d="M71 155H77V161H71V155Z" fill="#F9133A"/>
<path d="M173 155H179V161H173V155Z" fill="#F91239"/>
<path d="M179 155H185V161H179V155Z" fill="#F91339"/>
<path d="M185 155H191V161H185V155Z" fill="#F91239"/>
<path d="M191 155H197V161H191V155Z" fill="#FA294D"/>
<path d="M197 155H203V161H197V155Z" fill="#FF9CAD"/>
<path d="M35 161H41V167H35V161Z" fill="#F91239"/>
<path d="M41 161H47V167H41V161Z" fill="#F91339"/>
<path d="M47 161H53V167H47V161Z" fill="#F91239"/>
<path d="M53 161H59V167H53V161Z" fill="#F91239"/>
<path d="M59 161H65V167H59V161Z" fill="#F91339"/>
<path d="M65 161H71V167H65V161Z" fill="#F9153C"/>
<path d="M173 161H179V167H173V161Z" fill="#F91239"/>
<path d="M179 161H185V167H179V161Z" fill="#F91339"/>
<path d="M185 161H191V167H185V161Z" fill="#F91239"/>
<path d="M191 161H197V167H191V161Z" fill="#F91339"/>
<path d="M197 161H203V167H197V161Z" fill="#FE869A"/>
<path d="M203 161H209V167H203V161Z" fill="#FF9DAE"/>
<path d="M179 167H185V173H179V167Z" fill="#F91239"/>
<path d="M185 167H191V173H185V167Z" fill="#F91239"/>
<path d="M191 167H197V173H191V167Z" fill="#F91239"/>
<path d="M197 167H203V173H197V167Z" fill="#FB4D6A"/>
<path d="M203 167H209V173H203V167Z" fill="#FF9DAE"/>
<path d="M179 173H185V179H179V173Z" fill="#F91339"/>
<path d="M185 173H191V179H185V173Z" fill="#F91239"/>
<path d="M191 173H197V179H191V173Z" fill="#F91239"/>
<path d="M197 173H203V179H197V173Z" fill="#FA2246"/>
<path d="M203 173H209V179H203V173Z" fill="#FF9CAD"/>
<path d="M185 179H191V185H185V179Z" fill="#F91239"/>
<path d="M191 179H197V185H191V179Z" fill="#F91239"/>
<path d="M197 179H203V185H197V179Z" fill="#F9153C"/>
<path d="M203 179H209V185H203V179Z" fill="#FF96A8"/>
<path d="M191 185H197V191H191V185Z" fill="#F91239"/>
<path d="M197 185H203V191H197V185Z" fill="#F9143B"/>
<path d="M203 185H209V191H203V185Z" fill="#FF94A6"/>
<path d="M47 167H53V173H47V167Z" fill="#F91239"/>
<path d="M53 167H59V173H53V167Z" fill="#F91239"/>
<path d="M137 29H143V35H137V29Z" fill="#FF9DAE"/>
<path d="M137 35H143V41H137V35Z" fill="#FF9DAE"/>
<path d="M137 41H143V47H137V41Z" fill="#FF9DAE"/>
</svg>
