<svg preserveAspectRatio="xMidYMid meet" data-bbox="47.617 56.817 204.777 186.309" viewBox="47.617 56.817 204.777 186.309" xmlns="http://www.w3.org/2000/svg" data-type="color" role="presentation" aria-hidden="true" aria-label="char">
    <g>
        <path d="M182.27 86.16c-.39 2.49-.98 4.96-1.33 7.46-.43 3.05 1.28 5.11 4.17 4.65.87-.14 1.84.14 2.72.39 2.85.81 5.75 1.52 8.51 2.58 5.03 1.93 7.7 5.9 9.71 10.81 1.79 4.37 4.36 8.47 6.96 12.45 2.6 3.97 7.9 4.71 12.07 2.78 2.34-1.08 4.72-2.09 6.99-3.31 2.77-1.48 5.72-2.05 8.77-1.73 2.18.23 4.13 1.36 5.37 3.2.43.65.39 1.99.01 2.73-1.46 2.86-3.15 5.58-5.84 7.52-4.14 2.99-8.15 6.19-12.43 8.97a39.695 39.695 0 0 1-8.77 4.25c-5.22 1.78-8.46.77-11.65-3.67-4.05-5.64-7.8-11.51-11.66-17.29-.46-.68-.86-1.43-1.14-2.2-.58-1.59-1.99-2.06-3.35-2.52-.88-.29-1.7.14-1.95 1.08-.59 2.19-1.42 4.37-1.57 6.6-.26 3.69-.02 7.41-.09 11.11-.04 2.14-.38 4.27-.39 6.41-.02 2.32.2 4.64.29 6.96.03.88-.05 1.76 0 2.63.13 2.38.3 2.53 2.65 3.01 1.8.37 3.63.7 5.37 1.26 1.18.38 2.52.87 3.31 1.74 2.88 3.16 6.68 4.63 10.45 6.26 5.09 2.21 10.19 4.42 15.14 6.92 5.36 2.71 9.37 7.02 12.48 12.07 5.7 9.27 9.67 19.35 13.04 29.65 1.19 3.63 1.73 7.51 2.19 11.32.38 3.13-.44 6.19-1.7 9.09-.93 2.14-2.7 3.21-4.86 3.55-3.43.54-6.83.15-10.05-1.13-.95-.38-1.77-1.17-2.57-1.87-2.33-2.06-4.63-4.17-6.92-6.28-.35-.32-.73-.72-.85-1.15-1.25-4.58-4.04-8.41-6.15-12.56-3.07-6.03-7.31-11.27-11.44-16.58-1.13-1.46-2.24-2.95-3.51-4.28-4.09-4.28-9.27-6.83-14.56-9.29-7.67-3.57-15.18-7.49-22.86-11.05-3.47-1.61-7.15-2.8-10.78-4.05-1.1-.38-3.81-.21-6.38 2.99-6.44 8.02-12.41 16.41-19.44 23.98-4.75 5.11-9.66 9.89-15.45 13.8-5.79 3.92-12.23 5.19-19.03 5.26-2.83.03-5.66-.15-8.49-.2-2-.04-3.84-.51-5.46-1.76-2.71-2.08-5.62-3.94-8.12-6.23-2.21-2.02-4.04-4.48-5.95-6.82-3.31-4.08-6.52-8.25-9.81-12.34-3.64-4.52-6.41-9.52-8.41-14.96-.5-1.37-1.07-2.72-1.55-4.1-.88-2.49-.07-4.73 2.46-6.12 2.43-1.33 5.08-1.8 7.91-2.03 6.25-.49 10.16 3.25 13.85 7.21 4.91 5.25 9.67 10.6 15.85 14.44 1.95 1.21 4.05 1.4 6.27 1.33 3.02-.1 5.27-1.61 7.24-3.67 4.05-4.21 8.06-8.46 12.06-12.71 2.51-2.66 4.96-5.38 7.47-8.04 4.41-4.67 7.89-9.89 9.96-16.01.7-2.07 1.59-4.08 2.26-6.16 1.48-4.61 2.75-9.29 4.34-13.86.99-2.82 1.14-5.57.53-8.44-.35-1.63-2.05-3.34-4.12-3.38-3.05-.06-6.1.19-9.15.4-1.4.1-2.79.63-4.18.59-3.86-.1-6.44 1.9-8.14 5-2.16 3.92-3.97 8.04-6 12.03-1.63 3.22-3.33 6.39-5.05 9.56-.68 1.25-1.75 1.89-3.25 1.81-2.86-.15-5.62-.32-7.36-3.2-1.34-2.22-1.18-4.62-.59-6.8 1.4-5.15 3.29-10.17 4.81-15.29 1.84-6.2 4.61-11.99 7.32-17.81 1.58-3.38 4.66-4.33 7.9-5.01 2.57-.53 5.16-.94 7.74-1.4.38-.07.79-.23 1.14-.15 4.1.97 7.99-.44 11.96-.98 3.17-.43 6.41-.36 9.59-.73 1.49-.18 2.91-.89 4.36-1.37.09-.03.14-.15.23-.18 4.1-1.36 4.04-4.93 4.52-8.3 1.07-7.43 2.76-14.64 7.97-20.47.42-.47.85-.96 1.17-1.5 3.8-6.63 14.12-7.63 19.99-4.53 3.49 1.84 5.24 4.69 5.27 8.6 0 1.22-1.23 13.92-2.02 19.02Zm-8.61-11.49c.22 2.01.64 2.57 2.01 2.69 1.07.09 2.05-.34 2.23-1.24.22-1.1.17-2.41-.25-3.43-.51-1.22-2.22-1.26-3.03-.19-.46.61-.64 1.44-.95 2.17Zm-7.19-2.08c.06-1.58-.51-2.32-1.84-2.35-1.37-.03-2.04.84-2.17 2.84-.07 1.16.76 2.08 1.91 2.09 1.23.02 2.03-.97 2.09-2.58Z" fill="#f91239" data-color="1"/>
    </g>
</svg>