<svg preserveAspectRatio="xMidYMid meet" data-bbox="98.124 50.953 403.747 498.097" viewBox="98.124 50.953 403.747 498.097" xmlns="http://www.w3.org/2000/svg" data-type="color" role="img" aria-label="Astronaut logo"><defs><style>#comp-lxdfzby11 svg [data-color="1"] {fill: #F91239;}</style></defs>
    <g>
        <path d="M430.42 92.86c-6.13 11.26-12.66 23.17-19.12 35.13-6.45 11.95-12.84 23.93-19.44 36.25 1.94 1.09 3.32 2.17 4.88 2.7 25.18 8.53 44.44 25.3 61.68 44.71 6.59 7.42 12.49 15.45 18.59 23.29 10.03 12.91 14.6 28.32 19.36 43.56 8.93 28.63 5.97 57.19-1.62 85.53-1.49 5.57-4.19 10.8-6.15 16.26-1.37 3.82-1.94 8-3.72 11.59-10.23 20.6-22.81 39.5-39.1 56.01-11.85 12.02-23.57 24-39.22 32.53 7.35 5.96 5.42 12.45 1.8 19.27 4.22 2.46 8.33 4.63 10.21 9.42 2.07 5.28 2.09 9.8-1.76 14.44-8.15 9.79-18.96 14.93-30.94 17.46-13.5 2.85-27.14 5.26-40.83 6.91-12.85 1.55-25.79 1.67-38.7-.68-14.43-2.63-28.96-4.05-43.72-4.33-10.21-.19-20.45-2.78-30.52-5.02-10.07-2.25-19.89-5.65-29.92-8.09-11.3-2.75-22.9-4.38-34.03-7.66-8.81-2.6-17.47-6.28-25.53-10.7-9.88-5.43-11.14-23.77-.25-28.05.96-.38 1.75-1.19 2.89-1.99-3.45-8.37.19-14.6 6.87-20.5-4.92-4.65-9.62-9.1-14.33-13.53-9.99-9.41-15.68-21.61-21.3-33.73-9.26-19.97-13.19-41.44-16.81-62.96-2.6-15.47-1.33-30.99-.65-46.51.74-16.92 6.25-32.59 12.88-47.82 5.41-12.45 11.54-24.64 18.24-36.45 3.68-6.48 9.08-12 13.9-17.79 3.43-4.12 7.26-7.92 10.81-11.94 7.87-8.93 17.86-14.81 28.45-19.82 8.35-3.95 16.73-7.87 25.16-11.83-10.67-25.24-21.15-50.01-31.76-75.08-2.16 0-4.51.18-6.82-.03-8.56-.77-14.62-8.25-12.72-16.59 2.16-9.53 8.19-15.01 18.75-15.83 7.31-.57 14.46 5.54 16.68 13.77 1.44 5.35-.53 10.48-5.17 13.41-.55.34-1.16.59-1.71.92-.54.32-1.04.7-2.22 1.49 10.36 25 20.75 50.05 31.22 75.33 2.4-.44 4.08-.62 5.69-1.06 22.38-6.04 45.25-8.97 68.3-10.74 13.25-1.02 26.36.53 39.2 3.5 18.69 4.33 37.23 9.32 55.84 14.02.6.15 1.24.18 2.07.29 12.66-24.02 25.31-48.01 37.87-71.84-2.12-2.51-3.93-4.35-5.39-6.43-7.54-10.7-1.22-25.05 11.84-26.15 4.59-.39 9.5.55 13.98 1.85 5.36 1.56 8.25 6.88 8.44 12.57.24 7.62-1.41 14.46-8.79 17.94-3.74 1.75-8.21 1.9-13.36 3zm-5.32 363.47c-4.24.42-8.48.82-12.72 1.28-5.15.55-10.28 1.5-15.45 1.67-34.59 1.1-69.1-.17-103.45-4.44-17.33-2.16-34.55-5.17-51.88-7.4-18.98-2.44-36.85-8.94-55.07-14.25-4.65-1.35-7.09-4.06-8.1-8.87-1.1-5.26-3.43-10.27-4.51-15.54-3.37-16.52-5.82-33.14-5.82-50.1.01-25.94-.59-51.86 4.11-77.55 3.78-20.66 8.35-41.14 17.04-60.32 4.61-10.17 10.89-19.58 16.49-29.29 1.96-3.39 4.95-5.1 8.95-5.56 20.59-2.4 41.22-4.19 61.96-4.56 28.11-.51 56.11 1.04 84.06 4 19.1 2.02 38.23 3.71 57.34 5.56 2.41.23 4.82.59 7.87.97-5.49-5.71-18.95-14.43-25.73-17.14-17.27-6.91-34.98-12.24-53.19-16.1-21.53-4.56-42.81-9.85-65.26-7.18-16.72 1.99-33.37 4.05-49.87 7.48-13.25 2.75-25.43 8.08-37.59 13.74-12.96 6.03-25.08 12.94-35.83 22.75-14.21 12.96-24.47 28.25-32.44 45.5-6.8 14.71-13.18 29.55-17.01 45.33-1.31 5.42-2.14 11-2.7 16.56-.51 5.15-.54 10.36-.48 15.54.12 10.11-.34 20.32.88 30.31 1.76 14.33 5.01 28.43 9.12 42.35 5.84 19.72 14.24 37.91 28.48 53.04 14.62 15.52 31.57 27.34 52.43 32.98 24.19 6.54 48.66 11.79 73.26 16.54 32.45 6.27 64.53 4.46 96.2-4.04 14.58-3.92 28.42-10.25 41.42-18.13 6.48-3.9 12.77-8.05 17.49-15.13zm-86.73 85.36c3.62-.5 7.25-.92 10.85-1.51 11.5-1.9 23.04-3.61 34.47-5.88 10.33-2.05 19.79-6.19 26.78-14.5 4.17-4.96 2.38-10.47-3.77-12.53-2.97-.99-5.58-.79-8.58.71-14.16 7.06-28.86 12.92-44.71 14.51-12.64 1.27-25.4 2-38.09 1.83-14.22-.19-28.49-1.06-42.6-2.77-13.47-1.64-26.83-4.45-40.12-7.29-9.68-2.07-19.16-5.11-28.76-7.57-7.93-2.03-16.06-3.4-23.85-5.88-10.21-3.25-20.74-6.04-29.23-13.25-.78-.66-2.56-.88-3.53-.47-3.27 1.37-5.92 3.37-6.28 7.46-.49 5.56 1.54 9.48 6.47 12.28 11.05 6.27 23.29 8.95 35.41 11.98 3.97.99 7.97 1.87 11.97 2.77 9.02 2.03 18.08 3.94 27.08 6.07 7.55 1.79 14.96 4.25 22.57 5.65 10.38 1.91 20.85 3.12 31.5 2.83 5.78-.16 11.63.69 17.39 1.54 14.9 2.18 29.67 6.14 45.03 4.02zM315.96 518c12.57-.76 21.42-1.2 30.25-1.86 18.17-1.37 34.9-7.55 51.03-15.64 3.54-1.77 5.37-4.81 6.64-8.4.84-2.38.31-4.12-1.52-5.76-1.84-1.65-3.6-1.88-5.89-.84-14.96 6.81-30.38 11.8-46.65 14.97-21.69 4.22-43.37 5.64-65.04 2.55-31.22-4.45-62.06-11.22-92.2-20.58-10.81-3.36-21.72-7.16-31.01-14.18-2.79-2.11-6.49-2.03-8.74-.02-2.99 2.67-4.08 7.76-1.7 10.58 2.33 2.76 4.94 5.78 8.09 7.26 6.82 3.19 13.93 5.92 21.17 8 9.94 2.85 20.31 4.27 30.12 7.46 18.79 6.12 38.27 8.86 57.6 12.01 16.97 2.75 34.32 3.26 47.85 4.45zM198.6 398.69c.27.07.55.13.82.2.18 2.8.02 5.67.61 8.38 1.21 5.64 7.01 7.48 10.71 3.11 2.55-3.02 4.04-7.01 5.65-10.73 1.01-2.34.83-5.29 2.1-7.42 5.35-8.96 8.52-18.69 11.79-28.54 5.78-17.38 12.72-34.38 18.96-51.61 1.61-4.44 2.43-9.16 3.6-13.76.62-2.44.39-4.65-1.42-6.63-2.77-3.04-3.13-6.52-1.52-10.24 2.56-5.93 4.93-11.95 7.75-17.75 5.64-11.65 11.78-23.07 17.21-34.81 2.32-5.02 3.52-10.59 4.9-15.99.27-1.05-.7-2.81-1.64-3.62-.44-.38-2.32.53-3.25 1.25-.8.61-1.24 1.74-1.73 2.69-2.54 5-5.11 9.99-7.55 15.05-5.82 12.05-11.66 24.09-17.32 36.21-3.01 6.44-5.74 13.02-8.46 19.59-1.85 4.48-1.58 8.68 1.59 12.76 2.77 3.56 3.76 7.78 2.15 12.24-2.26 6.28-4.49 12.58-6.91 18.81-5.22 13.46-10.47 26.92-15.91 40.29-1.02 2.5-2.83 4.76-4.63 6.82-.59.68-2.6.84-3.44.36-.79-.46-1.38-2.18-1.19-3.19.53-2.96 1.55-5.83 2.28-8.75 3.16-12.75 8.41-24.88 10.22-38.06.9-6.57-1.02-10.54-6.09-14.17-8.22-5.89-9.24-9.94-5.57-19.43 1.79-4.63 3.85-9.15 5.65-13.78 6.41-16.5 12.9-32.96 19.02-49.57 1.3-3.52 1.26-7.56 1.63-11.39.2-2.02-.25-4.35-2.83-4.08-1.27.13-2.9 1.74-3.45 3.07-1.64 3.97-2.73 8.16-4.2 12.2-6.13 16.82-12.35 33.61-18.47 50.44-2.87 7.9-5.87 15.78-8.28 23.83-2.24 7.47-.55 10.98 6.03 15.12 7.79 4.9 10.07 11.89 7.22 20.61-3.69 11.27-7.39 22.56-10.47 34.01-2.36 8.68-3.75 17.64-5.56 26.48zm55.51 28.8c5.99-1.99 9.41-5.15 12.26-8.96 4.66-6.23 8.66-12.79 11.66-20.09 3.2-7.76 7.53-15.04 11.26-22.58 3.14-6.34 4.83-12.83 2.59-20.01-.63-2.03-.12-4.69.6-6.82 1.84-5.49 2.37-10.93.91-16.56-2.45-9.44-11.75-13.47-20.27-8.64-5.02 2.85-8.55 7.16-11.32 12.17-5.1 9.23-6.98 19.95-13.43 28.6-1.91 2.56-2.75 6.25-.62 9.18 2.31 3.18 1.76 6.08.26 9.08-3.57 7.13-7.31 14.17-10.91 21.28-2.16 4.27-5.16 8.21-5.77 13.39 5.69-.95 6.48-1.29 9.18-5.6 3.44-5.48 6.42-11.26 10.02-16.62 2.42-3.61 4.8-7.04 5.76-11.41 1.3-5.94 4.72-10.11 11.05-11.28 9.25 5.6 10.15 8.4 5.05 17.97-2.12 3.98-5.15 7.48-7.35 11.43-3.56 6.38-6.88 12.91-10.09 19.48-.67 1.41-.48 3.25-.84 5.99zm75.36-197.78c-.77-9.27-3.67-15.56-10.19-19.69-6.38-4.05-12.6-2.91-17.09 3.19-1.9 2.58-3.39 5.51-4.72 8.43-4.12 9.03-7.86 18.23-12.18 27.16-2.52 5.21-5.85 10.03-8.85 15.01-2.55 4.23-2.78 7.14.42 9.84 4.28 3.61 4.3 7.72 2.53 12.23-1.09 2.8-2.7 5.39-4.09 8.07-1.8 3.44-3.73 6.82-5.38 10.33-.99 2.1-1.09 4.4 1.52 5.49 2.4 1 3.45-.85 4.4-2.65 3.45-6.47 6.68-13.07 10.48-19.33 2.01-3.31 2.95-6.19 2.29-10.21-1.14-6.86 3.39-10.91 10.39-10.1 2.14.25 4.29.58 6.37 1.13 4.14 1.1 5.82 3.48 4.53 7.69-1.31 4.28-3.46 8.31-5.36 12.39-2 4.28-4.29 8.44-6.17 12.77-.92 2.11-.69 4.78 1.93 5.26 1.34.25 3.12-1.55 4.6-2.57.47-.32.6-1.12.92-1.68 3.9-6.95 7.83-13.88 11.69-20.85 3.29-5.96 6.18-12.67 4.48-19.09-1.91-7.21-.42-12.99 2.43-19.23 2.22-4.85 3.75-10.02 5.05-13.59zm80.18 94.86c.43.42.85.84 1.28 1.25 2.87-2.46 6.13-4.6 8.53-7.45 5.54-6.61 10.74-13.51 15.94-20.41 5.09-6.76 7.38-14.02 3.91-22.42-2.12-5.14-2.61-10.46.3-15.62 1.47-2.6 1.61-5.12.13-7.97-1.45-2.8-.53-5.45 2.05-7.42 1.2-.92 2.47-1.81 3.45-2.93 5.55-6.3 5.13-9.86 1.94-15.11-3.17-5.23-7.72-9.05-13.47-10.51-6.83-1.73-13.91-2.63-20.94-3.31-4.71-.46-7.41 3.2-5.48 7.48 1.41 3.13 1.24 5.72.04 8.61-4.39 10.55-8.34 21.3-13.22 31.62-5.98 12.65-12.76 24.92-19.13 37.39-1.17 2.3-2.18 4.71-3.01 7.15-.35 1.04-.06 2.29-.06 3.61 4.72-.03 7.31-2.39 9.15-5.76 2.27-4.16 4.4-8.41 6.63-12.59 6.49-12.18 12.95-24.38 19.52-36.51 2.47-4.56 6.37-6.7 10.34-6.09 7.37 1.12 11.96 7.19 9.86 14.42-1.62 5.58-.81 10.67.71 15.83 1.54 5.21 1.85 10.34-.96 15.04-4.18 7.02-8.56 13.93-13.28 20.59-2.45 3.48-3.74 7.08-4.23 11.11zm-35.63.96c-.68-.31-1.36-.63-2.03-.94-2.23 1.9-4.89 3.48-6.59 5.77-2.55 3.42-4.61 7.25-6.56 11.07-6.29 12.29-12.38 24.67-18.69 36.94-.74 1.45-2.09 2.98-3.53 3.56-1.35.54-3.49.34-4.72-.43-.9-.56-1.39-2.68-1.16-3.93.46-2.52 1.59-4.9 2.35-7.38 1.38-4.53 2.64-9.11 4.05-13.63 1.65-5.31.81-9.57-4.04-13.06-4.42-3.17-6.03-7.67-4.24-13.16 1.74-5.33-.65-8.99-5.58-12.29-1.58 2.42-3.18 4.42-4.27 6.66-3.02 6.2-5.65 12.6-8.79 18.74-1.71 3.34-2.16 6.45-.7 9.89 1.84 4.34 1.64 8.84.89 13.38-1.13 6.92-3.75 13.22-7.35 19.23-5.43 9.06-10.8 18.16-15.82 27.45-1.81 3.35-2.75 7.23-3.64 10.98-.6 2.5 1.08 3.52 3.49 3.08 3.06-.55 4.87-2.5 5.91-5.37 3.32-9.19 8.47-17.41 13.31-25.85 4.47-7.8 7.91-16.18 8.94-25.39.55-4.95 2.36-9.64 6.08-13.32 1.99-1.96 4.15-3.18 6.95-1.9 2.6 1.19 3.13 3.68 2.85 6.03-.95 7.89-.96 15.93-4.43 23.43-1.39 3-1.49 6.61-2.07 9.96-.73 4.24-.92 8.62-2.12 12.71-1.86 6.4-4.4 12.61-6.59 18.92-.75 2.15-1.83 4.39.14 6.62.85-.24 1.72-.22 1.99-.61 3.36-4.7 7.04-9.24 9.83-14.26 5.21-9.36 7.65-20.24 15.79-28.01 1.47-1.4 2.12-3.71 2.97-5.68 3.34-7.71 6.38-15.56 10-23.14 2.22-4.64 4.76-9.35 8.13-13.18 4.45-5.05 6.76-11.01 9.13-17 .69-1.7.12-3.91.12-5.89zm-3.48-81.71c4.63-4.94 7.35-10.9 6.24-17.84-1.63-10.21-13.33-14.24-21.19-7.34-2.67 2.34-4.82 5.56-6.45 8.76-4.28 8.43-8.2 17.05-12.16 25.64-1.73 3.75-.81 5.64 3.61 8.24 4.06 2.39 4.01 2.96 2.08 7.02-3.59 7.53-6.91 15.2-10.24 22.85-.68 1.56-.87 3.34-1.35 5-.93 3.21.02 5.92 2.06 8.42 5.18 6.37 14.97 6.32 20.28-.38 2.26-2.85 4.43-5.99 5.71-9.36 4.51-11.81 11.54-22.17 18.09-32.83 1.12-1.83 2.47-3.7 2.91-5.72.36-1.66-.04-3.86-.93-5.31-1.14-1.86-3.33-1.77-5.22-.71-3.51 1.97-7.08 2.82-11.18 1.97-1.34-.28-3.7.64-4.35 1.75-.66 1.11-.15 3.32.54 4.71.59 1.21 2.11 1.99 3.28 2.88 1.46 1.12 2.97 2.16 4.75 3.44-4.71 7.71-9.05 14.88-13.47 22-.67 1.08-1.63 2.02-2.57 2.91-2.89 2.73-3.41 2.68-7.94-.83 1.41-4.88 2.05-10.47 4.57-15.01 3.25-5.86 5.05-11.78 5.27-18.32-5.2-4.4-5.47-5.62-2.76-11.46 1.91-4.11 3.66-8.29 5.63-12.36 1.12-2.32 2.41-4.59 3.89-6.69 1.92-2.74 4.25-2.91 7.29-1.28 2.93 1.58 4.38 3.41 3.34 6.68-.85 2.67-1.8 5.31-2.76 7.95-.94 2.49-.3 4.18 3.03 5.22zm77.66 65.88c2.89.91 4.43 1.59 6.05 1.85 2.77.44 5.6.45 8.36.91 9.69 1.63 13.17 7.65 9.81 16.81-2.2 5.98-5.8 11.03-10.26 15.53-10.63 10.72-21.34 21.32-30.36 33.58-5.84 7.94-13.19 14.78-19.9 22.07-7.89 8.57-16.05 16.92-21.59 27.35-1.23 2.31-2.16 4.58-.91 7.58 4.06-1.52 6.28-4.82 8.96-7.51 14.3-14.36 26.05-31.04 40.78-44.99 8.19-7.76 15.33-16.38 21.96-25.44 4.19-5.73 8.36-11.53 11.87-17.69 3.62-6.36 6.42-13.18 9.57-19.8 2.61-5.47 2.04-7.61-3.27-10.27-3.66-1.83-7.56-3.18-11.31-4.82-5.12-2.25-6.19-4.38-4.02-9.62 1.55-3.75 4.01-7.11 5.81-10.76 2.17-4.41 4.15-8.93 6.06-13.46.84-2 .53-3.84-2.24-4.8-3.98 3.27-6.23 7.8-8.45 12.46-2.87 6.02-6.01 11.91-9.18 17.77-2.24 4.12-4.72 8.1-7.74 13.25zm-95.48 127.84c.5.49 1 .97 1.5 1.46 1.43-.72 3.31-1.08 4.21-2.22 3.19-4.03 6.28-8.19 8.99-12.56 5.11-8.23 9.32-17.09 15.06-24.83 5.24-7.07 8.66-14.64 11.64-22.8 3.23-8.86 6.7-17.84 12.75-25.31 1.94-2.4 4.77-5.32 7.46-5.62 8.64-.96 15.76-5.74 23.74-8.22 1.56-.48 3.08-1.64 4.16-2.89.69-.8 1.01-2.59.58-3.47-.42-.86-2.15-1.73-3.1-1.55-4.63.88-9.62 1.31-13.69 3.42-5.77 2.99-10.97 6.91-17.99 4.72-.36-.11-.84.16-1.26.21-6.93.9-13.76 1.26-20.05-2.81-.84-.54-2.76-.49-3.46.12-.75.65-1.16 2.49-.78 3.44.58 1.47 1.73 2.98 3.05 3.84 1.57 1.03 3.57 1.42 5.41 2.02 4.68 1.54 5.82 2.78 4.56 7.43-1.22 4.49-3.31 8.77-5.26 13.02-1.52 3.32-3.68 6.35-5.1 9.7-2.69 6.35-4.46 13.16-7.69 19.2-6.4 11.98-13.56 23.56-20.35 35.33-1.58 2.74-2.93 5.58-4.38 8.37zM433.5 84.23c3.49.35 4.42-.65 6.07-1.38 1.99-.88 4.35-2.37 5.14-4.2 1.04-2.42 1.24-5.52.78-8.15-.31-1.77-2.11-4.13-3.74-4.65-3.6-1.14-7.52-1.74-11.3-1.73-4.38.02-6.79 3.48-8.41 7.04-1.6 3.51-.41 7.21 2.36 9.35 2.49 1.94 5.52 3.19 9.1 3.72zM175.85 58.12c-5.54.14-9.42 2.81-11.39 7.84-2.3 5.87 1.35 11.4 7.48 10.61 3.72-.48 7.42-1.98 10.84-3.63 1.43-.69 2.75-2.84 3-4.49.73-4.91-4.85-10.46-9.93-10.33z" fill="#1c1a1a" data-color="1"/>
        <path d="M266.9 354.8c2.69-4.56 4.86-8.69 7.49-12.51 1.51-2.18 4.09-1.51 5.7-.06 1.42 1.28 3.3 3.71 2.91 5.01-1.15 3.81-3.09 7.46-5.2 10.87-1.39 2.24-4.08 2.56-6.3 1.22-1.64-.97-2.81-2.71-4.6-4.53z" fill="#1c1a1a" data-color="1"/>
        <path d="M317.86 235.46c-2.53 5.42-4.83 10.96-7.68 16.21-1.42 2.62-4.35 3.45-7.37 2.85-2.79-.55-3.99-2.37-3.16-5.14 1.23-4.12 2.28-8.4 4.25-12.17 1.41-2.7 3.86-5.27 6.48-6.81 3.62-2.1 6.89.49 7.48 5.06z" fill="#1c1a1a" data-color="1"/>
        <path d="M426.59 240.21c-4.98-.06-8.31-2.12-9.13-4.87-.96-3.22.85-5.32 3.07-7.2 3.33-2.82 6.65-5.68 11.51-3.25 2.33 1.17 5.29 2.22 4.83 5.26-.38 2.54-1.56 5.53-3.42 7.13-2.1 1.83-5.36 2.34-6.86 2.93z" fill="#1c1a1a" data-color="1"/>
    </g>
</svg>