<svg preserveAspectRatio="xMidYMid meet" data-bbox="195.578 85.742 208.861 428.509" viewBox="195.578 85.742 208.861 428.509" xmlns="http://www.w3.org/2000/svg" data-type="color" role="img" aria-label="Boom man logo"><defs><style>#comp-lxdfzc0f1 svg [data-color="1"] {fill: #F91239;}</style></defs>
    <g>
        <path d="M238.41 456.4c0 8 .08 16-.02 24-.12 8.98-2.33 17.58-5.62 25.83-2.79 6.99-8.48 9.26-16.68 7.4-9.51-2.16-13.03-6.53-14.29-16.31-1.66-12.9-2.38-25.82-2.56-38.83-.13-9.3-1.82-18.56-2.33-27.87-.41-7.43-.21-14.9-.1-22.34.21-13.94.71-27.88.76-41.82.02-4.96-.88-9.92-1.38-14.88-.96-9.42-.88-18.79.88-28.14.93-4.97 1.1-10.08 2.1-15.03 1.98-9.77 4.24-19.49 6.5-29.2 2.07-8.94 4.06-17.91 6.5-26.75 2.86-10.37 6.36-20.57 9.24-30.94 3.53-12.73 6.83-25.53 10.01-38.35 2.92-11.75 5.4-23.61 8.36-35.35 2.47-9.81 4.88-19.69 8.23-29.22 2.64-7.51 6.66-14.53 10.08-21.76.27-.57.65-1.09.95-1.65 2.52-4.74 6.3-7.22 11.83-7.28 6.81-.08 13.64-.32 20.42-.92 6.96-.61 13.89-.77 20.84-.2.98.08 2.03-.31 3-.62 3.71-1.18 7.16.41 10.73.85 9.87 1.21 19.35 4.02 28.8 6.89 5.1 1.54 5.62 3.22 2.84 7.75-1.65 2.69-3.74 5.1-5.6 7.66-2.5 3.44-6.43 3.22-9.93 3.54-8.96.82-17.97 1.18-26.94 1.94-2.22.19-4.36 1.31-6.57 1.84-2.52.6-5.09 1-7.63 1.54-4.38.93-8.91 1.48-13.1 2.97-3.6 1.28-5.44 4.97-6.58 8.34-3.24 9.54-5.95 19.27-8.97 28.89-1.11 3.53-2.75 6.9-3.72 10.46-.62 2.29-.61 4.79-.59 7.19.02 2.25 1.39 3.47 3.65 3.99 5.22 1.22 6.4.79 9.21-3.67 1.17-1.86 2.53-3.61 3.76-5.44 3.17-4.74 6.59-9.33 9.41-14.27 6.07-10.63 14.54-18.14 26.24-22.11 4.98-1.69 9.88-2.99 15.08-1.66 1.57.4 3.4.97 4.42 2.09 8.32 9.16 12.46 17.6 3.24 30.26-3.81 5.23-7.35 10.71-11.6 15.56-3.46 3.94-7.72 7.2-11.77 10.59-2.55 2.14-3.48 5.96-2.37 9.11 2.2 6.24 7.71 7.92 13.05 9.49 4.59 1.36 9.42 1.97 14.18 2.7 1.52.23 3.15-.1 4.71-.33 2.73-.4 5.44-.96 8.17-1.37 4.91-.74 7.36-4.15 8.73-8.4 2.13-6.6 4.02-13.27 5.92-19.94 1.94-6.82 3.87-13.65 5.62-20.53 1.51-5.95 2.79-11.96 4.1-17.96.56-2.58 4.8-7.03 7.36-7.53 5.08-.99 12.14 3.76 13.61 8.75 1.02 3.49 2.2 6.77 1.75 10.6a169.165 169.165 0 0 1-8.09 35.52c-3.7 10.77-6.58 21.82-10.27 32.59-2.37 6.93-6.13 13.34-11.57 18.31-2.27 2.08-5.75 2.85-8.7 4.17-.94.42-2.03.52-2.9 1.04-5.74 3.45-11.63 2.13-17.65.99-2.9-.55-6.06-.6-8.97-.09-4.81.83-9.26-.26-13.77-1.44-1.98-.52-3.94-1.14-5.9-1.76-1.62-.51-2.73.26-3.23 1.61-1.27 3.44-2.37 6.93-3.5 10.42-2.21 6.85-4.57 13.66-6.54 20.58-1.83 6.46-3.54 13-4.68 19.61-.52 3 .2 6.3.83 9.38 1.55 7.66 3.19 15.31 5.14 22.88 1.58 6.12 3.92 12.05 5.45 18.17 1.36 5.42 2.27 10.98 3.04 16.52 1.15 8.21 1.5 16.54 3.99 24.55.67 2.17.86 4.5 1.12 6.78.74 6.52 1.62 13.04 2.06 19.58.65 9.79 1.4 19.6 1.28 29.39-.09 7.63-1.85 15.23-2.13 22.87-.29 8.04-2.82 15.45-5.92 22.55-2.68 6.15-6.06 12.16-11.24 16.81-.99.89-1.86 1.95-2.66 3.03-4.11 5.61-12.43 5.19-15.47-1.05-1.28-2.63-2.28-5.73-2.24-8.6.14-10.19.8-20.37 1.22-30.56.28-6.86.53-13.72.75-20.59.22-6.71.46-13.42.55-20.13.14-10.6-1.11-20.85-5.6-30.76-4.7-10.36-8.46-21.16-12.46-31.82-1.75-4.65-2.96-9.51-4.63-14.19-1.38-3.87-3.05-7.64-4.7-11.41-.36-.83-1.08-1.58-1.8-2.15-2.83-2.22-4.75-1.6-6.26 1.67-3.06 6.6-4.2 13.73-5.96 20.69-2.09 8.3-2.27 16.77-2.74 25.23-.81 14.47-1.75 28.94-2.3 43.43-.34 8.86-.06 17.74-.06 26.61.18.01.38.01.58.01zm75.01-298.18c0 2.48 2.1 3.78 4.33 2.7 2.97-1.45 4.55-4.04 5.5-7.03.48-1.51-1.27-3.49-2.77-3.35-3.04.28-7.06 4.66-7.06 7.68zm19.39-3.51c-1.07.85-2.67 1.48-3.1 2.58-.74 1.89-.99 4.07-.98 6.12.01.9 1 2.28 1.84 2.55.86.28 2.51-.19 3.05-.91 1.21-1.6 2.18-3.48 2.82-5.39 1.01-3.01-.02-4.26-3.63-4.95z" fill="#1c1a1a" data-color="1"/>
    </g>
</svg>