<svg preserveAspectRatio="xMidYMid meet" data-bbox="0 -0.004 1279.519 275.868" viewBox="0 -0.004 1279.519 275.868" xmlns="http://www.w3.org/2000/svg" data-type="color" role="presentation" aria-hidden="true" aria-label="char">
    <g>
        <path d="M613.1 145.75c-1.54 40.44-3.06 80.12-4.58 120.02h-33.53c4.32-85.07 8.63-170.05 12.95-255.25 1.27-.1 2.25-.23 3.23-.24 14.04-.18 28.08-.42 42.12-.47 8.26-.03 16.53.5 24.79.35 24.78-.44 49.56-1.11 74.33-1.65 5.94-.13 11.89-.01 17.83-.18 10.09-.29 17.98 4.07 24.47 11.41 10.53 11.92 14.07 26.09 13.19 41.61-.59 10.38-2.03 20.64-6.72 30.05-2.5 5.01-5.4 9.91-8.69 14.43-5.85 8.03-14.67 11.53-23.78 14.31-10.53 3.21-21.35 4.63-32.33 5.08-12.17.5-24.33 1.37-36.5 1.61-9.93.2-19.86-.3-29.8-.48-1.09-.02-2.19 0-3.52 0 34.36 38.01 70.57 74.03 96.53 118.47.28-.1.55-.19.83-.29 1.71-5.09 3.37-10.19 5.12-15.26 9.41-27.24 18.74-54.51 28.29-81.7C786.31 122 795.4 96.46 804.69 71c5.59-15.32 11.72-30.43 17.45-45.7 1.89-5.05 3.35-10.26 4.9-15.43.57-1.91 1.43-2.72 3.63-2.71 11.17.09 22.33.04 33.5-.14 2.24-.03 3.03.77 3.43 2.82 2.16 10.98 4.53 21.93 6.61 32.92 2.33 12.31 4.63 24.63 6.55 37 1.6 10.28 2.61 20.65 3.93 30.97 1.28 10.02 2.63 20.03 3.94 30.04 1.15 8.8 2.32 17.6 3.42 26.41 1.21 9.62 2.41 19.24 3.5 28.88.96 8.43 1.67 16.88 2.65 25.3 1.24 10.64 2.63 21.27 3.97 31.9.52 4.12 1.08 8.24 1.66 12.69-9.23 0-18.12.02-27.02 0-7.05-.02-7.17-.02-8.1-7.13-1.92-14.78-3.78-29.58-5.51-44.38-2.16-18.37-4.17-36.76-6.25-55.13-.02-.18-.19-.35-.42-.77h-47.55c-4.1 12.27-8.06 25-12.6 37.53-6.92 19.08-14.24 38.02-21.37 57.03-1.32 3.53-2.6 7.08-3.75 10.67-.52 1.61-1.29 2.25-3.04 2.24-19.17-.06-38.33-.02-57.5-.13-1.08 0-2.52-.89-3.15-1.8-2.97-4.29-6-8.58-8.5-13.15-6.56-11.97-15.79-21.89-24.39-32.28-16.98-20.51-34.07-40.93-51.18-61.34-3.2-3.82-6.67-7.42-10.41-11.55Zm51.92-54.96v-.69c8.19 0 16.41.42 24.58-.09 14.08-.88 28.17-1.95 42.17-3.66 12.51-1.53 19.96-10.19 19.37-21.65-.22-4.25-1.18-8.5-2.2-12.65-1.57-6.36-5.63-10.46-12.25-11.31-7.19-.93-14.42-1.74-21.66-2.16-6.95-.4-13.95.03-20.9-.35-18.65-1.01-37.27-.7-55.89.59-5.71.4-11.46.75-17.16.53-4.12-.16-5.37.28-5.44 4.27-.26 14.23-.47 28.47-.65 42.71-.04 3.35 2.18 5.26 5.49 4.98 2.45-.21 4.9-.49 7.35-.5 12.4-.05 24.8-.02 37.2-.02Zm180.92-29.7c-.38-.07-.77-.13-1.15-.2-7.33 20.58-14.66 41.16-22.05 61.89H853c-2.39-20.9-4.72-41.29-7.05-61.69Z" fill="#f91239" data-color="1"/>
        <path d="M444.5 262.54c-9.35 0-18.24-.02-27.14.01-3.18.01-6.37 0-9.52.29-2.26.21-3.2-.63-3.95-2.69-6.91-18.89-13.84-37.77-20.94-56.59-4.98-13.19-10.29-26.25-15.29-39.42-.72-1.89-1.58-2.35-3.49-2.38-27.45-.45-54.9-1.05-82.35-1.48-5.42-.09-10.85.24-16.26.63-.99.07-2.33 1.12-2.76 2.06-6.08 13.15-12.27 26.26-17.95 39.59-8.55 20.07-16.71 40.31-25.1 60.46-.39.93-1.43 2.27-2.19 2.28-11.77.14-23.55.1-35.48.1.06-.27.1-.84.29-1.36 11.34-30.54 23.64-60.68 37.01-90.39 23.85-52.99 47.75-105.96 75.03-157.31 1.49-2.8 3.18-5.49 4.57-8.34.85-1.75 2.01-2.17 3.85-2.16 11.38.01 22.75-.07 34.13-.2 1.86-.02 2.89.44 3.71 2.29 11.86 26.9 23.87 53.73 35.75 80.62 7.84 17.74 16.16 35.31 23.18 53.37 13.9 35.74 29.17 70.98 40.63 107.65 1.3 4.16 2.73 8.29 4.29 13ZM280.73 123.49c23.7-.76 46.38-1.49 69.55-2.23-10.35-24.54-20.69-49.07-31.32-74.29-12.88 25.79-25.41 50.85-38.23 76.51Z" fill="#f91239" data-color="1"/>
        <path d="M945.59 92.67c-.59 57.6-1.18 115.2-1.78 173.05h-29.38c0-3.56-.06-7.1.01-10.64.39-18.33.78-36.66 1.23-54.99.37-15.05.88-30.09 1.2-45.14.66-30.41 1.24-60.82 1.85-91.22.34-16.8.72-33.59 1.03-50.39.13-7.23.06-7.26 7.23-7.35 6.35-.08 12.71 0 19.06-.17 2.05-.06 3.18.57 3.98 2.45 5.32 12.38 10.92 24.63 16.04 37.09 13.67 33.22 27.16 66.5 40.66 99.78 2.07 5.1 3.81 10.33 5.72 15.5.12.32.31.62.47.93.32-.04.64-.08.97-.11v-30.97c0-16.6-.22-33.21.09-49.81.38-20.28 1.14-40.54 1.92-60.81.17-4.37 1.03-8.72 1.8-13.04.13-.76 1.36-1.88 2.1-1.89 8.58-.21 17.17-.24 25.76-.31.39 0 .79.08 1.34.14.07.54.2 1.02.19 1.5-.39 19.45-.85 38.9-1.17 58.35-.17 10.14-.03 20.29-.18 30.44-.29 20.28-.91 40.56-.95 60.85-.06 28.57.41 57.15.35 85.73-.02 7.55-1.12 15.1-1.86 22.63-.06.62-1.25 1.6-1.92 1.61-8.81.11-17.62.13-26.44 0-.83-.01-1.91-.93-2.42-1.71-10.76-16.65-17.55-35.06-23.45-53.81-11.65-37.03-25.34-73.31-39.43-109.46-1.07-2.74-1.97-5.54-2.95-8.31-.36.03-.72.07-1.08.1Z" fill="#f91239" data-color="1"/>
        <path d="M262.25 6.48c-1.56 5.76-2.52 11.47-4.64 16.7-6.76 16.63-13.81 33.16-21.03 49.6-15.34 34.95-30.68 69.9-46.34 104.7-12.32 27.39-22.63 55.54-32.66 83.82-1.69 4.77-1.71 4.77-6.76 4.86-11.07.18-22.14.2-33.19.6-3.48.13-5.08-.85-6.38-4.22-14.62-37.87-30.64-75.15-47.77-111.94C45.05 111.01 26.04 71.7 7.56 32.14c-3.17-6.79-5-14.22-7.4-21.37-.21-.64-.09-1.38-.16-2.9 3.91 0 7.65.01 11.38 0 7.89-.04 15.78.03 23.66-.21 2.66-.08 3.93.89 5.16 3.14C52.91 34.04 64.5 57.82 75.32 82c17.78 39.73 35.84 79.34 53.73 119.02 2.18 4.83 4.05 9.8 6.22 15.08 1.2-2.93 2.23-5.6 3.38-8.22 16.73-38.16 33.36-76.37 50.24-114.46 12.42-28.01 25.22-55.86 37.72-83.84 1.1-2.47 2.33-3.19 4.96-3.15 9.92.18 19.85.07 30.68.07Z" fill="#f91239" data-color="1"/>
        <path d="M535.27 69.04c-.86-8.56-1.9-16.27-2.34-24.02-.29-5.13-2.91-7.8-7.22-9.99-8.11-4.13-16.49-5.05-25.37-3.77-4.73.68-8.33 2.85-9.83 7.25-2.73 8.02-5.61 16.09-7.2 24.37-1.74 9.09-2.62 18.44-2.96 27.7-.98 26.72-1.95 53.45-2.03 80.18-.06 18.81-.45 37.73 3.06 56.37.65 3.47 2.15 6.8 3.43 10.13.38.99 1.25 1.87 2.08 2.6 6.24 5.53 20.61 6.86 27.5 2.13 2.1-1.44 4.11-4.07 4.68-6.5 1.74-7.44 3.45-15 3.93-22.59 1.33-21.05 2.03-42.13 2.99-63.21.11-2.45.28-4.91.56-7.35.29-2.55-.91-3.57-3.3-3.69-6.13-.31-12.26-.77-18.4-.96-2.37-.07-3.25-.79-3.11-3.26.4-7.47.65-14.95.83-22.42.05-2.03.56-2.93 2.8-2.89 16.09.29 32.17.45 48.26.7 3.55.06 5.15 1.55 5.14 5.4-.02 8.29-.24 16.58-.53 24.86-.42 11.97-.95 23.95-1.47 35.92-.8 18.19-.76 36.47-4.12 54.45-2.07 11.06-5.11 21.97-13.59 30.04-13.69 13.02-30.14 17.67-48.69 14.33-8.32-1.5-16.18-4.46-23.19-9.4-11.1-7.82-15.77-19.4-18.24-32.02-3.03-15.52-3.87-31.28-3.89-47.08-.02-16.91-.54-33.84.13-50.72.96-24.13 2.18-48.29 4.53-72.32 1.29-13.2 5.48-26.09 11.51-38.08 7.9-15.71 20.93-23.69 38.47-24.99 15.03-1.12 28.84 2.17 41.85 9.59 13.14 7.5 21.1 18.22 21.62 33.76.25 7.36.51 14.72.8 22.08.09 2.38-.69 3.5-3.36 3.45-8.38-.15-16.77-.05-25.31-.05Z" fill="#f91239" data-color="1"/>
        <path d="M1277.08 85.09h-29.64c.26-4.66.32-9.13.79-13.56.95-8.89 1.38-17.71-.46-26.59-1.13-5.47-9.18-8.88-13.93-8.08-1 .17-1.94 1.39-2.68 2.31-4.65 5.83-5.54 13.07-7.37 19.95-2.24 8.43-2.76 17.12-1.56 25.6.75 5.27 3.14 10.62 5.96 15.22 5.24 8.54 11.69 16.33 16.98 24.84 6.52 10.51 12.83 21.2 18.38 32.25 5.38 10.7 7.07 22.63 8.8 34.38 2.5 16.99 2.22 34.03-1.93 50.67-4.87 19.56-24.07 33.63-43.97 32.9-24.79-.9-42-22.66-45.35-42.92-2.39-14.44-2.69-28.91-2.27-43.44.13-4.7.82-9.38 1.2-14.07.16-2 1.08-2.8 3.15-2.79 8.3.04 16.6.02 24.9-.14 2.7-.05 3.78 1.13 3.76 3.61-.04 4.91-.08 9.82-.25 14.72-.42 12.78-.71 25.53 1.99 38.17 1.16 5.42 4.35 9.24 8.5 12.33 5.25 3.91 14.98-.13 16.26-6.55 1.93-9.62 2.21-19.33.68-28.98-1.49-9.46-3.04-18.98-5.61-28.17-3.4-12.14-10.89-22.39-17.35-33.05-6.26-10.32-13.33-20.18-19.17-30.73-7-12.65-9.01-26.47-8.05-40.99.75-11.4 3.54-22.2 7.04-32.89 3.34-10.21 8.75-19.26 17.48-25.83 14.07-10.6 32.05-8.12 45.59.37 7.35 4.61 13.64 10.46 16.18 19.03 1.79 6.04 2.9 12.34 3.77 18.6 1.57 11.27-.14 22.44-1.84 33.82Z" fill="#f91239" data-color="1"/>
        <path d="M1136.13 265.86h-35.19c-.13-2.46-.4-4.86-.36-7.26.37-23.45.68-46.9 1.23-70.34.51-21.4 1.11-42.8 2.05-64.19.57-12.98 2.06-25.91 2.75-38.89.77-14.52 1.15-29.06 1.57-43.6.11-3.77-.59-4.32-4.42-4.5-8.38-.39-16.77-.72-25.49-1.09-.57-8.85-1.13-17.58-1.71-26.64 33.39-.31 66.52-.62 99.86-.94v32.03h-4.14c-8.3-.04-16.6-.1-24.9-.11-3.47 0-4.36 1.13-4.49 4.6-.7 18.92-1.46 37.85-2.26 56.77-.36 8.69-.97 17.38-1.26 26.07-.85 25.9-1.61 51.81-2.38 77.72-.27 9.01-.47 18.02-.7 27.03-.2 7.98-.46 15.97-.57 23.95-.04 3.02.27 6.05.44 9.39Z" fill="#f91239" data-color="1"/>
    </g>
</svg>