<svg preserveAspectRatio="xMidYMid meet" data-bbox="63.83 63.6 472.38 172.81" viewBox="63.83 63.6 472.38 172.81" xmlns="http://www.w3.org/2000/svg" data-type="color" role="presentation" aria-hidden="true" aria-label="char">
    <g>
        <path d="M268.97 84.41h-3.6v46.29h3.59c1.91 0 3.46-1.57 3.46-3.49V87.9c0-1.92-1.55-3.49-3.46-3.49Zm59.42 52.19-.91-15.85-.9 15.85-2.03 23.06h5.87l-2.03-23.06Zm0 0-.91-15.85-.9 15.85-2.03 23.06h5.87l-2.03-23.06Zm-59.42-52.19h-3.6v46.29h3.59c1.91 0 3.46-1.57 3.46-3.49V87.9c0-1.92-1.55-3.49-3.46-3.49Zm-119.9 52.19-.9-15.85-.9 15.85-2.04 23.06h5.88l-2.04-23.06Zm119.9-52.19h-3.6v46.29h3.59c1.91 0 3.46-1.57 3.46-3.49V87.9c0-1.92-1.55-3.49-3.46-3.49Zm59.42 52.19-.91-15.85-.9 15.85-2.03 23.06h5.87l-2.03-23.06Zm0 0-.91-15.85-.9 15.85-2.03 23.06h5.87l-2.03-23.06Zm-59.42-52.19h-3.6v46.29h3.59c1.91 0 3.46-1.57 3.46-3.49V87.9c0-1.92-1.55-3.49-3.46-3.49Zm-119.9 52.19-.9-15.85-.9 15.85-2.04 23.06h5.88l-2.04-23.06Zm358.89-65.35v.02c-4.45-4.71-10.73-7.67-17.7-7.67s-13.85 3.26-18.31 8.38l-7.67-7.67H361.76v20.94l-20.94-20.94h-26.71l-.7 6.83-2.51 24.52-24.68-24.68c-2.22-2.15-4.85-3.9-7.81-5.11-2.95-1.2-6.22-1.86-9.68-1.86h-24.25v27.44L224.12 71.1c-4.41-4.52-10.57-7.34-17.37-7.34-12.49 0-22.81 9.47-24.16 21.61l-21.06-21.06h-26.71l-.7 6.83-.61 6.01-12.84-12.84H63.83l.86 8.38L78.2 204.74l.7 6.83 24.8 24.84h412.36c11.12 0 20.15-9.04 20.15-20.15V99.47l-28.23-28.23ZM98.72 203.98H85.75L72.24 71.91h13.15l5.94 67.39.91 15.85.9-15.85 5.94-67.39h13.15L98.72 203.98Zm56.29 0-2.74-31.06h-8.21l-2.73 31.06h-13.16l13.51-132.07h12.98l13.51 132.07h-13.15Zm68.47-85.92H210.2V88.1c0-1.91-1.55-3.47-3.45-3.47s-3.46 1.56-3.46 3.47v99.92c0 1.91 1.55 3.46 3.46 3.46s3.45-1.55 3.45-3.46v-44.05h-3.45v-13.23h16.73v57.28c0 9.22-7.51 16.73-16.73 16.73s-16.73-7.5-16.73-16.73V88.1c0-9.22 7.51-16.73 16.73-16.73s16.73 7.5 16.73 16.73v29.96Zm62.21 9.14c0 3.85-1.35 7.36-3.54 10.19 2.12 2.81 3.43 6.26 3.43 10.04v56.43H272.3v-56.43c0-1.91-1.55-3.47-3.45-3.47h-3.49v59.84h-13.27V71.62h16.64c9.45 0 16.95 7.03 16.95 16.27v39.31Zm48.64 76.77-2.74-31.06h-8.21l-2.74 31.06h-13.15L321 71.9h12.97l13.51 132.07h-13.15Zm68.39 0h-11.17l-10.63-65.37.54 65.37h-12.07V71.91h11.35l10.46 64.16-.55-64.16h12.08v132.07Zm53.99-118.91h-10.09v118.91h-13.16V85.06h-10.09V71.9h33.33v13.16Zm50.31 24.49h-13.27V87.93c0-1.9-1.55-3.46-3.46-3.46s-3.46 1.56-3.46 3.46v14.59c0 6.8 4.83 19.8 9.48 31.24 5.23 12.85 10.25 24.99 10.7 34.8v19.51c0 9.23-7.5 16.73-16.73 16.73s-16.73-7.5-16.73-16.73v-28.96h13.27v28.96c0 1.91 1.55 3.47 3.46 3.47s3.46-1.56 3.46-3.47v-18.06c0-7.45-4.97-19.55-9.73-31.24-5.15-12.68-10.1-24.7-10.46-34.24v-16.6c0-9.22 7.5-16.73 16.73-16.73s16.73 7.5 16.73 16.73v21.62Zm-179.55 11.19-.9 15.85-2.03 23.06h5.87l-2.03-23.06-.91-15.85Zm-58.51-36.33h-3.6v46.29h3.59c1.91 0 3.46-1.57 3.46-3.49V87.9c0-1.92-1.55-3.49-3.46-3.49Zm-120.8 36.33-.9 15.85-2.04 23.06h5.88l-2.04-23.06-.9-15.85Zm120.8-36.33h-3.6v46.29h3.59c1.91 0 3.46-1.57 3.46-3.49V87.9c0-1.92-1.55-3.49-3.46-3.49Zm59.42 52.19-.91-15.85-.9 15.85-2.03 23.06h5.87l-2.03-23.06Zm0 0-.91-15.85-.9 15.85-2.03 23.06h5.87l-2.03-23.06Zm-59.42-52.19h-3.6v46.29h3.59c1.91 0 3.46-1.57 3.46-3.49V87.9c0-1.92-1.55-3.49-3.46-3.49Zm59.42 52.19-.91-15.85-.9 15.85-2.03 23.06h5.87l-2.03-23.06Zm0 0-.91-15.85-.9 15.85-2.03 23.06h5.87l-2.03-23.06Z" fill="#ff283f" data-color="1"/>
    </g>
</svg>