<svg preserveAspectRatio="xMidYMid meet" data-bbox="90.621 207.149 419.341 185.86" viewBox="90.621 207.149 419.341 185.86" xmlns="http://www.w3.org/2000/svg" data-type="color" role="presentation" aria-hidden="true">
    <g>
        <path d="M290.13 287.14c2.43 11.8 7.42 22.51 12.84 33.32 9.4-33.26 21.7-65.16 35.57-96.7 4.01.21 8.12.42 12.38.64-.38 2.75-.72 5.27-1.06 7.78-.44 3.25-.87 6.5-1.3 9.75-.45 3.43-.91 6.87-1.32 10.3-.33 2.81-.58 5.63-.89 8.45-.43 3.86-.86 7.71-1.31 11.56-.38 3.22-.78 6.43-1.17 9.64-.54 4.48-1.11 8.96-1.61 13.45-.42 3.72-.75 7.45-1.16 11.18-.41 3.81-.89 7.62-1.29 11.43-.25 2.37-.4 4.74-.64 7.11-.33 3.27-.71 6.54-1.05 9.81-.23 2.23-.38 4.47-.61 6.7-.31 2.95-.72 5.89-.99 8.84-.14 1.46-.09 2.94-.11 4.41-.02 1.65-.71 2.19-2.32 1.99-.88-.11-1.79-.02-2.69-.02-.05.14-.1.27-.15.41 1.44 1.05 2.84 2.18 4.34 3.15 4.41 2.84 8.77 5.77 13.32 8.37 5.5 3.15 11.49 4.97 17.71 6.21 5.02 1 10.04 1.72 15.11 1.28 3.78-.33 7.55-1.07 11.27-1.91 12.01-2.71 23.86-6.02 35.46-10.18 14.97-5.37 29.38-11.88 42.58-20.87 5.93-4.04 11.51-8.51 16.38-13.79 5.88-6.37 10.62-13.43 12.75-22 2.26-9.08.77-17.63-3.48-25.8-3.71-7.14-9.01-13-15.04-18.24-13.24-11.51-28.68-19.15-44.85-25.49-13.85-5.42-28.12-9.45-42.63-12.62-7.05-1.54-14.18-2.74-21.3-3.93-5.65-.95-11.33-1.77-17.03-2.46-5.12-.62-10.28-1.04-15.42-1.42-6.13-.45-12.26-.89-18.39-1.1-8.5-.3-17.01-.5-25.51-.52-6.66-.01-13.33.24-19.99.54-4.98.22-9.96.62-14.93 1.1-5.49.53-10.97 1.27-16.45 1.88-11.26 1.27-22.42 3.19-33.48 5.58-23.8 5.16-46.98 12.23-68.6 23.72-10.89 5.78-21.08 12.59-29.64 21.56-5.99 6.28-10.85 13.31-13.09 21.84-2.45 9.29-1.17 18.17 3.28 26.62 4.01 7.62 9.7 13.85 16.26 19.33 13.25 11.08 28.5 18.55 44.48 24.72 14.47 5.58 29.37 9.66 44.51 12.86 7.37 1.56 14.83 2.72 22.28 3.92 5.26.85 10.54 1.56 15.83 2.18 4.31.5 8.65.83 12.98 1.13 7 .5 13.99 1.08 21 1.32 7.54.26 15.09.18 22.63.22 1.56.01 3.13-.1 4.69-.15 5.69-.19 11.39-.29 17.08-.59 4.25-.22 8.48-.74 12.73-1.01 1-.06 2.1.16 3.03.54 3.61 1.48 7.18 3.04 10.74 4.65.75.34 1.36 1 2.03 1.51-.07.15-.13.31-.2.46-1.01.16-2.02.36-3.04.46-4.24.4-8.47.79-12.71 1.15-4.43.37-8.86.72-13.29 1.05-1.97.14-3.94.28-5.92.3-11.36.11-22.73.29-34.09.24-5.78-.03-11.57-.39-17.34-.8-5.93-.41-11.86-.98-17.77-1.62-6.8-.74-13.61-1.48-20.37-2.51-20.99-3.23-41.64-7.92-61.68-15.04-15.4-5.47-30.2-12.19-43.73-21.45-9.58-6.55-18.15-14.18-24.63-23.93-3.88-5.84-6.64-12.17-7.85-19.09-1.51-8.6-.34-16.93 3.05-24.95 3.59-8.49 9.13-15.61 15.74-21.96 11.71-11.25 25.52-19.25 40.16-25.96 16.31-7.47 33.33-12.88 50.75-17.02 7.78-1.85 15.65-3.3 23.5-4.79 5-.95 10.04-1.73 15.09-2.45 4.16-.59 8.34-.99 12.51-1.44 4.45-.48 8.91-.94 13.37-1.34 2.83-.26 5.67-.45 8.51-.57 8.3-.35 16.61-.79 24.91-.91 7.08-.1 14.16.18 21.24.33 2.34.05 4.68.15 7.02.29 5.31.34 10.61.69 15.91 1.1 4.2.32 8.39.66 12.57 1.14 4.57.53 9.14 1.18 13.69 1.89 5.53.86 11.05 1.79 16.56 2.77 11.33 2.02 22.49 4.75 33.51 8.02 13.16 3.9 25.98 8.66 38.3 14.75 9.07 4.48 17.75 9.61 25.68 15.9 8.37 6.63 15.72 14.2 20.84 23.72 3.74 6.96 5.86 14.38 5.78 22.3-.1 10.25-3.66 19.38-9.45 27.71-7 10.07-16.17 17.83-26.31 24.53-14.79 9.77-30.91 16.72-47.63 22.38-12.37 4.19-25 7.45-37.76 10.18-5.79 1.24-11.62 1.15-17.48.36-8.69-1.17-17.1-3.26-24.96-7.23-7.5-3.8-14.44-8.51-21-13.71-7.07-5.6-12.79-12.47-17.91-19.89-5.64-8.18-11.15-16.43-15.37-25.46-4.26-9.13-8.24-18.36-10.14-28.34-.03-.17-.16-.33-.28-.58-.24.03-.5.07-.75.11-.23.03-.46.06-.78.1-.85 4.58-1.68 9.18-2.56 13.77-.78 4.1-1.66 8.19-2.42 12.29-.99 5.41-1.86 10.84-2.85 16.24-.8 4.34-1.75 8.64-2.54 12.98-.95 5.18-1.8 10.39-2.7 15.58-.47 2.73-1.01 5.45-1.43 8.19-.13.83-.02 1.71.03 2.56.1 1.55-.19 1.93-1.7 1.76-2.5-.28-4.98-.64-7.66-.99.4-2.5.76-4.83 1.15-7.16.62-3.73 1.23-7.45 1.89-11.17.83-4.61 1.72-9.21 2.57-13.82 1.08-5.81 2.12-11.63 3.24-17.44 1.09-5.63 2.3-11.23 3.38-16.86.94-4.87 1.82-9.75 2.66-14.63.95-5.47 1.87-10.95 2.72-16.43.9-5.76 1.72-11.53 2.55-17.3.93-6.54 1.83-13.09 2.74-19.64.46-3.3.93-6.59 1.39-9.89.2-1.44.52-2.89.49-4.33-.02-1.43.87-1.56 1.82-1.65 4.69-.46 9.37-.97 14.07-1.29 2.05-.14 4.14.01 6.18.23 2.03.22 4.06.6 6.05 1.08 3.06.74 5.51 2.54 7.39 5 2.64 3.44 4.14 7.34 4.62 11.7.78 7.06-.93 13.65-3.34 20.17-2.74 7.44-6.45 14.27-12.32 19.71-3.99 3.69-8.49 6.65-13.75 8.29-.57.21-1.15.45-1.68.65zm-8.53-6.59c1.84-.54 3.45-1.02 5.06-1.49 7.09-2.05 12.87-5.99 17.17-12.02 3.19-4.46 5.22-9.48 6.96-14.65 1.73-5.11 2.65-10.31 1.27-15.6-.84-3.24-2.34-6.25-6.12-7.02-1.74-.36-3.53-.67-5.29-.65-3.71.05-7.41.31-11.11.55-.32.02-.82.54-.87.88-.62 4.28-1.16 8.57-1.73 12.86-.63 4.7-1.24 9.39-1.9 14.09-.57 4.05-1.2 8.1-1.8 12.14-.53 3.56-1.07 7.1-1.64 10.91zm45.3 73.2c.21-.08.41-.16.62-.23 1.74-16.95 3.47-33.9 5.22-50.93-5.34.58-10.55 1.16-16.06 1.76-2.31 8.22-4.65 16.64-7.08 25.04-.36 1.25-.11 2.17.62 3.16 2.56 3.51 4.94 7.15 7.62 10.56 2.88 3.66 6.03 7.1 9.06 10.64zm12.8-110.36c-7.8 16.91-13.65 34.55-19.96 52.06 4.57-.51 8.95-.98 13.33-1.51.31-.04.78-.51.82-.82.42-3.4.76-6.8 1.16-10.2.37-3.22.8-6.43 1.19-9.64.44-3.67.87-7.34 1.28-11.01.32-2.86.59-5.73.92-8.58.39-3.44.83-6.87 1.26-10.3z" fill="#ff293b" data-color="1"/>
        <path d="M374.24 227.99v2.25c.09 11.64.14 23.27.29 34.91.1 7.4.34 14.8.54 22.2.16 5.7.35 11.39.55 17.09.17 4.91.33 9.82.56 14.73.13 2.74.37 5.47.56 8.16 6.12-30.66 12.25-61.34 18.41-92.19 2.76.34 5.6.7 8.23 1.03-8.27 42.69-16.5 85.21-24.76 127.9-2.84.37-5.87.77-9.32 1.22 0-3.23.08-6.3-.02-9.37-.24-7.71-.54-15.42-.86-23.13-.23-5.46-.6-10.91-.81-16.36-.32-8.49-.58-16.99-.84-25.49-.26-8.78-.47-17.56-.72-26.73-.55 2.58-1.05 4.81-1.49 7.05-1 5.13-1.99 10.25-2.94 15.39-.81 4.42-1.55 8.86-2.32 13.3-.71 4.07-1.43 8.15-2.13 12.22-.86 5.02-1.7 10.04-2.57 15.06-.76 4.39-1.56 8.78-2.29 13.17-.75 4.54-1.43 9.09-2.12 13.64-.23 1.49-.35 3-.6 4.48-.05.32-.43.8-.69.83-2.73.28-5.48.47-8.28.7.47-3.33.88-6.48 1.37-9.62.67-4.32 1.38-8.64 2.12-12.95 1.02-5.87 2.1-11.73 3.12-17.61.64-3.67 1.23-7.36 1.84-11.04.66-3.95 1.3-7.9 1.99-11.85.88-5.06 1.73-10.13 2.73-15.17 1.84-9.32 3.77-18.61 5.69-27.92 1.39-6.76 2.82-13.52 4.23-20.27.36-1.73.75-3.46 1.12-5.2.14-.66.42-1.01 1.21-.96 2.69.24 5.34.36 8.2.53z" fill="#ff293b" data-color="1"/>
        <path d="M256.19 295.36c-5.48.93-10.7 1.82-16.23 2.76.36-3.1.64-5.78 1.01-8.44.04-.26.57-.57.91-.63 4.38-.84 8.75-1.73 13.15-2.42 2.98-.47 6.01-.64 9.02-.92.95-.09 1.33.25 1.39 1.32.26 4.85-.57 9.58-1.31 14.33-.6 3.87-1.08 7.77-1.73 11.63-.86 5.11-1.63 10.26-2.83 15.29-2.02 8.44-4.25 16.83-6.59 25.18-1.26 4.5-3.1 8.85-6.38 12.3-3.01 3.17-6.66 5.46-11.24 5.22-7.93-.42-13.73-5.82-15.19-13.48-1.07-5.62-.52-11.25-.05-16.88.32-3.82.73-7.64 1.16-11.46.4-3.58.91-7.15 1.31-10.73.26-2.37.36-4.75.62-7.12.49-4.49 1.02-8.98 1.58-13.46.44-3.48.95-6.95 1.45-10.43.59-4.06 1.16-8.12 1.81-12.17.74-4.68 1.54-9.34 2.34-14.01 1.65-9.68 3.67-19.24 8.42-27.99 2.89-5.32 7.02-8.91 13.16-9.99 7.36-1.29 14.71 3.09 16.42 10.4.86 3.66 1.16 7.52 1.16 11.29-.01 4.09-.66 8.19-1.04 12.28-.28 3.05-.53 6.11-.86 9.16-.21 1.95-.52 3.89-.87 5.81-.06.31-.56.76-.86.76-2.43.06-4.86.04-7.52.04.26-2.32.51-4.48.74-6.63.27-2.5.52-4.99.79-7.49.29-2.72.62-5.44.89-8.17.18-1.82.52-3.67.38-5.47-.26-3.4-.75-6.78-1.28-10.15-.22-1.41-1.33-2.21-2.66-2.69-4.18-1.5-7.66-.21-10.08 3.75-3.19 5.23-5.02 10.99-6.27 16.92-1.22 5.78-2.3 11.59-3.28 17.41-.87 5.12-1.52 10.27-2.28 15.4-.8 5.4-1.7 10.79-2.42 16.21-.51 3.89-.77 7.82-1.17 11.72-.36 3.54-.76 7.09-1.16 10.63-.33 2.9-.74 5.79-1.03 8.7-.5 5.1-1.01 10.19-1.34 15.3-.21 3.19-.17 6.41 1.04 9.48 1.03 2.62 4.19 4.99 6.75 4.4 1.65-.38 3.39-1.56 4.48-2.89 2.86-3.47 3.95-7.83 5.27-12.05 2.92-9.38 5.02-18.96 6.92-28.58 1.12-5.66 1.73-11.43 2.57-17.14.28-2.07.6-4.12.93-6.3z" fill="#ff293b" data-color="1"/>
        <path d="M227.1 232.02c-.14 2.49-.18 4.86-.42 7.21-.35 3.45-.84 6.88-1.28 10.31-.52 4.02-1.08 8.04-1.6 12.06-.4 3.08-.7 6.16-1.17 9.23-.62 4.09-1.36 8.16-2.02 12.24-.63 3.91-1.23 7.82-1.83 11.73-.63 4.14-1.27 8.28-1.85 12.42-.36 2.57-.62 5.16-.91 7.75-.41 3.63-.81 7.25-1.22 10.88-.33 2.95-.67 5.89-1 8.84-.36 3.22-.73 6.44-1.07 9.67-.22 2.14-.34 4.29-.6 6.42-.46 3.8-1 7.59-1.47 11.39-.09.7-.01 1.42-.01 2.42-2.95-.72-5.73-1.4-8.52-2.09 2.16-19.48 4.31-38.8 6.46-58.24-1.3.07-2.57.04-3.81.23-3.78.59-7.55 1.27-11.32 1.88-.89.14-1.26.58-1.52 1.45-3.01 9.95-6.14 19.87-9.09 29.84-1.38 4.65-2.44 9.4-3.65 14.11-.01.04-.04.08-.05.13-.34 1.93-.35 1.95-2.29 1.4-1.68-.47-3.33-1.06-5.03-1.46-1.21-.28-1.26-1-1.02-1.93 1.08-4.27 1.96-8.6 3.28-12.8 6.85-21.9 12.75-44.12 21-65.56 3.53-9.17 7.58-18.15 11.37-27.22 1.35-3.24 2.69-6.48 3.97-9.75.39-.99.9-1.29 2.02-1.36 3.58-.2 7.14-.65 10.71-.98 1.22-.09 2.45-.13 3.94-.22zm-31.74 65.12c.1.05.18.13.26.12 4.56-.63 9.11-1.25 13.66-1.94.35-.05.84-.58.9-.94.7-4.22 1.32-8.45 1.97-12.68.85-5.53 1.74-11.06 2.54-16.6.51-3.52.88-7.05 1.33-10.58.41-3.26.84-6.51 1.26-9.77.25-1.92.49-3.85.73-5.77-7.94 19.27-16.98 38.06-22.65 58.16z" fill="#ff293b" data-color="1"/>
        <path d="M163.66 248.36c-.25 1.72-.5 3.24-.69 4.76-.47 3.85-1.13 7.68-1.33 11.54-.44 8.39-.77 16.8-.89 25.2-.13 8.97.01 17.94.06 26.92.01 1.62.15 3.24.5 4.9 1.61-5.42 3.16-10.86 4.86-16.24 2.57-8.13 5.19-16.24 7.89-24.33 4.17-12.47 8.43-24.92 12.65-37.38.12-.34.34-.68.37-1.02.18-2.46 1.8-3.11 3.93-3.39 2.02-.27 4.01-.78 6.3-1.25-.16.85-.2 1.43-.38 1.96-2.59 7.77-5.18 15.55-7.82 23.31-3.96 11.66-8.22 23.24-11.88 34.99-4.62 14.82-8.78 29.79-13.12 44.7-.98 3.36-.95 3.36-4.23 2.43-1.81-.51-3.62-1.03-5.45-1.48-.72-.17-1.1-.42-1.16-1.23-.2-2.83-.63-5.66-.71-8.49-.19-6.8-.24-13.61-.32-20.42-.1-8.14-.28-16.28-.24-24.43.03-6.71.16-13.43.59-20.12.37-5.78 1.23-11.54 1.88-17.3.11-.96.45-1.61 1.6-1.83 2.11-.41 4.18-1.05 6.27-1.59.32-.07.67-.1 1.32-.21z" fill="#ff293b" data-color="1"/>
        <path d="M464.61 274.78c-3.07-.5-5.83-.95-8.58-1.39 1.2-3.92.97-7.71-1.62-11.14-1.57-2.08-4.28-2.93-5.96-1.85-.72.46-1.39 1.09-1.9 1.78-2.48 3.28-4.27 6.93-4.61 11.06-.38 4.65-.64 9.34-.52 14 .1 3.86.83 7.71 1.24 11.57.33 3.05.59 6.1.9 9.14.27 2.68.57 5.36.84 8.04.28 2.78.66 5.55.76 8.34.13 3.81.31 7.66-.02 11.44-.62 7.17-2.48 14-7.72 19.31-3.75 3.81-8.24 6.3-13.84 5.74-3.97-.4-6.52-2.86-7.89-6.42-1.84-4.79-2.39-9.8-2.04-14.93.45-6.61 2.6-12.81 4.29-19.13.73-2.72 1.52-5.42 2.32-8.29 2.76.59 5.48 1.18 8.48 1.82-.37 1.44-.71 2.82-1.07 4.19-1.64 6.15-3.35 12.27-4.9 18.44-.87 3.46-.7 7-.08 10.49.23 1.33.58 2.65.99 3.94.33 1.02.93 1.48 2.2 1.13 4.66-1.29 7.27-4.66 8.78-8.88 1.69-4.73 2.25-9.67 1.81-14.72-.32-3.7-.38-7.42-.68-11.12-.24-2.91-.7-5.8-1.01-8.71-.33-3-.59-6.01-.9-9.01-.33-3.09-.86-6.17-.99-9.26-.2-4.58-.2-9.17-.14-13.75.05-4.24.94-8.35 2.56-12.26 1.56-3.75 3.57-7.3 6.71-9.95 5.68-4.78 11.36-4.03 16.8.11 4.47 3.4 6.13 8.35 6.48 13.72.13 2.1-.43 4.25-.69 6.55z" fill="#ff293b" data-color="1"/>
        <path d="M409.12 237.97c8.62 2.29 17.02 4.53 25.53 6.79-.59 2.92-1.12 5.59-1.7 8.45-3.48-.99-6.83-1.93-10.36-2.93-.66 2.39-1.41 4.71-1.94 7.08-2.34 10.4-4.57 20.83-6.94 31.23-1.88 8.23-3.99 16.4-5.87 24.63-1.2 5.27-2.14 10.59-3.22 15.88-1.02 4.98-2.07 9.96-3.08 14.94-1.2 5.88-2.4 11.76-3.52 17.65-.25 1.32-.71 2.01-2.12 2.25-2.39.41-4.73 1.06-7.39 1.68.35-1.99.61-3.78.97-5.55 1.91-9.31 3.91-18.6 5.74-27.93 3.05-15.52 6.6-30.92 10.39-46.28 2.18-8.82 3.91-17.74 5.93-26.6.84-3.71 1.89-7.37 2.89-11.21-1.85-.43-3.72-.95-5.63-1.29-1.05-.19-1.25-.6-1.05-1.57.47-2.21.86-4.47 1.37-7.22z" fill="#ff293b" data-color="1"/>
    </g>
</svg>