<svg preserveAspectRatio="xMidYMid meet" data-bbox="45.211 20.188 209.612 259.595" viewBox="45.211 20.188 209.612 259.595" xmlns="http://www.w3.org/2000/svg" data-type="color" role="presentation" aria-hidden="true" aria-label="char">
    <g>
        <path d="M181.12 52.45c.85.45 1.63.89 2.44 1.28 5.23 2.53 10.27 5.64 15.75 7.39 4.65 1.48 9.8 1.66 14.75 1.9 4.18.2 8.4-.4 12.6-.5 2.73-.07 5.01 1.62 5.29 3.65.35 2.51-.6 4.32-3.68 5.02-7.31 1.67-14.71 2.97-22.08 4.41-1.05.21-2.13.53-3.18.47-2.9-.18-5.89-.14-8.65-.9-5.24-1.46-10.35-3.43-15.51-5.19-1.78-.61-2.68-.38-3.46 1.77-1.55 4.26-3.69 8.31-5.67 12.41-1.71 3.55-3.53 7.04-5.29 10.57-.86 1.73-.44 2.67 1.34 3.83 7.64 4.97 15.16 10.14 22.6 15.42 3.26 2.31 4.9 5.71 4.66 9.78-.55 9.4-.95 18.81-1.92 28.17-.25 2.45-.04 4.42.9 6.52 2.52 5.64 5.12 11.26 7.48 16.97.96 2.33 1.21 4.95 2.08 7.33 1.36 3.7 2.86 7.35 4.59 10.88.25.52 2.09.44 3.16.34 5.81-.53 11.69-1.33 17.27.98 8.68 3.59 16.36 8.68 21.51 16.76 1.6 2.51 2.69 5.51 3.3 8.43 1.26 6.05 2.05 12.19 3.04 18.3 1.14 7.02-.3 13.56-3.87 19.62-2.97 5.04-6 10.34-11.09 13.34-10.39 6.12-21.2 10.89-33.88 6.94-6.22-1.94-12.86-2.63-18.29-6.7-6.93-5.19-12.22-11.88-16.61-19.17-2.91-4.82-1.99-10.61-1.18-15.84.92-5.97 2.63-11.9 4.76-17.57 3.09-8.26 9.1-14.27 16.57-18.85.84-.51 1.68-1.03 2.52-1.56.14-.09.24-.25.68-.73-1.53-4.29-3.14-8.78-4.74-13.27h-.85c-.73 1.38-1.5 2.73-2.17 4.13-4.57 9.52-9.19 19.03-13.67 28.6-2.65 5.67-5.14 11.42-7.55 17.21-.88 2.11-2.2 2.83-4.42 3.16-10.45 1.59-20.9-.03-31.34.27-1.79.05-1.92.85-2.24 2.19-2.36 9.81-5.04 19.5-12.4 27-5.24 5.34-11.72 8.75-18.91 10.23-3.81.78-8.08.28-11.96-.53-5.31-1.1-10.47-2.95-15.64-4.64-2.63-.86-5.13-2.15-7.73-3.1-4.74-1.73-7.46-5.55-9.69-9.65-5.18-9.5-7.27-19.72-3.87-30.12 2.06-6.29 5.67-12.11 8.89-17.97 1.32-2.4 3.45-4.34 5.19-6.51 6.72-8.33 21.83-13.85 34.29-9.24 2.04.75 3.1.48 3.81-1.61 1.13-3.29 2.52-6.5 3.59-9.81 2.21-6.84 2.9-7.52 9.06-7.98-.4-1.7-1.08-3.37-1.15-5.08-.17-4.2 2.51-7.14 5-10.08 2.6-3.07 5.48-5.92 7.84-9.15 2.35-3.22 4.33-6.73 6.24-10.24 3.23-5.93 1.39-11.82-.48-17.66-.6-1.88-1.21-3.75-1.87-5.61-3.93-11.14-1.05-21.11 5.14-30.55 2.6-3.97 5.19-7.96 7.65-12.02.77-1.27 1.35-2.76 1.64-4.22.73-3.7-1.26-5.43-5.08-4.94-8.47 1.09-14.32 6.02-19.81 12.15-3.53 3.94-8.19 6.89-12.5 10.07-1.71 1.26-3.74 1.04-5.44-.52-1.77-1.62-1.45-3.47-.29-5.09 4.05-5.67 8.05-11.39 12.42-16.82 3.06-3.81 6.31-7.67 10.17-10.56 3.19-2.38 7.39-3.47 11.2-4.97 6.4-2.53 12.74-5.31 19.33-7.22 3.29-.95 7.08-.11 10.64-.3 1.16-.06 2.78-.51 3.34-1.35 1.42-2.14 2.53-4.53 3.45-6.94 1.96-5.11 4.77-9.46 8.98-13.11 4.33-3.75 11.99-1.43 14.49 2.88 1.76 3.04 1.99 5.94.89 9.18-1.55 4.56-3.84 8.65-7.12 12.19-1.58 1.7-3.04 3.51-5.24 6.09Zm32.1 157.69c.68 2 1.12 3.45 1.66 4.86 1.21 3.18 2.7 6.29 3.6 9.55.54 1.97.53 4.25.14 6.27-.53 2.71-2.75 4.22-5.33 4.71-2.66.51-3.68-1.63-4.66-3.63-2.95-6.04-5.99-12.03-8.85-18.11-.78-1.66-1.66-2.03-3.34-1.48-4.63 1.51-7.76 4.55-8.91 9.23-1.5 6.12-2.08 12.34-1.47 18.68.9 9.41 5.98 16.63 13.51 21.19 8.93 5.41 18.91 6.21 28.74 1.09 3.08-1.61 5.09-3.9 6.08-7.13 2.69-8.7 4.43-17.59 4.22-26.7-.06-2.8-.77-6.33-2.56-8.21-5.94-6.26-13.88-8.81-22.83-10.33Zm-87.2-35.52c20.29-.27 40.26 2.56 60.48-.68-1.35-3.28-2.57-6.33-3.85-9.36-.72-1.7-1.82-4.64-1.82-4.64s-2.32.19-3.24-.77c-.92-.97-.68-3.85-.76-5.84-.27-7.24-.09-14.51-.5-21.74-.12-2.09-1.08-4.92-2.63-6-5.42-3.77-11.2-7.04-16.98-10.25-2.92-1.62-4.82-.5-4.89 3.27-.12 6.87-.86 13.73-1.48 20.59-.13 1.47-.57 3.07-1.35 4.3-3.94 6.16-7.29 12.68-12.51 18.03-3.72 3.81-6.71 8.33-10.47 13.1Zm-16.56 62.67c-1.29-.17-2.34-.35-3.39-.45-5.71-.53-11.45-.93-17.14-1.62-3.13-.38-4.19-1.82-3.36-4.85 1.32-4.81 3.06-9.52 4.66-14.25.84-2.49 1.79-4.94 2.69-7.4-5.45-1.6-10.33-2.22-15.01.7-.44.28-1.01.36-1.52.53-5.73 1.98-9.94 5.95-12.61 11.13-3.87 7.49-4.51 15.71-2.65 23.83 1.07 4.64 2.87 9.47 7.49 11.99 5.46 2.97 11.22 5.25 17.63 5.13 6.75-.13 12.18-2.8 16.58-7.98 4.11-4.84 4.71-10.88 6.62-16.76Zm1-37.78c7.74 5.01 13.63 11.04 15.6 20.04.41 1.87 1.36 2.21 3.18 2.31 5.89.31 11.77.95 17.66 1.44 1.78.15 3.57.3 5.35.34 2.22.05 3.56-.96 4.33-3.18.69-2 1.98-3.78 2.95-5.69.96-1.9 1.92-3.81 2.76-5.76 1.82-4.26 3.43-8.61 5.38-12.8 1.38-2.95 3.2-5.7 4.94-8.77-5.56 0-10.64.04-15.72 0-12.9-.14-25.8-.3-38.7-.49-1.53-.02-2.79.05-3.45 1.78-1.36 3.59-2.83 7.13-4.3 10.8ZM188.3 34.25c.12-1.06-.28-2.11-.64-2.18-.57-.11-1.54.1-1.8.52-.85 1.33-1.56 2.79-2.09 4.27-.17.48.23 1.55.64 1.74.47.21 1.55-.07 1.84-.49.93-1.35 1.93-2.8 2.05-3.86Zm-78.1 188.94c-1.78-2.07-4.19-5.04-5.75-6.86-.77 2.25-1.7 5.34-2.37 7.31 2.19-.16 5.45-.25 8.12-.45Zm71.28-190.65c.33-1.99-1.48-2.35-2.26-1.72-.78.64-1.81 2.19-2.62 3.62-.18.33-.04 1.91 1.1 1.91s3.44-1.82 3.77-3.81Z" fill="#f91239" data-color="1"/>
    </g>
</svg>