<svg preserveAspectRatio="xMidYMid meet" data-bbox="55.568 23.229 188.822 253.536" viewBox="55.568 23.229 188.822 253.536" xmlns="http://www.w3.org/2000/svg" data-type="color" role="presentation" aria-hidden="true" aria-label="char">
    <g>
        <path d="M136.91 122.75c-.25-.03-.78.51-.8.82-.06.94 0 1.91.17 2.85.04.23.64.51.96.49.27-.02.69-.44.72-.72.08-.83 0-1.68-.03-2.68-.33-.26-.65-.71-1.02-.75Z" fill="#f91239" data-color="1"/>
        <path d="M133.63 125.72c-.12-.26-.21-.53-.36-.77-.35-.53-1.15-.75-1.47-.34-.31.41-.57.94-.62 1.44-.09.94.18 1.85.81 2.57.23.26.67.57.94.5.33-.08.77-.49.81-.8.09-.86 0-1.73-.02-2.6h-.09Z" fill="#f91239" data-color="1"/>
        <path d="M243.78 235.59c-.5-2.14-1.21-4.14-2.05-6.04-.99-3.18-2.34-6.21-3.51-9.17-5.11-12.93-10.14-25.08-14.93-36.61-3.1-7.46-6.04-14.75-9.26-21.47-4.75-9.92-9.71-19.04-14.02-28.11-3.39-7.11-6.11-14.39-9.28-20.99-5.44-11.29-10.57-21.95-15.84-31.67-2.83-5.21-6.49-9.56-9.54-14.21-2.57-3.92-4.94-7.86-7.29-11.69-4.51-.41-9.03-.94-13.54-1.14-3.27-.15-6.55-.11-9.83-.01-.3.59-.59 1.17-.84 1.68-1.57 3.17-3.22 6.36-4.78 9.7-2.17 4.65-4.26 9.5-6.54 14.43-2.22 4.81-4.64 9.68-6.99 14.76-2.03 4.39-3.99 8.96-6.06 13.61-1.84 4.12-3.84 8.26-5.63 12.65-2.48 6.12-4.73 12.63-7.38 19.16-2.98 7.31-6.15 14.87-9.67 22.48-3.75 8.1-6.86 16.95-10.14 26.18-2.16 6.06-4.58 12.16-7.13 18.37-2.23 5.44-4.81 10.76-7.16 16.44-2.09 5.06-4.1 10.35-6.04 15.81-2.16 6.08.78 13.45 2.5 17.15 10.2 8.66 23.17 14.26 36.38 17.03 18.48 3.88 37.58 2.95 56.44 2 16.64-.84 33.45-1.7 49.48-6.24 16.03-4.54 31.45-13.16 41.08-26.76a55.77 55.77 0 0 0 2.18-3.32c-.13-1.33-.32-2.68-.63-4.03Zm-72.12 21.28c-2.87 1.48-6 2.43-9.17 3.02-4.39.81-8.88.93-13.35.94-7.89.01-15.95-.34-23.33-3.15-1.64-.63-3.49-1.73-3.52-3.48-.02-1.5 1.32-2.64 2.62-3.4 3.3-1.94 7.05-2.99 10.8-3.73 4.36-.86 8.8-1.33 13.24-1.48 4.25-.15 8.5 0 12.73.34 4.14.34 8.25 1.11 12.38 1.45 2.18.38 3.75 1.42 3.54 3.37-.33 3.04-3.49 4.88-5.93 6.13Zm15.88-99.41c-.9 1.9-2.2 3.29-4.42 3.65-2.34.38-4.65.95-7 1.29-.9.13-1.88-.12-2.81-.27-1.06-.16-2.1-.38-3.15-.6-2.7-.56-5.46-.78-8.06-1.78-.55-.21-1.13-.33-1.88-.55.3.58.5.97.7 1.36 1.24 2.49 2.54 4.95 3.69 7.48.82 1.82 1.96 3.41 3 5.08 1.1 1.77 2.71 3.17 3.51 5.15.22.55.8.93 1.14 1.45.81 1.25 1.56 2.54 2.38 3.79 1.72 2.58 2.4 5.53 2.88 8.51.57 3.44 1.11 6.9 1.38 10.38.21 2.64-.14 5.32-.05 7.98.11 3.56-.3 7.07-.83 10.57-.21 1.4-.69 2.72-1.73 3.77-.9.9-2.03 1.17-3.22 1.08-1.03-.08-2.05-.35-3.06-.6-.77-.19-1.27-.76-1.55-1.47-.96-2.39-1.77-4.83-1.73-7.45.02-1.23.31-2.46.28-3.68-.1-4.02-.39-8.04-.44-12.07-.03-2.36-.97-4.38-1.88-6.43a56.32 56.32 0 0 0-1.69-3.5c-.72-1.38-1.43-2.77-2.25-4.09-.28-.45-.82-.83-1.32-1-.74-.25-1.41-.77-2.3-.59-1.17.24-1.55.56-1.59 1.76-.05 1.26-.05 2.52-.09 3.78-.06 1.64-.24 3.28-.17 4.91.08 2.21.4 4.4.52 6.61.08 1.44.01 2.9-.02 4.34-.12 5.63-.19 11.27-.42 16.9-.11 2.92-.95 5.69-2.25 8.34-.83 1.71-2.2 2.25-3.91 2.35-.63.03-1.3.14-1.91 0-1.67-.35-2.64-1.62-2.75-3.7-.22-4.15-.43-8.3-.54-12.46-.13-5.3-.08-10.6-.23-15.9-.13-4.65-.25-9.33-1.21-13.9-.78-3.75-1.99-7.38-3.87-10.77-1.03-1.85-1.87-3.79-2.8-5.69-.73-1.47-1.45-2.93-2.18-4.4-2.59 2.97-5.11 5.87-7.63 8.76-1.21 1.4-2.36 2.86-3.66 4.19-1.53 1.58-3.04 3.23-4.81 4.5-2.11 1.52-4.62 1.91-7.22 1.4-.44-.09-.88-.21-1.31-.32-2.47-.62-3.56-3.85-1.87-5.78 1.2-1.37 2.59-2.57 3.9-3.84.24-.23.5-.44.73-.68 1.8-1.82 3.6-3.64 5.4-5.47.13-.14.27-.28.36-.44 1.52-2.8 3.51-5.36 4.23-8.58.3-1.33 1.02-2.56 1.47-3.86.9-2.6 1.69-5.24 2.63-7.83.35-.97.82-1.97 1.48-2.75 1.26-1.49 1.86-3.3 2.71-4.98.26-.51.33-1.13.4-1.71.04-.31-.05-.66-.14-.97-.33-1.07-.57-1.24-.77-2.43s-.38-1.21-.51-1.25c-.64-.21-.69-.78-.9-1.27-.23-.55-.45-1.12-.79-1.58-.97-1.31-1.16-2.83-1.37-4.37-.19-1.39-.47-2.8 0-4.17.59-1.75 1.21-3.51 1.98-5.19.57-1.25 1.86-1.81 3.01-2.42.63-.33 1.3-.6 1.97-.81 2.79-.89 5.74 1.19 6.93 3.26 1.66 2.89 3.04 5.92 3.25 9.34.07 1.17.28 2.37.1 3.51-.12.79-.11 1.46.18 2.17.27.67.51 1.34.8 2.01.09.21.22.47.41.57.96.55 1.94 1.09 2.93 1.58.89.45 1.8.84 2.7 1.25 1.03.47 2.1.88 3.08 1.44 1.42.8 2.78 1.71 4.17 2.58.4.25.78.55 1.19.78 2.07 1.12 4.16 2.2 6.22 3.34.93.52 1.76 1.24 2.72 1.69 1.76.82 3.56 1.57 5.38 2.24 1.61.59 3.3.87 5.03.96.66.03 1.31.26 1.95.41 1.31.32 2.64.6 3.92 1.02.97.31 1.91.73 2.8 1.23.89.51 1.22 1.92.78 2.85Z" fill="#f91239" data-color="1"/>
        <path d="M116.91 44.09c6.43.51 12.89.83 19.36.99 6.46.16 12.94.15 19.41-.03.81-.02 1.62-.05 2.43-.08 8.76-.31 17.71-1.08 25.76-3.48.91-1.56.57-2.83-1.4-4.15-1.67-1.12-3.54-2.05-5.34-2.98-.55-.28-1.26-.37-1.9-.49-.84-.16-1.69-.28-2.54-.41-2.36-.36-4.71-.76-7.06-1.02-.93-.1-1.71-.19-2.23-.87-.14-.19-.34-.35-.52-.52-2.76-2.53-5.48-4.93-9.27-6.43-4.61-1.82-9.22-1.77-13.94-.34-1.39.42-2.62 1.17-3.94 1.77-2.59 1.16-5.06 2.47-6.65 4.59-.29.38-.64.74-.93 1.13-.51.69-1.27 1.02-2.26 1.11-.59.05-1.19.12-1.77.25-2.15.47-4.3.98-6.46 1.45-1.13.25-2.28.39-3.42.64-2.9.62-5.61 1.61-7.76 3.61-.97.9-1.29 1.96-.99 2.91.22.69 8.28 2.11 11.42 2.35Z" fill="#f91239" data-color="1"/>
    </g>
</svg>