<svg preserveAspectRatio="xMidYMid meet" data-bbox="50.911 54.039 198.125 191.91" viewBox="50.911 54.039 198.125 191.91" xmlns="http://www.w3.org/2000/svg" data-type="color" role="presentation" aria-hidden="true" aria-label="char">
    <g>
        <path d="M162.98 158.96c7.26-1.57 14.63-1.68 21.98-1.49 3.87.1 7.68 1.27 11.13 3.18.87.48 1.59 1.42 2.13 2.3 1.6 2.62 3.09 5.31 4.6 7.99.25.45.53.99.51 1.48-.1 3.89.1 7.84-.53 11.65-.53 3.22-1.94 6.31-3.11 9.4-3 7.91-5.8 15.92-9.24 23.64-2.29 5.13-5.2 10.09-8.52 14.63-2.37 3.25-5.8 5.74-8.88 8.44-1.9 1.67-3.95 3.2-6.05 4.61-3.18 2.14-8.1 1.21-10.32-1.91-.41-.57-.33-1.48-.49-2.23-1.05-5.04.44-9.44 3.01-13.75 2.64-4.43 4.9-9.08 7.31-13.64 2.19-4.13 4.29-8.31 6.58-12.39 2.05-3.64 3.32-7.48 3.49-11.63.14-3.25-1.7-4.79-4.93-4.21-2.96.54-5.87 1.38-8.84 1.88-4.76.79-9.55 1.42-14.33 2.08-2.49.35-2.35.39-2.83 2.83-1.01 5.11-2.24 10.18-3.32 15.28-.7 3.29-1.13 6.64-2 9.88-1.14 4.18-2.21 8.45-4.03 12.36-2.2 4.74-6.34 7.56-11.58 8.12-4.86.52-9.7-.09-14.55-.82-5.05-.76-9.54-2.64-13.89-5.13-1.47-.84-3.16-1.31-4.64-2.15-3.04-1.73-6.17-3.38-8.96-5.47-3.12-2.34-6.51-2.67-10.11-2.34-.66.06-1.36.53-1.9.98-2.7 2.28-5.26 4.73-8.06 6.88-2.79 2.15-8.3 1.57-10.76-.89-1.31-1.31-.99-3.04-.58-4.44 2.26-7.65 4.13-15.49 9.01-22.08.58-.78 1.17-1.56 1.77-2.33 3.31-4.21 7.58-5.08 12.56-3.72 2.72.74 5.53 1.18 8.22 2.01 6.56 2.04 12.94 4.53 19.23 7.32 3.19 1.41 6.65 2.2 10.01 3.2.25.07.89-.36.98-.67.76-2.55 1.55-5.1 2.12-7.7.73-3.36 1.2-6.78 1.88-10.15.25-1.25 0-1.89-1.25-2.47-3.05-1.42-6.07-2.92-8.93-4.67-1.15-.71-2.05-2.06-2.7-3.31-1.27-2.45-2.15-5.1-3.42-7.55-2.67-5.12-2.21-10.35-.87-15.66 1.47-5.83 3.5-11.46 6.11-16.88.48-1 .69-2.14 1.14-3.16.9-2.05 1.84-4.08 2.83-6.08.82-1.66 1.8-3.24 2.59-4.91 1.38-2.92 3.03-5.62 4.94-8.26 2.37-3.26 4.23-6.89 6.2-10.42.92-1.65 2.05-3.02 3.5-4.24 3.69-3.11 7.37-6.25 10.85-9.59 1.4-1.34 2.56-3.1 3.33-4.89 2.87-6.71 5.32-13.6 8.34-20.24 2.13-4.67 5.19-8.84 9.43-11.93.9-.66 2.13-.9 3.24-1.24 4.11-1.27 7.19.48 10.01 3.3 2.89 2.9 4.73 6.39 6.08 10.16.39 1.09.46 2.44.24 3.59-1.16 6.17-1.34 12.53-3.55 18.5-.32.87-.7 1.72-.92 2.61-.21.83-.17 1.71-.37 2.54-.15.67-.49 1.29-.74 1.94-.23.62-.44 1.25-.66 1.87.7.2 1.43.62 2.11.56 3.24-.29 6.46-.84 9.7-1.05 7.54-.48 15.11-.65 22.64-1.3 2.8-.24 5.52-1.44 8.26-2.22 3.73-1.06 7.44-2.18 11.18-3.2 2.58-.7 5.18-1.34 7.8-1.88 2.47-.51 5-1.27 7.47-1.17 2.13.09 4.3 1.04 6.28 1.98 1.52.72 1.24 2.5.67 3.67-1.97 4.08-4.33 7.61-8.63 10.06-8.32 4.73-17.47 6.88-26.39 9.79-3.1 1.01-6.23 1.97-9.37 2.86-1.02.29-2.12.27-3.17.43l-20.39 3c-2.41.35-4.83.65-7.23 1.07-.38.07-.99.65-.97.95.21 2.31-.87 4.27-1.6 6.32-2.32 6.52-4.57 13.07-7.01 19.54-1.1 2.91-2.58 5.68-3.86 8.52-1.05 2.24 1.82 2.29 2.98 2.04Zm-28.48-10.57c0 1.12-.1 2.26.04 3.36.08.67.34 1.54.82 1.91 3.63 2.71 7.14 5.69 11.08 7.86 4.38 2.41 8.64 4.85 12.32 8.29 1.55 1.45 3.37 2.63 5.12 3.86.86.61 1.7.31 2.32-.46.66-.83.31-1.66-.37-2.2-4-3.18-7.76-6.81-12.15-9.32-5.18-2.96-10.03-6.34-14.95-9.66-.46-.31-.98-.92-1.02-1.42-.48-5.38.59-10.62 1.67-15.85.54-2.6 1.03-5.2 1.55-7.8.44-2.22.9-4.44 1.34-6.66.44-2.21.91-4.42 1.29-6.65.15-.89-.21-1.88-1.15-1.85-.5.02-1.24 1-1.41 1.66-.88 3.45-1.61 6.93-2.38 10.41-.53 2.4-1.04 4.81-1.52 7.22-.42 2.13-.79 4.27-1.16 6.41-.62 3.61-1.58 10.88-1.45 10.91Zm27.19-73.04c.24.31.63 1.2 1.3 1.52.52.25 1.51-.01 2.08-.38 1.61-1.06 2.18-3.24 1.5-5.04-.36-.94-1.02-1.28-1.95-.95-1.57.56-2.95 2.62-2.92 4.85Zm13.92-.25c.05-1.15-.21-2.07-1.6-2.12-1.12-.04-2.7 1.78-2.67 3.04.02 1.04.92 1.89 1.99 1.9 1.31 0 2.29-1.21 2.28-2.82Z" fill="#f91239" data-color="1"/>
    </g>
</svg>