<svg preserveAspectRatio="xMidYMid meet" data-bbox="72.659 93.235 454.661 413.551" viewBox="72.659 93.235 454.661 413.551" xmlns="http://www.w3.org/2000/svg" data-type="color" role="presentation" aria-hidden="true" aria-label="char"><defs><style>#comp-lxdfzbw05 svg [data-color="1"] {fill: #1C1A1A;}</style></defs>
    <g>
        <path d="M371.63 158.27c-.87 5.54-2.17 11.01-2.95 16.55-.95 6.76 2.83 11.34 9.26 10.33 1.93-.3 4.09.32 6.05.87 6.33 1.79 12.76 3.38 18.89 5.73 11.18 4.29 17.1 13.1 21.56 24.01 3.96 9.7 9.68 18.81 15.45 27.63s17.55 10.45 26.8 6.17c5.2-2.41 10.48-4.65 15.53-7.34 6.16-3.28 12.7-4.54 19.47-3.84 4.85.51 9.17 3.02 11.91 7.11.96 1.43.87 4.42.02 6.06-3.24 6.34-7 12.39-12.96 16.7-9.19 6.65-18.09 13.75-27.6 19.91a88.636 88.636 0 0 1-19.47 9.43c-11.59 3.95-18.78 1.71-25.87-8.16-9-12.53-17.32-25.54-25.89-38.38-1.01-1.52-1.9-3.17-2.52-4.88-1.28-3.53-4.41-4.58-7.43-5.59-1.96-.65-3.76.31-4.33 2.41-1.32 4.85-3.14 9.71-3.5 14.65-.58 8.19-.05 16.44-.21 24.67-.09 4.75-.83 9.48-.87 14.23-.04 5.14.44 10.29.64 15.44.07 1.95-.11 3.9-.01 5.85.28 5.29.67 5.62 5.88 6.68 4 .82 8.05 1.56 11.93 2.81 2.62.84 5.59 1.93 7.36 3.87 6.4 7.01 14.84 10.27 23.2 13.91 11.3 4.91 22.63 9.81 33.62 15.35 11.9 6.01 20.8 15.59 27.7 26.8 12.66 20.58 21.47 42.96 28.95 65.82 2.64 8.05 3.84 16.66 4.87 25.12.85 6.94-.98 13.74-3.78 20.19-2.06 4.76-5.98 7.12-10.8 7.88-7.62 1.2-15.15.34-22.32-2.52-2.12-.85-3.94-2.59-5.7-4.15-5.18-4.58-10.28-9.26-15.37-13.95-.77-.71-1.63-1.59-1.89-2.55-2.77-10.18-8.96-18.67-13.66-27.89-6.82-13.38-16.22-25.02-25.39-36.8-2.52-3.23-4.98-6.54-7.8-9.5-9.08-9.49-20.59-15.16-32.33-20.61-17.04-7.91-33.71-16.62-50.75-24.54-7.71-3.58-15.87-6.22-23.93-9-2.45-.84-8.45-.46-14.16 6.63-14.3 17.81-27.54 36.43-43.16 53.23-10.53 11.34-21.45 21.95-34.3 30.65-12.86 8.7-27.15 11.51-42.24 11.67-6.28.07-12.57-.33-18.85-.45-4.45-.08-8.52-1.13-12.12-3.9-6.01-4.62-12.47-8.74-18.04-13.84-4.91-4.49-8.98-9.93-13.2-15.14-7.35-9.06-14.47-18.31-21.79-27.39-8.08-10.03-14.24-21.12-18.66-33.2-1.11-3.04-2.37-6.04-3.45-9.09-1.95-5.53-.16-10.5 5.46-13.58 5.4-2.96 11.27-4.01 17.55-4.5 13.87-1.08 22.55 7.21 30.76 16 10.89 11.65 21.46 23.54 35.18 32.06 4.33 2.69 8.99 3.12 13.93 2.96 6.7-.22 11.7-3.58 16.08-8.14 8.98-9.35 17.89-18.77 26.78-28.21 5.57-5.91 11-11.95 16.58-17.85 9.78-10.36 17.52-21.95 22.11-35.54 1.55-4.6 3.53-9.06 5.01-13.68 3.28-10.24 6.09-20.63 9.65-30.77 2.2-6.27 2.53-12.36 1.18-18.74-.77-3.62-4.54-7.42-9.15-7.51-6.76-.13-13.55.43-20.3.9-3.11.22-6.2 1.4-9.28 1.32-8.56-.23-14.29 4.22-18.08 11.1-4.79 8.71-8.81 17.84-13.31 26.71-3.62 7.14-7.39 14.2-11.21 21.23-1.5 2.77-3.89 4.19-7.22 4.02-6.35-.33-12.48-.71-16.33-7.1-2.97-4.93-2.63-10.25-1.31-15.1 3.11-11.44 7.3-22.57 10.67-33.95 4.08-13.76 10.23-26.61 16.26-39.55 3.5-7.5 10.35-9.61 17.55-11.11 5.7-1.18 11.46-2.09 17.19-3.1.84-.15 1.76-.51 2.54-.33 9.11 2.16 17.73-.97 26.55-2.17 7.04-.96 14.23-.79 21.29-1.63 3.3-.39 6.46-1.97 9.67-3.03.19-.06.31-.33.51-.4 9.1-3.02 8.96-10.95 10.04-18.42 2.37-16.49 6.13-32.5 17.68-45.45.94-1.05 1.9-2.12 2.59-3.33 8.44-14.71 31.36-16.94 44.38-10.07 7.75 4.09 11.64 10.4 11.7 19.09.03 2.71-2.71 30.91-4.49 42.22zm-19.12-25.51c.48 4.47 1.41 5.71 4.47 5.97 2.38.2 4.54-.75 4.95-2.76.49-2.43.38-5.36-.56-7.62-1.13-2.71-4.92-2.8-6.73-.41-1.05 1.36-1.45 3.2-2.13 4.82zm-15.96-4.62c.14-3.51-1.13-5.15-4.08-5.22-3.04-.08-4.52 1.87-4.81 6.31-.17 2.57 1.69 4.61 4.24 4.65 2.72.03 4.5-2.17 4.65-5.74z" fill="#f91239" data-color="1"/>
    </g>
</svg>