<svg preserveAspectRatio="xMidYMid meet" data-bbox="68.415 19.323 160.82 260.452" viewBox="68.415 19.323 160.82 260.452" xmlns="http://www.w3.org/2000/svg" data-type="color" role="presentation" aria-hidden="true" aria-label="char">
    <g>
        <path d="M137.42 135.92c15.49.96 27.89 3.32 39.81 7.36 7.44 2.53 14.51 6.03 20.75 11.45 6.83 5.93 12.52 12.84 18.91 19.11 1.16 1.14 1.89 2.72 2.74 4.15 1.56 2.62 3.24 5.18 4.54 7.93 1.17 2.47 2.17 5.09 2.76 7.75 1.33 6.03 3.06 11.99 1.95 18.36-1.86 10.72-4.99 20.99-9.15 31.06-5.12 12.39-14.14 21.36-24.57 29.09-2.24 1.66-5.4 2.16-8.21 2.94-4.09 1.14-8.24 2.09-12.38 3.05-1.78.41-3.6.76-5.42.93-1.93.18-3.92-.09-5.83.19-12.66 1.88-24.36-2.05-36.08-5.85-3.08-1-5.99-2.59-9.12-3.3-6.57-1.5-11.33-5.83-16.62-9.52-11.9-8.32-18.22-20.61-23.86-33.2-3.32-7.42-3.47-15.73-2.27-23.81 1.57-10.56 4.21-20.88 8.48-30.7 3.49-8.04 8.49-14.93 15.73-20.09 4.44-3.17 8.46-7 13.15-9.72 8.43-4.87 17.39-8.37 24.67-7.18Zm57.27 122.9c2.48-2.62 5.37-4.93 7.33-7.86 10.4-15.52 18.47-31.84 14.7-51.39-.94-4.86-2-9.97-4.34-14.23-6.76-12.32-16.89-21.38-29.31-27.94-3.6-1.9-6.85-2.27-10.68-.51-4.1 1.9-8.1 3.56-10.23 7.98-.97 2.02-1.08 3.37 1.01 4.6 1.59.94 3.11 2.03 4.53 3.21 3.14 2.61 4.63 6.71 3.52 9.96-1.78 5.2-.67 8.75 3.1 12.08.14.12.23.29.33.44 1.98 2.75 2.48 2.83 5.37.89.77-.52 1.49-1.14 2.31-1.54 4.61-2.26 8.89-5.15 14.45-5.13 4.65.02 6.32 3.03 7.67 6.39 1.19 2.97 0 5.88-2.3 7.79-4.13 3.44-8.49 6.29-14.45 6.14-3.65-.09-7.56.86-10.96 2.27-5.14 2.13-5.28 9.11-.89 12.5 1.6 1.23 3.12 3.37 3.43 5.29.48 3-.09 6.18-.27 9.28-.05.81-.7 1.84-.39 2.38 1.97 3.52 3.68 7.34 6.35 10.28 2.48 2.74 6.04 4.49 9.74 7.12Zm-71.66 3.03c1.01-6.1 2.68-11.54 6.07-16.53 3.11-4.58.9-8.74-4.46-9.16-2.28-.18-4.6.15-6.9.06-1.92-.07-3.93-.12-5.72-.71-3.14-1.04-4.42-3.37-3.04-6.01 2.3-4.42 3.48-9.02 4.28-13.9.74-4.51 4.61-6.24 8.84-4.46 4.26 1.79 7.94 4.34 10.41 8.43.43.71 1.55 1.01 2.35 1.49.3-.83.68-1.64.88-2.49.1-.41-.09-.92-.21-1.36-1.56-5.68-3.21-11.32-6.78-16.18-.53-.72-1.16-1.74-1.03-2.49.57-3.34.93-6.84 2.25-9.9 2.01-4.68 4.9-8.85 9.15-12.03 2.6-1.94 2.66-6.86.59-8.44-2.7-2.06-8.24-1.51-10.94.57-3.94 3.03-6.48 7.05-8.98 11.18-1.91 3.16-4.38 4.41-7.12 3.39-1.78-.66-3.44-1.73-5.04-2.8-2.61-1.75-4.94-4.05-7.75-5.33-1.62-.74-4.6-.71-5.79.32-2.06 1.79-3.64 4.47-4.64 7.07-3.03 7.93-4.46 16.13-4.19 24.74.34 11.06 4.25 20.81 10.33 29.65 4.01 5.83 9.03 10.98 13.68 16.36 3.62 4.18 8.32 6.69 13.79 8.53Zm.91-117.35c.02.32.03.65.05.97 5.29-.44 8.78 2.84 12.38 5.87.85.71 1.7 1.45 2.41 2.29 3.04 3.6 6.96 4.33 11.31 3.43 1.47-.3 3.84-.66 4.11-1.51.89-2.89 1.03-6.02 1.42-9.06.03-.21-.21-.57-.42-.68-2.58-1.31-5.06-3.1-7.8-3.73-3.05-.7-6.4-.75-9.52-.36-4.69.59-9.29 1.82-13.93 2.77Zm18.7 126.09c2.42 2.51 5.17 2.17 7.79 1.79 7.34-1.08 14.67-2.3 21.99-3.52.75-.12 1.45-.56 2.18-.85-.51-.65-1.01-1.3-1.52-1.96-.31-.4-.56-.86-.92-1.2-.59-.53-1.22-1.33-1.9-1.41-5.06-.59-10.09-1.87-15.26-.5-4.88 1.29-9.97 2.08-12.36 7.65Z" fill="#f91239" data-color="1"/>
        <path d="M169.81 76.22c0 5.76.05 10.64-.03 15.52-.03 1.84.41 2.86 2.47 3.17 2.95.45 5.35 2.03 7.85 3.75 3.46 2.37 7.54 3.95 11.5 5.47 7.31 2.8 12.59 7.68 15.97 14.66 3.75 7.76 7.49 15.53 8.81 24.18.14.91.31 1.85.23 2.76-.26 3.12-.17 6.51-3.63 8.13-3.14 1.48-7.87-.08-10.84-2.31-5.11-3.83-6.65-9.84-9.97-14.75-3.57-5.27-7.17-10.63-11.52-15.22-2.69-2.83-6.71-4.5-10.33-6.3a436.79 436.79 0 0 0-20.35-9.49c-4.77-2.08-5.59-1.58-8.78 2.41-4.99 6.22-10.03 12.39-15.21 18.45-7.92 9.27-17.99 13.02-30.08 11.13-.88-.14-1.88-.41-2.52-.97-3.52-3.1-7.33-5.98-10.33-9.54-5.22-6.21-10.91-12.19-13.52-20.19-.2-.61-.51-1.19-.71-1.81-1.01-3.2-.18-4.81 3.05-5.96 5.38-1.91 9.79-.42 14.13 4.13 3.56 3.73 7.4 7.22 11.35 10.55 2.23 1.88 6.19 1.86 8.28-.03 7.91-7.15 15.91-14.46 21-23.86 3.52-6.49 5.65-13.89 7.35-21.13 1.1-4.7-.81-6.47-5.2-6.31-3.13.12-6.41.25-9.3 1.28-1.92.68-3.7 2.71-4.79 4.58-2.43 4.14-4.42 8.55-6.53 12.88-1.06 2.18-2.47 3.35-5.06 2.64-2.55-.7-4.29-2.1-3.95-4.86.36-2.92.84-5.9 1.83-8.65 2.06-5.74 4.34-11.41 6.88-16.95.72-1.56 2.45-3.23 4.05-3.69 3.22-.91 6.66-1.06 10.02-1.46 4.31-.52 8.64-.91 12.93-1.52 1.58-.23 3.11-.9 4.64-1.44 1.91-.68 2.52-2.16 2.69-4.1.59-6.9 2.74-13.15 7.47-18.45 3.54-3.96 11.06-4.9 15.18-1.56 1.98 1.6 2.66 3.79 2.4 6.22-.63 5.79-1.3 11.58-2.09 17.36-.46 3.36-.2 3.7 3.09 4.36 2.71.55 5.42 1.28 8 2.28 3.27 1.26 5.23 3.85 6.6 7.1 1.28 3.06 2.88 6.02 4.64 8.83 2.18 3.48 5.34 4.4 9.17 2.91 2.24-.87 4.36-2.03 6.58-2.94 2.58-1.06 5.15-1.34 7.69.32 1.67 1.09 1.96 2.43.96 4-.89 1.4-1.75 2.99-3.04 3.92-4.64 3.35-9.28 6.74-14.24 9.56-4.74 2.69-7.85 1.76-10.99-2.67-2.99-4.23-5.67-8.68-8.63-12.92-.65-.93-1.93-1.42-2.91-2.11-.54.88-1.39 1.7-1.57 2.64-.43 2.26-.54 4.57-.69 6.01Zm-7.53-46.52c-.28-.47-1.29-.77-1.7-.18-.41.58-.63 2.19-.6 3 .02.56.57 1.63 1.29 1.63s1.4-1.37 1.53-2.15c.1-.59-.24-1.84-.52-2.31Zm-7.3 1.03c.11-1.91-.95-2.59-1.65-2.49-.7.1-1.63 2.02-1.65 2.62-.02.52.67 1.98 1.29 1.98s1.91-.2 2.02-2.11Z" fill="#f91239" data-color="1"/>
    </g>
</svg>