<svg preserveAspectRatio="xMidYMid meet" data-bbox="104.69 112.655 390.618 375.015" viewBox="104.69 112.655 390.618 375.015" xmlns="http://www.w3.org/2000/svg" data-type="color" role="img" aria-label="Hamburger Menu">
    <g>
        <path d="M487.93 277.67c-1.3-1.47-3.21-2.02-4.88-2.51-.87-.25-1.77-.51-2.33-.84-.07-.47-.28-1.13-.89-1.72-4.2-4.09-8.65-8.06-12.96-11.9-3.16-2.82-6.44-5.74-9.57-8.67-3.46-3.24-6.86-6.55-10.24-9.83-3.84-3.73-7.8-7.59-11.76-11.25-2.47-2.28-5.14-4.37-7.72-6.38-2.46-1.92-5.01-3.91-7.32-6.02.02-.11.04-.24.06-.34.16-.93.46-2.65-1.01-4.01-3.13-2.91-6.24-5.86-9.36-8.82-2.99-2.84-6-5.69-9.03-8.52-3.18-2.96-6.86-5.39-10.42-7.74-3.62-2.39-7.04-4.64-10.01-7.42-3.12-2.92-6.16-6.07-9.1-9.12-2.82-2.92-5.74-5.94-8.75-8.79-3.44-3.25-6.81-6.57-10.17-9.88-2.64-2.6-5.28-5.19-7.94-7.75-2.55-2.44-4.64-5.34-6.85-8.41-2.15-2.98-4.37-6.06-7.06-8.71-.44-.43-.9-.83-1.37-1.23-.43-.37-.86-.73-1.26-1.14-5.21-5.27-13.78-11.9-25.02-13.59-7.8-1.18-14.72.1-20.56 3.78-3.7 2.34-6.22 5.97-8.66 9.49-1.49 2.16-2.9 4.19-4.52 5.86-.27.27-1.62.43-2.34.51-1.59.19-3.4.4-4.67 1.63-3.27 3.16-6.01 6.81-8.66 10.33-2.62 3.48-5.09 6.77-8.01 9.6-3.18 3.07-6.28 6.19-9.36 9.3-2.99 3.01-5.96 6-8.98 8.92-3.09 2.99-6.29 5.94-9.38 8.8-3.13 2.89-6.37 5.88-9.47 8.89-3.06 2.97-6.39 5.78-9.61 8.5-3.27 2.76-6.65 5.62-9.77 8.65-3.03 2.94-6.43 5.66-9.71 8.28-3.36 2.68-6.84 5.46-9.98 8.52-3.21 3.12-6.36 6.28-9.51 9.44-2.94 2.94-5.87 5.88-8.83 8.77-3.21 3.13-5.98 6.69-8.66 10.14-2.68 3.44-.45 2.26-3.4 5.16-2.95 2.89-6.46 5.43-9.85 7.88-3.55 2.56-7.19 5.24-10.41 8.36-22.48 21.89-11.95 34.61-8.06 35.65l1.34.37c3.41.95 7.27 2.02 10.66-1.35 3.18-3.17 6.15-6.61 9.02-9.93 2.89-3.35 5.88-6.82 9.04-9.94 3.21-3.17 6.63-6.29 9.93-9.3 3.2-2.92 1.75-1.51 4.91-4.61 3.12-3.06 6.17-6.18 9.22-9.3 3.15-3.22 6.41-6.56 9.68-9.75 3.13-3.05 6.72-5.83 10.2-8.51 3.54-2.73 7.19-5.55 10.47-8.74 3.22-3.13 6.62-6.2 9.92-9.17 3.25-2.93 6.6-5.96 9.8-9.06 3.35-3.25 6.14-7.05 8.83-10.72 2.7-3.68 5.25-7.16 8.32-10.13 3.26-3.16 6.42-6.48 9.47-9.7 3.01-3.17 6.12-6.45 9.28-9.51 2.01-1.94 3.21-2.66 4.48-3.43 1.42-.85 2.9-1.74 5.26-4.03 4.65-4.5 9.64-8.86 14.45-13.07 4.81-4.2 9.77-8.55 14.46-13.07.64-.62 1.02-1.35 1.36-1.99.22-.42.44-.83.65-1.05l.25-.27c2.16-2.31 4.85-5.18 6.76-5.35 1.38-.13 2.51.83 5.21 3.45.17.31.39.67.86 1.12 1.48 1.39 3.18 2.44 4.82 3.46 1.61 1 3.13 1.94 4.32 3.11 2.67 2.62 4.89 5.7 7.24 8.96 2.44 3.38 4.97 6.88 8.06 9.85 5.12 4.92 10.3 9.8 15.47 14.68l2.01 1.9c3.05 2.88 6.42 5.41 9.69 7.86 3.09 2.32 6.28 4.71 9.07 7.33 3.01 2.82 6.15 5.57 9.17 8.22 2.9 2.55 5.9 5.18 8.75 7.83 3.87 3.61 7.99 7.04 11.98 10.36 3.86 3.22 7.86 6.54 11.58 10 3.47 3.22 6.5 6.89 9.71 10.77 3.18 3.85 6.47 7.84 10.23 11.34 3.65 3.4 7.67 6.46 11.56 9.42 3.9 2.96 7.93 6.03 11.47 9.37.64.6.87.92 1.17 1.32.36.48.76 1.02 1.68 1.89 2.73 2.56 5.27 5.6 7.72 8.54 1.93 2.32 3.93 4.72 6.06 6.92 3.27 3.4 4.38 5.58 3.97 7.77-.42 2.2-1.08 4.88-2.56 6.98-1.13-.7-2.96-1.76-4.38-.25-2.19 2.33-3.9 5.04-5.56 7.65-1.63 2.58-3.16 5.02-5.09 7.05-2.95 3.11-5.85 6.5-8.65 9.77-3.14 3.67-6.38 7.47-9.84 11.05-3.15 3.26-6.65 6.2-10.36 9.32-3.49 2.93-7.09 5.96-10.41 9.31-3.21 3.23-6.86 6.01-10.72 8.96-3.62 2.76-7.36 5.61-10.73 8.88-3.33 3.24-6.11 7.06-8.79 10.75-2.76 3.8-5.62 7.73-9 10.87-3.53 3.28-7.57 6.23-11.47 9.08-3.51 2.56-7.13 5.21-10.46 8.13-8.08 7.1-17.45 15.28-26.45 22.57l-2.67 2.17c-3.43 2.78-6.66 5.4-9.84 7.86-1.1.85-1.39 2.13-1.62 3.16-.08.33-.19.83-.15.84-3.62 3.02-6.75 4.98-9.04 5.65-4.11 1.2-7.75-2.44-13.33-8.49l-1.95-2.1c-.13-.14-.31-.51-.47-.84-.28-.58-.62-1.3-1.22-1.91-4.49-4.61-9.33-8.94-14.02-13.13-4.23-3.78-8.6-7.69-12.57-11.69-2.71-2.73-5.08-5.82-7.6-9.09-2.59-3.36-5.26-6.84-8.38-9.97-3.04-3.05-6.76-5.42-10.36-7.71-3.42-2.18-6.96-4.44-9.77-7.22-2.74-2.71-5.12-5.76-7.63-9-2.63-3.38-5.34-6.87-8.52-9.94-1.97-1.91-3.95-3.84-5.92-5.77-3.87-3.79-7.88-7.7-11.91-11.5-3.22-3.03-6.86-5.6-10.38-8.09-3.18-2.25-6.46-4.57-9.32-7.16-3.59-3.26-7.37-6.36-11.02-9.36-2.53-2.08-5.06-4.16-7.53-6.29-.02-.59-.16-1.57-1.09-2.37-3.14-2.72-9.46-6.06-16.47 2.01-5.45 6.28-5.79 12.28-.95 16.46 3.26 2.82 6.9 5.25 10.41 7.59 3.73 2.49 7.6 5.07 10.88 8.05 3.32 3.02 6.38 6.52 9.34 9.91 2.75 3.15 5.6 6.41 8.7 9.34 3.21 3.04 6.74 5.74 10.15 8.35 3.65 2.8 7.1 5.45 10.21 8.47 3.2 3.11 6.1 6.65 8.91 10.07 2.7 3.29 5.49 6.69 8.55 9.72 3.31 3.28 7.01 6.08 10.58 8.78 3.53 2.67 6.87 5.2 9.78 8.1 3.84 3.82 6.99 8.38 10.33 13.21 3.29 4.75 6.69 9.66 10.82 13.87 2.06 2.09 4.24 4.07 6.35 6 2.15 1.95 4.37 3.97 6.41 6.06 1.18 1.2 2.92 1.15 4.33 1.12.39-.01.99-.03 1.31.01.56.59 1.11 1.19 1.65 1.79 2.68 2.92 5.46 5.93 8.98 8.49 6.05 4.4 12.61 8.7 20.45 8.7 3.42 0 6.34-1.31 9.16-2.57.78-.35 1.56-.7 2.35-1.02 4.25-1.72 7.46-4.34 10.57-6.87.64-.53 1.29-1.05 1.95-1.57.12-.1.53-.24.82-.35.59-.21 1.33-.47 2-.99 2.27-1.75 4.52-3.36 6.7-4.93 2.76-1.98 5.36-3.85 7.88-5.88 2.82-2.27 5.98-4.15 9.33-6.14 3.76-2.23 7.65-4.54 11.11-7.5 3.25-2.77 6.16-6.04 8.98-9.21 2.55-2.86 5.18-5.81 8.06-8.41 2.48-2.24 5.03-4.38 7.73-6.65 3.53-2.97 7.18-6.04 10.7-9.36 2.49-2.34 5.05-4.59 7.76-6.98 3.41-2.99 6.93-6.09 10.34-9.42 1.67-1.64 3.37-3.29 5.09-4.95 4.02-3.91 8.18-7.94 12.34-12.14 2.88-2.91 5.54-6.2 8.1-9.39 2.47-3.07 5.03-6.25 7.84-9.15 3.21-3.32 6.58-6.62 10.15-10.12 4.87-4.78 9.91-9.72 15.35-15.46.58-.61 1.14-1.24 1.7-1.88.76-.86 1.53-1.72 2.36-2.55 6.01-5.97 13.23-14.18 15.65-24.83 2.87-12.51.61-24.05-6.16-31.68z" fill="#e2d9cc" data-color="1"/>
        <path d="M194.09 293.51c-3.64-.08-6.75 1.02-9.03 3.19-2.23 2.13-3.5 5.15-3.57 8.5-.07 3.21 1.03 6.43 3.02 8.82 2.27 2.73 5.6 4.28 9.36 4.37 4.5.1 8.88-.22 13.12-.52 3.99-.29 7.76-.56 11.48-.48 4.12.08 8.24.62 12.23 1.15 4.04.53 8.21 1.09 12.32 1.14 7.72.1 15.06.18 22.61.23.55 2.38 1.04 4.82 1.56 7.37.99 4.87 2.01 9.9 3.51 15.08l.08.28c2.24 7.77 4.56 15.8 7.48 23.68 2.11 5.68 9.93 24.42 22.29 27.1.35.07.68.1.99.1.47 0 .9-.06 1.24-.11.2-.03.4-.07.6-.07 4.08 0 8.74-.5 12.41-4.17 4.62-4.64 8.46-11.97 11.4-21.81.5-1.68-.85-2.6-1.84-3.1l.49-1.63c2.94-9.75 5.98-19.83 7.81-29.51.46-2.44.56-5.27.66-8.27.08-2.56.17-5.19.49-7.77 4.59-.18 9.13-.49 13.18-.76 2.83-.19 5.51-.37 8-.49 3.59-.18 7.13.11 10.55.39 3.67.31 7.13.59 10.58.32 4.67-.36 9.07-1.01 13.32-1.63 2.57-.38 5.09-.74 7.59-1.04 6.97-.82 14.38-5.35 14.38-12.15 0-3.98-3.97-8.1-6.34-10.2-2.33-2.07-5.79-3.06-9.26-2.64-5.8.68-11.71.95-17.97 1.25-3.83.18-7.8.36-11.81.65-8.32.59-16.9 1.21-26.44 1.61l.2-1.31c.97-6.47 1.88-12.59 2.79-19.57.57-4.37.94-8.72 1.33-13.32.31-3.67.63-7.46 1.07-11.25.39-3.45-1.81-5.91-3.85-8.19-.44-.49-.89-1.07-1.36-1.66-1.92-2.43-4.32-5.46-7.65-5.46-7.1 0-12.33 7.29-13.09 14.05-.42 3.73-.77 7.41-1.11 11.04-.46 4.89-.9 9.52-1.5 14.1-.6 4.53-1.54 8.7-2.46 12.74-.67 2.96-1.36 6-1.91 9.18-3.85.17-7.73.62-11.8 1.11-5.02.59-10.19 1.21-15.7 1.3-.96-4.47-1.71-9.31-2.5-14.41-.73-4.73-1.49-9.62-2.45-14.35-.9-4.41-2.26-8.84-3.58-13.13-1.62-5.25-3.29-10.67-4.09-16.05-.41-2.73-.93-4.81-4.07-6.84-3.29-2.13-6.23-2.67-9.54-1.74-7.57 2.12-11.84 7.62-10.89 14.02.8 5.36 2.21 10.65 3.58 15.76.99 3.71 2.01 7.54 2.76 11.26l.87 4.39c1.37 6.89 2.67 13.44 4.07 19.77-3.56.05-7.09.24-10.52.43-4.34.24-8.82.49-13.25.43-3.15-.04-6.31.12-9.66.29-3.62.18-7.37.38-11.26.3-3.01-.06-6.16-.4-9.49-.75-2.98-.32-6.05-.65-9.26-.81v-.13l-2.17-.08zm97.75 25.5c2.38 0 4.77 0 7.12.01 3.98.01 7.84.02 11.41-.02-1.76 9.52-1.51 20.36-3.46 28.47-.44 1.84-1.56 7.01-2.59 11.64-.46 2.08-3.42 2.11-3.92.04-1.16-4.82-2.36-10.25-2.73-12.31-.55-3.04-.9-7.02-1.77-9.98-.86-2.91-.28-5.71-1.19-8.58-1.06-3.25-2.05-6.37-2.87-9.27z" fill="#e2d9cc" data-color="1"/>
    </g>
</svg>