<svg preserveAspectRatio="xMidYMid meet" data-bbox="78.367 207.596 443.293 170.954" viewBox="78.367 207.596 443.293 170.954" xmlns="http://www.w3.org/2000/svg" data-type="color" role="img" aria-label="Little guys logo">
    <g>
        <path d="M342.8 244.01c.28.15.53.29.8.42 1.71.83 3.36 1.85 5.16 2.42 1.52.49 3.21.54 4.83.62 1.37.07 2.75-.13 4.12-.16.89-.02 1.64.53 1.73 1.2.12.82-.2 1.41-1.21 1.64-2.39.55-4.82.97-7.23 1.44-.34.07-.7.17-1.04.15-.95-.06-1.93-.04-2.83-.3-1.72-.48-3.39-1.12-5.08-1.7-.58-.2-.88-.12-1.13.58-.51 1.39-1.21 2.72-1.86 4.06-.56 1.16-1.16 2.31-1.73 3.46-.28.57-.15.87.44 1.25 2.5 1.63 4.96 3.32 7.4 5.05 1.07.76 1.6 1.87 1.52 3.2-.18 3.08-.31 6.16-.63 9.22-.08.8-.01 1.45.29 2.13.83 1.85 1.68 3.69 2.45 5.56.31.76.39 1.62.68 2.4.44 1.21.94 2.4 1.5 3.56.08.17.68.14 1.03.11 1.9-.17 3.83-.43 5.65.32 2.84 1.18 5.35 2.84 7.04 5.48.52.82.88 1.8 1.08 2.76.41 1.98.67 3.99.99 5.99.37 2.3-.1 4.44-1.27 6.42-.97 1.65-1.96 3.39-3.63 4.37-3.4 2-6.94 3.56-11.09 2.27-2.04-.63-4.21-.86-5.99-2.19-2.27-1.7-4-3.89-5.44-6.28-.95-1.58-.65-3.47-.39-5.18.3-1.95.86-3.9 1.56-5.75 1.01-2.7 2.98-4.67 5.42-6.17.28-.17.55-.34.82-.51.05-.03.08-.08.22-.24-.5-1.4-1.03-2.87-1.55-4.34h-.28c-.24.45-.49.89-.71 1.35-1.5 3.12-3.01 6.23-4.47 9.36a147.7 147.7 0 0 0-2.47 5.63c-.29.69-.72.92-1.45 1.04-3.42.52-6.84-.01-10.26.09-.58.02-.63.28-.73.72-.77 3.21-1.65 6.38-4.06 8.84-1.71 1.75-3.84 2.86-6.19 3.35-1.25.26-2.65.09-3.92-.17-1.74-.36-3.43-.97-5.12-1.52-.86-.28-1.68-.7-2.53-1.01-1.55-.57-2.44-1.82-3.17-3.16-1.69-3.11-2.38-6.45-1.27-9.86.67-2.06 1.86-3.96 2.91-5.88.43-.78 1.13-1.42 1.7-2.13 2.2-2.73 7.14-4.53 11.22-3.02.67.25 1.01.16 1.25-.53.37-1.08.83-2.13 1.18-3.21.72-2.24.95-2.46 2.97-2.61-.13-.56-.35-1.1-.38-1.66-.06-1.38.82-2.34 1.64-3.3.85-1 1.79-1.94 2.56-3 .77-1.05 1.42-2.2 2.04-3.35 1.06-1.94.46-3.87-.16-5.78-.2-.61-.4-1.23-.61-1.84-1.29-3.64-.34-6.91 1.68-10 .85-1.3 1.7-2.61 2.51-3.93.25-.42.44-.9.54-1.38.24-1.21-.41-1.78-1.66-1.62-2.77.36-4.69 1.97-6.48 3.98-1.15 1.29-2.68 2.26-4.09 3.3-.56.41-1.22.34-1.78-.17-.58-.53-.47-1.14-.1-1.67 1.32-1.86 2.64-3.73 4.06-5.5 1-1.25 2.06-2.51 3.33-3.46 1.04-.78 2.42-1.13 3.67-1.63 2.1-.83 4.17-1.74 6.33-2.36 1.08-.31 2.32-.04 3.48-.1.38-.02.91-.17 1.09-.44.46-.7.83-1.48 1.13-2.27.64-1.67 1.56-3.1 2.94-4.29 1.42-1.23 3.92-.47 4.74.94.58 1 .65 1.94.29 3-.51 1.49-1.26 2.83-2.33 3.99-.47.56-.95 1.16-1.67 2zm10.5 51.61c.22.66.37 1.13.54 1.59.39 1.04.88 2.06 1.18 3.13.18.64.17 1.39.04 2.05-.17.89-.9 1.38-1.74 1.54-.87.17-1.21-.53-1.52-1.19-.96-1.98-1.96-3.94-2.9-5.93-.26-.54-.54-.66-1.09-.48-1.52.5-2.54 1.49-2.92 3.02-.49 2-.68 4.04-.48 6.11.29 3.08 1.96 5.44 4.42 6.93 2.92 1.77 6.19 2.03 9.41.36 1.01-.53 1.66-1.28 1.99-2.33.88-2.85 1.45-5.76 1.38-8.74-.02-.92-.25-2.07-.84-2.69-1.94-2.03-4.54-2.87-7.47-3.37zM324.76 284c6.64-.09 13.18.84 19.8-.22-.44-1.07-.84-2.07-1.26-3.06-.23-.56-.6-1.52-.6-1.52s-.76.06-1.06-.25c-.3-.32-.22-1.26-.25-1.91-.09-2.37-.03-4.75-.16-7.12-.04-.68-.35-1.61-.86-1.97-1.77-1.23-3.66-2.3-5.56-3.35-.96-.53-1.58-.16-1.6 1.07-.04 2.25-.28 4.49-.48 6.74-.04.48-.19 1-.44 1.41-1.29 2.02-2.39 4.15-4.09 5.9-1.22 1.24-2.2 2.71-3.44 4.28zm-5.42 20.51c-.42-.06-.77-.11-1.11-.15-1.87-.17-3.75-.3-5.61-.53-1.03-.13-1.37-.6-1.1-1.59.43-1.58 1-3.11 1.53-4.66.28-.81.59-1.62.88-2.42-1.78-.52-3.38-.73-4.91.23-.15.09-.33.12-.5.17-1.88.65-3.25 1.95-4.13 3.64-1.27 2.45-1.48 5.14-.87 7.8.35 1.52.94 3.1 2.45 3.92 1.79.97 3.67 1.72 5.77 1.68 2.21-.04 3.99-.91 5.43-2.61 1.35-1.58 1.55-3.55 2.17-5.48zm.33-12.37c2.53 1.64 4.46 3.61 5.11 6.56.13.61.44.72 1.04.76 1.93.1 3.85.31 5.78.47.58.05 1.17.1 1.75.11.73.02 1.17-.31 1.42-1.04.23-.65.65-1.24.96-1.86.32-.62.63-1.25.9-1.89.6-1.39 1.12-2.82 1.76-4.19.45-.97 1.05-1.87 1.62-2.87-1.82 0-3.48.01-5.14 0-4.22-.04-8.44-.1-12.67-.16-.5-.01-.91.02-1.13.58-.43 1.17-.92 2.33-1.4 3.53zm25.48-54.09c.04-.35-.09-.69-.21-.71-.19-.04-.5.03-.59.17-.28.44-.51.91-.68 1.4-.06.16.07.51.21.57.15.07.51-.02.6-.16.3-.45.63-.92.67-1.27zm-25.56 61.84c-.58-.68-1.37-1.65-1.88-2.25-.25.74-.56 1.75-.78 2.39.71-.04 1.78-.07 2.66-.14zm23.32-62.4c.11-.65-.48-.77-.74-.56-.25.21-.59.72-.86 1.19-.06.11-.01.62.36.62.38 0 1.14-.59 1.24-1.25z" fill="#f91239" data-color="1"/>
        <path d="M396.02 273.62c4.9.3 8.83 1.05 12.6 2.33 2.36.8 4.59 1.91 6.57 3.62 2.16 1.88 3.96 4.06 5.99 6.05.37.36.6.86.87 1.31.49.83 1.03 1.64 1.44 2.51.37.78.69 1.61.87 2.45.42 1.91.97 3.8.62 5.81-.59 3.39-1.58 6.65-2.9 9.83-1.62 3.92-4.48 6.76-7.78 9.21-.71.53-1.71.68-2.6.93-1.3.36-2.61.66-3.92.96-.56.13-1.14.24-1.72.29-.61.06-1.24-.03-1.85.06-4.01.6-7.71-.65-11.42-1.85-.97-.32-1.9-.82-2.89-1.04-2.08-.47-3.59-1.84-5.26-3.01-3.77-2.63-5.77-6.52-7.55-10.51-1.05-2.35-1.1-4.98-.72-7.54.5-3.34 1.33-6.61 2.68-9.72 1.1-2.54 2.69-4.73 4.98-6.36 1.41-1 2.68-2.22 4.16-3.08 2.69-1.52 5.53-2.62 7.83-2.25zm18.13 38.91c.78-.83 1.7-1.56 2.32-2.49 3.29-4.91 5.85-10.08 4.65-16.27-.3-1.54-.63-3.16-1.38-4.51-2.14-3.9-5.35-6.77-9.28-8.85-1.14-.6-2.17-.72-3.38-.16-1.3.6-2.56 1.13-3.24 2.53-.31.64-.34 1.07.32 1.46.5.3.98.64 1.43 1.02.99.83 1.46 2.12 1.11 3.15-.56 1.65-.21 2.77.98 3.82.04.04.07.09.11.14.63.87.78.9 1.7.28.24-.16.47-.36.73-.49 1.46-.72 2.81-1.63 4.57-1.62 1.47.01 2 .96 2.43 2.02.38.94 0 1.86-.73 2.47-1.31 1.09-2.69 1.99-4.57 1.94-1.16-.03-2.39.27-3.47.72-1.63.68-1.67 2.88-.28 3.96.51.39.99 1.07 1.08 1.68.15.95-.03 1.96-.09 2.94-.01.26-.22.58-.12.75.62 1.12 1.17 2.32 2.01 3.25.8.87 1.93 1.43 3.1 2.26zm-22.69.96c.32-1.93.85-3.65 1.92-5.23.99-1.45.28-2.77-1.41-2.9-.72-.06-1.46.05-2.18.02-.61-.02-1.24-.04-1.81-.23-1-.33-1.4-1.07-.96-1.9.73-1.4 1.1-2.86 1.35-4.4.23-1.43 1.46-1.97 2.8-1.41 1.35.57 2.51 1.37 3.29 2.67.14.23.49.32.74.47.1-.26.21-.52.28-.79.03-.13-.03-.29-.07-.43-.49-1.8-1.02-3.59-2.14-5.12-.17-.23-.37-.55-.33-.79.18-1.06.29-2.16.71-3.13.64-1.48 1.55-2.8 2.9-3.81.82-.61.84-2.17.19-2.67-.86-.65-2.61-.48-3.46.18-1.25.96-2.05 2.23-2.84 3.54-.6 1-1.39 1.39-2.25 1.07-.56-.21-1.09-.55-1.59-.89-.83-.55-1.56-1.28-2.45-1.69-.51-.23-1.46-.23-1.83.1-.65.57-1.15 1.41-1.47 2.24-.96 2.51-1.41 5.11-1.33 7.83.11 3.5 1.34 6.59 3.27 9.39 1.27 1.85 2.86 3.48 4.33 5.18 1.12 1.32 2.61 2.12 4.34 2.7zm.29-37.15c0 .1.01.21.01.31 1.68-.14 2.78.9 3.92 1.86.27.23.54.46.76.73.96 1.14 2.2 1.37 3.58 1.09.46-.1 1.22-.21 1.3-.48.28-.92.33-1.9.45-2.87.01-.07-.07-.18-.13-.22-.82-.41-1.6-.98-2.47-1.18-.97-.22-2.03-.24-3.01-.11-1.48.18-2.94.57-4.41.87zm5.92 39.92c.77.8 1.64.69 2.46.57 2.33-.34 4.64-.73 6.96-1.11.24-.04.46-.18.69-.27-.16-.21-.32-.41-.48-.62-.1-.13-.18-.27-.29-.38-.19-.17-.39-.42-.6-.45-1.6-.19-3.19-.59-4.83-.16-1.54.4-3.15.66-3.91 2.42z" fill="#f91239" data-color="1"/>
        <path d="M406.27 254.72c0 1.82.02 3.37-.01 4.91-.01.58.13.9.78 1 .93.14 1.69.64 2.49 1.19 1.1.75 2.39 1.25 3.64 1.73 2.31.89 3.99 2.43 5.06 4.64 1.19 2.46 2.37 4.92 2.79 7.65.04.29.1.59.07.87-.08.99-.05 2.06-1.15 2.57-.99.47-2.49-.03-3.43-.73-1.62-1.21-2.1-3.12-3.16-4.67-1.13-1.67-2.27-3.37-3.65-4.82-.85-.9-2.12-1.42-3.27-1.99-2.12-1.05-4.27-2.06-6.44-3.01-1.51-.66-1.77-.5-2.78.76a244.73 244.73 0 0 1-4.82 5.84c-2.51 2.94-5.7 4.12-9.52 3.52-.28-.04-.6-.13-.8-.31-1.12-.98-2.32-1.89-3.27-3.02-1.65-1.97-3.46-3.86-4.28-6.39-.06-.19-.16-.38-.22-.57-.32-1.01-.06-1.52.97-1.89 1.7-.6 3.1-.13 4.47 1.31 1.13 1.18 2.34 2.28 3.59 3.34.71.6 1.96.59 2.62-.01 2.5-2.26 5.04-4.58 6.65-7.55 1.11-2.05 1.79-4.4 2.33-6.69.35-1.49-.26-2.05-1.65-2-.99.04-2.03.08-2.94.41-.61.22-1.17.86-1.52 1.45-.77 1.31-1.4 2.71-2.07 4.08-.34.69-.78 1.06-1.6.84-.81-.22-1.36-.67-1.25-1.54.11-.92.27-1.87.58-2.74.65-1.82 1.37-3.61 2.18-5.37.23-.49.78-1.02 1.28-1.17 1.02-.29 2.11-.33 3.17-.46 1.36-.17 2.73-.29 4.09-.48.5-.07.99-.29 1.47-.46.6-.21.8-.68.85-1.3.19-2.18.87-4.16 2.36-5.84 1.12-1.25 3.5-1.55 4.81-.49.63.51.84 1.2.76 1.97-.2 1.83-.41 3.67-.66 5.5-.15 1.06-.06 1.17.98 1.38.86.17 1.72.41 2.53.72 1.04.4 1.66 1.22 2.09 2.25.41.97.91 1.9 1.47 2.79.69 1.1 1.69 1.39 2.9.92.71-.28 1.38-.64 2.08-.93.82-.33 1.63-.42 2.44.1.53.35.62.77.3 1.27-.28.44-.56.95-.96 1.24-1.47 1.06-2.94 2.13-4.51 3.03-1.5.85-2.49.56-3.48-.85-.95-1.34-1.79-2.75-2.73-4.09-.21-.29-.61-.45-.92-.67-.17.28-.44.54-.5.84-.12.73-.16 1.47-.21 1.92zM403.89 240c-.09-.15-.41-.24-.54-.06-.13.18-.2.69-.19.95.01.18.18.52.41.52s.44-.43.48-.68c.04-.19-.07-.59-.16-.73zm-2.31.32c.04-.61-.3-.82-.52-.79s-.52.64-.52.83c-.01.17.21.63.41.63.19 0 .6-.06.63-.67z" fill="#f91239" data-color="1"/>
        <path d="M275.29 309.8c0 1.15.01 2.29 0 3.44-.02 1.29-.33 2.52-.81 3.7-.4 1-1.22 1.33-2.39 1.06-1.36-.31-1.87-.94-2.05-2.34-.24-1.85-.34-3.7-.37-5.57-.02-1.33-.26-2.66-.33-4-.06-1.07-.03-2.14-.01-3.2.03-2 .1-4 .11-6 0-.71-.13-1.42-.2-2.13-.14-1.35-.13-2.69.13-4.04.13-.71.16-1.45.3-2.16.28-1.4.61-2.79.93-4.19.3-1.28.58-2.57.93-3.84.41-1.49.91-2.95 1.33-4.44.51-1.83.98-3.66 1.44-5.5.42-1.69.77-3.39 1.2-5.07.35-1.41.7-2.82 1.18-4.19.38-1.08.95-2.08 1.45-3.12.04-.08.09-.16.14-.24.36-.68.9-1.03 1.7-1.04.98-.01 1.96-.05 2.93-.13 1-.09 1.99-.11 2.99-.03.14.01.29-.04.43-.09.53-.17 1.03.06 1.54.12 1.42.17 2.77.58 4.13.99.73.22.81.46.41 1.11-.24.39-.54.73-.8 1.1-.36.49-.92.46-1.42.51-1.29.12-2.58.17-3.86.28-.32.03-.62.19-.94.26-.36.09-.73.14-1.09.22-.63.13-1.28.21-1.88.43-.52.18-.78.71-.94 1.2-.46 1.37-.85 2.76-1.29 4.14-.16.51-.39.99-.53 1.5-.09.33-.09.69-.08 1.03 0 .32.2.5.52.57.75.17.92.11 1.32-.53.17-.27.36-.52.54-.78.45-.68.95-1.34 1.35-2.05.87-1.53 2.09-2.6 3.76-3.17.71-.24 1.42-.43 2.16-.24.22.06.49.14.63.3 1.19 1.31 1.79 2.52.46 4.34-.55.75-1.05 1.54-1.66 2.23-.5.57-1.11 1.03-1.69 1.52-.37.31-.5.85-.34 1.31.32.89 1.11 1.14 1.87 1.36.66.19 1.35.28 2.03.39.22.03.45-.01.68-.05.39-.06.78-.14 1.17-.2.7-.11 1.05-.6 1.25-1.2.31-.95.58-1.9.85-2.86.28-.98.56-1.96.81-2.94.22-.85.4-1.72.59-2.58.08-.37.69-1.01 1.05-1.08.73-.14 1.74.54 1.95 1.26.15.5.32.97.25 1.52-.2 1.74-.59 3.43-1.16 5.09-.53 1.54-.94 3.13-1.47 4.67-.34.99-.88 1.91-1.66 2.63-.33.3-.82.41-1.25.6-.13.06-.29.08-.42.15-.82.49-1.67.31-2.53.14-.42-.08-.87-.09-1.29-.01-.69.12-1.33-.04-1.98-.21-.28-.07-.57-.16-.85-.25-.23-.07-.39.04-.46.23-.18.49-.34.99-.5 1.49-.32.98-.66 1.96-.94 2.95-.26.93-.51 1.86-.67 2.81-.07.43.03.9.12 1.34.22 1.1.46 2.2.74 3.28.23.88.56 1.73.78 2.61.2.78.32 1.57.44 2.37.17 1.18.21 2.37.57 3.52.1.31.12.65.16.97.11.94.23 1.87.29 2.81.09 1.4.2 2.81.18 4.21-.01 1.09-.26 2.18-.3 3.28-.04 1.15-.4 2.22-.85 3.23-.38.88-.87 1.74-1.61 2.41-.14.13-.27.28-.38.43-.59.8-1.78.74-2.22-.15-.18-.38-.33-.82-.32-1.23.02-1.46.11-2.92.17-4.38.04-.98.08-1.97.11-2.95.03-.96.07-1.92.08-2.89.02-1.52-.16-2.99-.8-4.41-.67-1.49-1.21-3.03-1.79-4.56-.25-.67-.42-1.36-.66-2.04-.2-.55-.44-1.1-.67-1.64a.775.775 0 0 0-.26-.31c-.41-.32-.68-.23-.9.24-.44.95-.6 1.97-.85 2.97-.3 1.19-.33 2.41-.39 3.62-.12 2.08-.25 4.15-.33 6.23-.05 1.27-.01 2.54-.01 3.82-.01.04.02.04.05.04zm10.76-42.76c0 .36.3.54.62.39.43-.21.65-.58.79-1.01.07-.22-.18-.5-.4-.48-.44.04-1.02.66-1.01 1.1zm2.78-.51c-.15.12-.38.21-.44.37-.11.27-.14.58-.14.88 0 .13.14.33.26.37s.36-.03.44-.13c.17-.23.31-.5.4-.77.14-.44-.01-.62-.52-.72z" fill="#f91239" data-color="1"/>
        <path d="M130.71 284.88c-1.62.97-3.19 1.9-4.76 2.84-.76.45-1.5.95-2.28 1.36-.93.49-1.86 1.01-2.85 1.33-1.18.38-2.38.18-3.49-.44-.19-.11-.37-.23-.55-.34-1.03-.65-1.05-2.28.01-2.9.75-.44 1.56-.78 2.34-1.17.14-.07.29-.13.43-.2l3.27-1.68c.08-.04.16-.09.23-.15 1.11-1.05 2.39-1.91 3.2-3.27.33-.56.84-1.01 1.24-1.53.79-1.05 1.55-2.13 2.35-3.17.3-.39.66-.77 1.08-1.03.79-.49 1.33-1.22 1.97-1.86.19-.19.31-.46.43-.71.07-.14.08-.31.08-.46.01-.53-.17-1.07.02-1.61.03-.07 0-.22-.05-.25-.26-.19-.2-.45-.22-.71-.02-.28-.04-.57-.12-.84-.25-.74-.1-1.46.03-2.18.12-.66.2-1.34.61-1.89.53-.71 1.07-1.41 1.67-2.06.44-.48 1.11-.54 1.73-.65.33-.06.68-.08 1.02-.08 1.4.01 2.43 1.39 2.66 2.51.32 1.56.5 3.14.09 4.72-.14.54-.23 1.12-.48 1.61-.17.34-.27.65-.24 1.01.02.34.03.69.06 1.03.01.11.03.24.1.32.35.39.72.78 1.09 1.15.34.33.69.65 1.04.97.4.37.82.71 1.18 1.11.53.58 1.01 1.19 1.51 1.79.15.17.27.37.43.53.77.82 1.56 1.62 2.33 2.44.35.37.62.82.98 1.17.68.63 1.38 1.24 2.11 1.81.64.51 1.37.89 2.14 1.18.29.11.55.31.82.48.55.34 1.11.67 1.63 1.04.39.28.76.62 1.09.97.33.36.27 1.05-.07 1.41-.69.73-1.49 1.17-2.55 1-1.12-.18-2.25-.26-3.37-.45-.43-.08-.83-.34-1.24-.54-.45-.23-.9-.49-1.34-.74-1.14-.65-2.37-1.17-3.4-2.01-.22-.18-.46-.32-.77-.53.05.31.08.51.11.72.19 1.31.42 2.62.56 3.94.1.95.38 1.84.61 2.75.24.97.76 1.84.83 2.86.02.28.23.54.3.83.19.69.33 1.39.52 2.07.4 1.43.27 2.87.05 4.29-.26 1.65-.52 3.3-.92 4.91-.3 1.23-.85 2.4-1.21 3.61-.48 1.63-1.19 3.17-1.95 4.67-.3.6-.71 1.13-1.35 1.45-.54.27-1.1.23-1.62.01-.46-.19-.88-.46-1.3-.73-.32-.2-.46-.53-.49-.9-.08-1.23-.08-2.46.32-3.64.19-.55.5-1.07.67-1.63.55-1.84 1.02-3.71 1.59-5.54.34-1.08.21-2.13.1-3.2-.06-.62-.15-1.23-.25-1.84-.12-.73-.24-1.47-.41-2.19-.06-.24-.25-.5-.45-.65-.3-.22-.52-.56-.96-.61-.56-.07-.79.03-.99.56-.21.56-.4 1.14-.6 1.7-.27.74-.59 1.45-.81 2.21-.29 1.01-.47 2.06-.75 3.08-.18.67-.43 1.32-.66 1.97-.89 2.54-1.76 5.08-2.7 7.61-.49 1.31-1.28 2.44-2.26 3.45-.63.65-1.33.69-2.12.48-.29-.08-.61-.13-.87-.28-.71-.41-.96-1.13-.7-2.09.52-1.92 1.04-3.84 1.61-5.74.73-2.42 1.54-4.82 2.26-7.25.63-2.13 1.27-4.27 1.52-6.49.2-1.82.2-3.65-.15-5.46-.19-.99-.29-2-.43-3-.07-.71-.18-1.49-.29-2.26zm6.05-19.19c-.08-.29-.41-.51-.61-.37s-.4.34-.5.56c-.18.41-.19.87-.01 1.29.06.15.22.36.35.37.16.01.42-.11.49-.24.16-.38.42-1.03.28-1.61zm2.26.19c0-.35-.12-.57-.28-.64-.11-.05-.43.12-.48.25-.17.42-.28.87-.34 1.32-.02.11.22.33.36.36.13.03.38-.1.43-.22.16-.36.31-.72.31-1.07z" fill="#f91239" data-color="1"/>
        <path d="M241.63 277.55c-.09.58-.23 1.15-.31 1.74-.1.71.3 1.19.97 1.08.2-.03.43.03.63.09.66.19 1.34.35 1.98.6 1.17.45 1.79 1.37 2.26 2.52.42 1.02 1.02 1.97 1.62 2.9.6.92 1.84 1.1 2.81.65.55-.25 1.1-.49 1.63-.77a3.48 3.48 0 0 1 2.04-.4c.51.05.96.32 1.25.75.1.15.09.46 0 .64-.34.66-.73 1.3-1.36 1.75-.96.7-1.9 1.44-2.89 2.09-.63.41-1.33.75-2.04.99-1.22.41-1.97.18-2.71-.86-.94-1.31-1.82-2.68-2.72-4.03-.11-.16-.2-.33-.26-.51-.13-.37-.46-.48-.78-.59-.21-.07-.39.03-.45.25-.14.51-.33 1.02-.37 1.54-.06.86-.01 1.73-.02 2.59-.01.5-.09.99-.09 1.49 0 .54.05 1.08.07 1.62.01.2-.01.41 0 .61.03.56.07.59.62.7.42.09.84.16 1.25.29.28.09.59.2.77.41.67.74 1.56 1.08 2.43 1.46 1.19.52 2.37 1.03 3.53 1.61 1.25.63 2.18 1.64 2.91 2.81 1.33 2.16 2.25 4.51 3.04 6.9.28.84.4 1.75.51 2.64.09.73-.1 1.44-.4 2.12-.22.5-.63.75-1.13.83-.8.13-1.59.04-2.34-.26-.22-.09-.41-.27-.6-.44-.54-.48-1.08-.97-1.61-1.46a.66.66 0 0 1-.2-.27c-.29-1.07-.94-1.96-1.43-2.93-.72-1.4-1.7-2.62-2.66-3.86-.26-.34-.52-.69-.82-1-.95-1-2.16-1.59-3.39-2.16-1.79-.83-3.54-1.74-5.32-2.57-.81-.38-1.67-.65-2.51-.94-.26-.09-.89-.05-1.49.7-1.5 1.87-2.89 3.82-4.53 5.58-1.11 1.19-2.25 2.3-3.6 3.21s-2.85 1.21-4.43 1.22c-.66.01-1.32-.03-1.98-.05-.47-.01-.89-.12-1.27-.41-.63-.48-1.31-.92-1.89-1.45-.51-.47-.94-1.04-1.38-1.59-.77-.95-1.52-1.92-2.29-2.87-.85-1.05-1.49-2.22-1.96-3.48-.12-.32-.25-.63-.36-.95-.2-.58-.02-1.1.57-1.42.57-.31 1.18-.42 1.84-.47 1.46-.11 2.37.76 3.23 1.68 1.14 1.22 2.25 2.47 3.69 3.36.45.28.94.33 1.46.31.7-.02 1.23-.38 1.69-.85.94-.98 1.88-1.97 2.81-2.96.58-.62 1.15-1.25 1.74-1.87 1.03-1.09 1.84-2.3 2.32-3.73.16-.48.37-.95.53-1.43.34-1.07.64-2.16 1.01-3.23.23-.66.27-1.3.12-1.97-.08-.38-.48-.78-.96-.79-.71-.01-1.42.04-2.13.09-.33.02-.65.15-.97.14-.9-.02-1.5.44-1.9 1.16-.5.91-.92 1.87-1.4 2.8-.38.75-.78 1.49-1.18 2.23a.76.76 0 0 1-.76.42c-.67-.04-1.31-.07-1.71-.74-.31-.52-.28-1.08-.14-1.58.33-1.2.77-2.37 1.12-3.56.43-1.44 1.07-2.79 1.71-4.15.37-.79 1.09-1.01 1.84-1.17.6-.12 1.2-.22 1.8-.33.09-.02.18-.05.27-.03.96.23 1.86-.1 2.79-.23.74-.1 1.49-.08 2.23-.17.35-.04.68-.21 1.01-.32.02-.01.03-.04.05-.04.95-.32.94-1.15 1.05-1.93.25-1.73.64-3.41 1.86-4.77.1-.11.2-.22.27-.35.89-1.54 3.29-1.78 4.66-1.06.81.43 1.22 1.09 1.23 2 0 .28-.29 3.24-.48 4.43zm-2-2.68c.05.47.15.6.47.63.25.02.48-.08.52-.29.05-.26.04-.56-.06-.8-.12-.28-.52-.29-.71-.04-.11.14-.15.33-.22.5zm-1.68-.49c.02-.37-.12-.54-.43-.55-.32-.01-.47.2-.5.66-.02.27.18.48.44.49.29.01.48-.22.49-.6z" fill="#f91239" data-color="1"/>
        <path d="M185.97 298.35c1.69-.37 3.41-.39 5.12-.35.9.02 1.79.3 2.59.74.2.11.37.33.5.54.37.61.72 1.24 1.07 1.86.06.11.12.23.12.34-.02.91.02 1.83-.12 2.71-.12.75-.45 1.47-.72 2.19-.7 1.84-1.35 3.71-2.15 5.51-.53 1.2-1.21 2.35-1.98 3.41-.55.76-1.35 1.34-2.07 1.96-.44.39-.92.74-1.41 1.07-.74.5-1.89.28-2.4-.44-.09-.13-.08-.34-.11-.52-.24-1.17.1-2.2.7-3.2.61-1.03 1.14-2.11 1.7-3.18.51-.96 1-1.94 1.53-2.88.48-.85.77-1.74.81-2.71.03-.76-.4-1.12-1.15-.98-.69.12-1.37.32-2.06.44-1.11.18-2.22.33-3.34.49-.58.08-.55.09-.66.66-.23 1.19-.52 2.37-.77 3.56-.16.77-.26 1.55-.47 2.3-.26.97-.52 1.97-.94 2.88-.51 1.1-1.48 1.76-2.7 1.89-1.13.12-2.26-.02-3.39-.19-1.17-.18-2.22-.61-3.24-1.19-.34-.2-.74-.31-1.08-.5-.71-.4-1.44-.79-2.09-1.27-.73-.55-1.52-.62-2.36-.55-.15.01-.32.12-.44.23-.63.53-1.22 1.1-1.88 1.6-.65.5-1.93.37-2.51-.21-.3-.3-.23-.71-.13-1.03.53-1.78.96-3.61 2.1-5.14.14-.18.27-.36.41-.54.77-.98 1.77-1.18 2.93-.87.63.17 1.29.27 1.91.47 1.53.47 3.01 1.06 4.48 1.7.74.33 1.55.51 2.33.74.06.02.21-.08.23-.16.18-.59.36-1.19.49-1.79.17-.78.28-1.58.44-2.36.06-.29 0-.44-.29-.58-.71-.33-1.41-.68-2.08-1.09-.27-.16-.48-.48-.63-.77-.3-.57-.5-1.19-.8-1.76-.62-1.19-.52-2.41-.2-3.65.34-1.36.82-2.67 1.42-3.93.11-.23.16-.5.26-.74.21-.48.43-.95.66-1.42.19-.39.42-.76.6-1.14.32-.68.71-1.31 1.15-1.92.55-.76.99-1.6 1.44-2.43.21-.38.48-.7.81-.99.86-.72 1.72-1.46 2.53-2.23.33-.31.6-.72.77-1.14.67-1.56 1.24-3.17 1.94-4.71.5-1.09 1.21-2.06 2.2-2.78.21-.15.5-.21.75-.29.96-.3 1.67.11 2.33.77.67.67 1.1 1.49 1.42 2.37.09.25.11.57.06.84-.27 1.44-.31 2.92-.83 4.31-.07.2-.16.4-.21.61-.05.19-.04.4-.09.59-.04.16-.12.3-.17.45-.05.14-.1.29-.15.44.16.05.33.14.49.13.75-.07 1.5-.2 2.26-.24 1.76-.11 3.52-.15 5.27-.3.65-.06 1.28-.33 1.92-.52.87-.25 1.73-.51 2.6-.75.6-.16 1.21-.31 1.82-.44.58-.12 1.16-.3 1.74-.27.49.02 1 .24 1.46.46.35.17.29.58.16.85-.46.95-1.01 1.77-2.01 2.34-1.94 1.1-4.07 1.6-6.15 2.28-.72.24-1.45.46-2.18.67-.24.07-.49.06-.74.1-1.58.23-3.16.47-4.75.7-.56.08-1.12.15-1.68.25-.09.02-.23.15-.22.22.05.54-.2.99-.37 1.47-.54 1.52-1.06 3.04-1.63 4.55-.26.68-.6 1.32-.9 1.99-.21.52.46.53.73.47zm-6.63-2.46c0 .26-.02.53.01.78.02.16.08.36.19.44.85.63 1.66 1.32 2.58 1.83 1.02.56 2.01 1.13 2.87 1.93.36.34.79.61 1.19.9.2.14.4.07.54-.11.15-.19.07-.39-.09-.51-.93-.74-1.81-1.58-2.83-2.17-1.21-.69-2.34-1.48-3.48-2.25-.11-.07-.23-.21-.24-.33-.11-1.25.14-2.47.39-3.69.13-.6.24-1.21.36-1.82.1-.52.21-1.03.31-1.55s.21-1.03.3-1.55c.04-.21-.05-.44-.27-.43-.12 0-.29.23-.33.39-.2.8-.38 1.61-.55 2.42-.12.56-.24 1.12-.35 1.68-.1.5-.18.99-.27 1.49-.14.85-.36 2.54-.33 2.55zm6.33-17.01c.06.07.15.28.3.35.12.06.35 0 .48-.09.38-.25.51-.76.35-1.17-.08-.22-.24-.3-.45-.22-.37.13-.69.61-.68 1.13zm3.24-.06c.01-.27-.05-.48-.37-.49-.26-.01-.63.41-.62.71.01.24.21.44.46.44.3 0 .53-.28.53-.66z" fill="#f91239" data-color="1"/>
        <path d="M93.87 307.4c-.01.14.04.29.08.43.13.46.09.9-.15 1.32-.21.35-.44.69-.66 1.03-.15.22-.33.41-.45.64-.86 1.61-2.24 2.71-3.61 3.85-1.14.95-2.28 1.92-3.52 2.74-.42.28-.88.51-1.34.74-.72.37-1.42.77-2.16 1.07-1.41.57-3.12-.15-3.62-1.5-.08-.22-.11-.53-.01-.72.26-.5.55-1.01.93-1.41 1.03-1.06 2.12-2.06 2.96-3.29.16-.23.37-.43.58-.62.79-.75 1.59-1.49 2.38-2.25.22-.21.43-.44.58-.71.57-.98.28-2.67.09-3.57-.18-.87-.38-1.74-.6-2.6-.12-.48-.32-.94-.44-1.42-.21-.81-.39-1.62-.57-2.43-.12-.55-.23-1.11-.33-1.66-.1-.51-.14-1-.07-1.54.13-.97.57-1.76 1.06-2.55.65-1.08 1.49-2 2.49-2.78 1.58-1.24 2.86-2.79 4.28-4.2.65-.65 1.33-1.28 1.97-1.93.75-.76 1.49-1.53 2.23-2.29.09-.09.18-.18.29-.23.83-.36 1.67-.71 2.51-1.05.59-.24 1.15-.52 1.82-.53.17 0 .38-.22.48-.38.49-.8.93-1.64 1.44-2.43.42-.66.86-1.31 1.37-1.9 1.06-1.23 2.49-1.56 4.02-1.33.58.09 1.15.42 1.69.7.48.25.57.77.61 1.25.06.74-.08 1.46-.33 2.17-.32.91-.39 1.91-.88 2.78-.63 1.1-1.22 2.23-1.9 3.3-.23.37-.66.62-.98.93-.17.17-.31.38-.48.55-.19.19-.44.33-.61.53-.13.15-.27.35-.27.53-.03 1.1-.03 2.2-.04 3.3-.01 1.83-.03 3.66-.02 5.49.01 1.35.05 2.7.1 4.06.03.8-.18 1.67.15 2.41.97 2.18.18 3.61.04 3.87-.75 1.34-1.5 2.67-2.29 3.99-1.06 1.76-2.15 3.5-3.24 5.25-.18.29-.42.54-.63.8-.33.41-.67.8-.98 1.22-.91 1.24-2.13 1.74-3.62 1.52-.71-.11-1.3-.82-1.02-1.69.45-1.37.95-2.72 1.58-4.02.46-.94.78-1.96 1.15-2.94.45-1.2.91-2.4 1.33-3.61.11-.3.12-.64.16-.97.02-.18-.02-.37 0-.54.09-.68.01-1.26-.62-1.72-.43-.32-.71-.84-1.11-1.23-.42-.4-.42-.86-.35-1.37.26-1.8.63-3.59.74-5.39.11-1.88.72-3.51 1.79-5.01.14-.19.25-.41.35-.62.06-.12.1-.26.09-.39-.01-.12-.09-.32-.16-.32-.12-.01-.3.06-.36.16-.65 1.1-1.34 2.19-1.89 3.34-.35.73-.51 1.56-.58 2.4-.1 1.3-.3 2.59-.47 3.88-.18 1.39-.37 2.79-.57 4.18-.1.45-.35 3.61-.41 4.71zm6.78-15.29-.14.28c-.21.48-.43.95-.64 1.43-.21.5-.43 1-.6 1.51-.05.16.01.44.12.54.6.51 1.24.98 1.87 1.46.01 0 .02-.01.06-.02-.21-1.72-.44-3.45-.67-5.2zm6.23-14.15c.02-.42-.22-.63-.57-.47-.11.05-.23.17-.28.28-.19.42-.37.85-.52 1.28-.08.23.04.43.29.42.19-.01.44-.08.55-.22.3-.37.49-.8.53-1.29zm1.88 0c-.1-.11-.18-.27-.29-.31-.09-.03-.3.07-.34.17-.18.44-.33.9-.48 1.36-.07.22-.02.45.21.49.13.03.38-.1.42-.22.18-.47.31-.96.48-1.49z" fill="#f91239" data-color="1"/>
        <path d="M468.12 257.15c-.12-.01-.39.26-.4.41-.03.47 0 .95.09 1.42.02.11.32.26.48.24.13-.01.34-.22.36-.36.04-.42 0-.84-.01-1.34-.18-.12-.34-.35-.52-.37z" fill="#f91239" data-color="1"/>
        <path d="M466.48 258.63c-.06-.13-.1-.27-.18-.38-.17-.26-.57-.37-.73-.17-.15.2-.29.47-.31.72-.05.47.09.92.4 1.28.11.13.33.28.47.25.16-.04.39-.24.4-.4.05-.43 0-.86-.01-1.29-.01-.01-.02-.01-.04-.01z" fill="#f91239" data-color="1"/>
        <path d="M521.34 313.35c-.25-1.06-.6-2.06-1.02-3.01-.5-1.58-1.17-3.09-1.75-4.57-2.55-6.44-5.05-12.49-7.43-18.23-1.54-3.71-3.01-7.34-4.61-10.69-2.36-4.94-4.83-9.48-6.98-14-1.69-3.54-3.04-7.17-4.62-10.45-2.71-5.62-5.26-10.93-7.89-15.77-1.41-2.59-3.23-4.76-4.75-7.08-1.28-1.95-2.46-3.92-3.63-5.82-2.25-.21-4.5-.47-6.74-.57-1.63-.07-3.26-.05-4.89-.01-.15.29-.29.58-.42.84-.78 1.58-1.6 3.17-2.38 4.83-1.08 2.31-2.12 4.73-3.26 7.18-1.11 2.4-2.31 4.82-3.48 7.35-1.01 2.19-1.99 4.46-3.02 6.78-.92 2.05-1.91 4.11-2.8 6.3-1.24 3.05-2.35 6.29-3.68 9.54-1.48 3.64-3.06 7.41-4.82 11.2-1.87 4.03-3.41 8.44-5.05 13.03-1.07 3.02-2.28 6.06-3.55 9.15-1.11 2.71-2.39 5.36-3.56 8.19a172.95 172.95 0 0 0-3.01 7.87c-1.07 3.03.39 6.7 1.25 8.54 5.08 4.31 11.54 7.1 18.11 8.48 9.2 1.93 18.72 1.47 28.11 1 8.29-.42 16.66-.85 24.64-3.11s15.66-6.56 20.46-13.32c.38-.54.74-1.09 1.09-1.65-.07-.66-.17-1.33-.32-2zm-35.92 10.59c-1.43.74-2.99 1.21-4.57 1.5-2.19.4-4.42.46-6.65.47-3.93.01-7.94-.17-11.62-1.57-.82-.31-1.74-.86-1.75-1.74-.01-.75.66-1.32 1.3-1.69 1.65-.97 3.51-1.49 5.38-1.86 2.17-.43 4.38-.66 6.59-.74 2.11-.07 4.23 0 6.34.17 2.06.17 4.11.55 6.17.72 1.09.19 1.87.71 1.76 1.68-.15 1.52-1.73 2.43-2.95 3.06zm7.91-49.5c-.45.94-1.09 1.64-2.2 1.82-1.17.19-2.32.47-3.49.64-.45.07-.94-.06-1.4-.13-.53-.08-1.05-.19-1.57-.3-1.34-.28-2.72-.39-4.02-.89-.27-.1-.56-.16-.94-.27.15.29.25.48.35.68.62 1.24 1.27 2.46 1.84 3.73.41.9.97 1.7 1.49 2.53.55.88 1.35 1.58 1.75 2.56.11.27.4.47.57.72.4.62.77 1.27 1.19 1.88.85 1.29 1.19 2.75 1.44 4.24.28 1.71.55 3.44.69 5.17.1 1.32-.07 2.65-.03 3.97.05 1.78-.15 3.52-.42 5.26-.11.7-.34 1.35-.86 1.88-.45.45-1.01.58-1.6.54-.51-.04-1.02-.18-1.52-.3-.38-.1-.63-.38-.77-.73-.48-1.19-.88-2.41-.86-3.71.01-.61.15-1.22.14-1.83-.05-2-.2-4.01-.22-6.01-.01-1.18-.49-2.18-.94-3.2-.26-.59-.54-1.17-.84-1.74-.36-.69-.71-1.38-1.12-2.04-.14-.22-.41-.42-.66-.5-.37-.12-.7-.38-1.15-.29-.58.12-.77.28-.79.88-.02.63-.03 1.26-.05 1.88-.03.82-.12 1.63-.08 2.45.04 1.1.2 2.19.26 3.29.04.72.01 1.44-.01 2.16-.06 2.81-.1 5.61-.21 8.41-.06 1.45-.47 2.83-1.12 4.15-.42.85-1.09 1.12-1.94 1.17-.32.02-.65.07-.95 0-.83-.17-1.31-.8-1.37-1.84-.11-2.07-.22-4.14-.27-6.21-.06-2.64-.04-5.28-.11-7.92-.06-2.32-.13-4.65-.6-6.92-.39-1.87-.99-3.68-1.93-5.36-.51-.92-.93-1.89-1.4-2.84-.36-.73-.72-1.46-1.09-2.19-1.29 1.48-2.55 2.92-3.8 4.36-.6.7-1.18 1.42-1.82 2.08-.76.79-1.52 1.61-2.4 2.24-1.05.76-2.3.95-3.6.7-.22-.04-.44-.11-.65-.16-1.23-.31-1.78-1.92-.93-2.88.6-.68 1.29-1.28 1.94-1.91.12-.12.25-.22.37-.34l2.69-2.72c.07-.07.13-.14.18-.22.76-1.4 1.75-2.67 2.11-4.27.15-.66.51-1.27.73-1.92.45-1.3.84-2.61 1.31-3.9.17-.48.41-.98.74-1.37.63-.74.92-1.64 1.35-2.48.13-.25.16-.56.2-.85.02-.16-.03-.33-.07-.48-.17-.53-.29-.62-.38-1.21s-.19-.6-.26-.62c-.32-.1-.34-.39-.45-.63-.11-.27-.22-.56-.39-.79-.48-.65-.58-1.41-.68-2.17-.1-.69-.23-1.4 0-2.08.29-.87.6-1.75.99-2.58.28-.62.92-.9 1.5-1.2.31-.17.65-.3.98-.41 1.39-.44 2.86.59 3.45 1.62.83 1.44 1.52 2.95 1.62 4.65.04.58.14 1.18.05 1.75-.06.39-.05.73.09 1.08.13.33.25.67.4 1 .05.11.11.23.2.29.48.28.96.54 1.46.79.44.22.9.42 1.34.62.51.24 1.04.44 1.54.72.71.4 1.39.85 2.08 1.29.2.13.39.28.59.39 1.03.56 2.07 1.1 3.1 1.66.46.26.88.62 1.36.84.87.41 1.77.78 2.68 1.11.8.29 1.64.43 2.5.48.33.02.65.13.97.21.65.16 1.31.3 1.95.51.48.15.95.36 1.39.61.44.23.6.93.38 1.4z" fill="#f91239" data-color="1"/>
        <path d="M458.16 217.99a181.866 181.866 0 0 0 19.3.47c.4-.01.81-.02 1.21-.04 4.36-.15 8.82-.54 12.83-1.73.45-.78.28-1.41-.7-2.07-.83-.56-1.76-1.02-2.66-1.48-.27-.14-.63-.18-.95-.25-.42-.08-.84-.14-1.26-.2-1.18-.18-2.34-.38-3.51-.51-.46-.05-.85-.09-1.11-.43-.07-.09-.17-.18-.26-.26-1.37-1.26-2.73-2.46-4.61-3.2-2.29-.91-4.59-.88-6.94-.17-.69.21-1.3.58-1.96.88-1.29.58-2.52 1.23-3.31 2.29-.14.19-.32.37-.46.56-.26.34-.63.51-1.12.55-.3.03-.59.06-.88.12-1.07.23-2.14.49-3.22.72-.56.12-1.14.2-1.7.32-1.44.31-2.79.8-3.86 1.8-.48.45-.64.98-.49 1.45.08.35 4.1 1.05 5.66 1.18z" fill="#f91239" data-color="1"/>
        <path d="m96.37 369.6-.25.68-1.7 2.07s-2.23 2.5-6.09 2.5c-1.67 0-3.74-.77-4.29-1.42l-.77-.96-.31-.19c-.8-.4-1.73-3.31-1.73-5.84 0-4.57 2.72-7.04 2.72-7.04l.37-.53.71-.52.74-.77.74-.22.34-.21s2.69-1.14 5.22-1.14c2.22 0 5.99 3.5 5.99 6.55.02 4.01-1.56 6.83-1.69 7.04zm-2.93-9.3-.83-.06-1.24-.56-1.61-.09h-.19c-1.7 0-2.66 1.23-3.71 2.62-.83 1.14-1.27 2.25-1.27 3.49 0 3.96.92 5.56 3.8 5.56 1.58 0 2.6-.68 2.97-.89l.53-.9.9-.71.4-.68.34-.31c.19-.46 1.05-2.9 1.05-4.48.01-2.43-1.14-2.99-1.14-2.99z" fill="#f91239" data-color="1"/>
        <path d="m120.42 359.94-.34 3.15c-.25 2.63-2.04 5.87-2.26 6.3l-.53 1.21-2.1 1.88s-3.34 2.25-4.98 2.25c-3.34 0-5.16-1.92-5.16-1.92l-.28-.71c-.46-.49-1.61-2.38-1.6-7.66 0-1.51.12-2.44.28-3.37l.4-2.69.06-1.33c0-.46 1.05-1.79 1.76-1.79.68 0 1.3.49 1.36.93l.25 1.24-.15.77.28.77-.5 2.07-.34.9.15 5.72.37 1.08.18.8c.25.4 1.08 1.42 2.56 1.42 1.88 0 3.62-1.42 3.96-1.67l1.11-2.13.46-.46c.25-.53 1.39-3.37 1.39-5.1 0-.65-.03-1.11-.03-1.51 0-.56.06-.93.31-1.33l.77-1.33c.37-.71 1.24-.71 1.98-.71.59 0 1.02.62 1.02 1.24 0 .09-.03.15-.03.25l-.35 1.73z" fill="#f91239" data-color="1"/>
        <path d="m137.75 364.71-2.1 1.76c-.03.03-.12.03-.09.06l1.82 3.89 1.05 1.27c.15.15.22.43.22.74 0 1.17-.93 3-1.67 3-.37 0-1.02-.68-1.36-1.24l-1.05-1.73-.28-1.08-.8-.87-.25-.68-.96-1.79c-.06-.15-.03-.25-.19-.25-.28 0-1.17.56-1.17.56l-.93.09c-.37.03-.62.86-.62 1.36v.09l.4 4.51.03 1.24c0 .53-1.02 2.29-2.07 2.28-.62 0-1.3-.99-1.3-1.64l-.12-6.18-.22-1.61v-.96l-.18-1.85.19-.74-.21-2.1-.25-1.48.09-.65-.09-2.53v-.09c0-1.36 1.42-2.72 2.16-2.75l3.43-.25 1.88-.12.93.46 1.73.65.68.68c.25.22 2.81 2.54 2.81 5.1.01 1.09-.52 1.98-1.51 2.85zm-2.44-4.17-1.14-1.27c-.34-.4-.59-.8-.99-.8h-.12l-1.17.25-1.36-.19c-.15-.03-.28-.03-.43-.03-.62 0-1.17.18-1.21.65l-.03.62.59 3.65-.03 1.21c0 .25.12.68.46.68.46 0 2.07-1.3 2.07-1.3l.9-.18 1.92-.9s1.27-.65 1.27-1.05c-.01-.35-.32-.94-.73-1.34z" fill="#f91239" data-color="1"/>
        <path d="M169.37 358.92c-.43 0-1.14-.25-1.88-.34l-.8-.09-.8.12-1.17-.22-1.33.03c-.8 0-1.73.34-1.76.93l-.19 3.21-.22.74-.03.68-.22.68v.06c0 .09.06.09.22.09.09 0 .25 0 .43-.03l1.05-.15h1.45l.65-.19 1.39.06c1.02.03 1.76 1.45 1.76 1.85 0 .87-1.24 2.13-2.78 2.13-.19 0-.37-.03-.56-.06l-.71-.15c-.19.03-.59.09-.9.15-.15.03-.34.03-.49.03-.34 0-.65-.03-.93-.03-.37 0-.68.06-.87.25-.19.19-.22.37-.22.59 0 .28.06.59.06.9 0 .87.12 1.67.12 2.53 0 .65-.25 1.51-.25 1.51l-.22 1.11s-1.11.12-1.39.12c-1.08 0-1.95-1.05-1.95-2.29 0-.31.31-2.19.4-2.56l-.06-.71.37-2.84v-1.76l.25-.62.06-.46c.34-2.1.81-4.08 1.05-5.38.5-2.44.74-3.49 2.54-3.49.31 0 .77-.15 1.82-.15.43 0 .93.31 1.45.31 1.76 0 3.89-.37 4.82-.37.93 0 1.73.65 1.73 1.67.03 1.12-.9 2.14-1.89 2.14z" fill="#f91239" data-color="1"/>
        <path d="m181.11 361.33-.16 2.53-.25.93-.19 1.73-.15 1.11s-.74 3.71-.74 4.7c0 1.24-.12 1.95-.25 2.32-.22.65-.34.89-.34.89l-.06.8c-.12.74-2.19 1.33-2.19 1.33l-.49-.99-.43-.46.16-2.13.43-2.47v-1.14l.25-.59.5-1.85.06-.99.46-2.13.19-3.65c0-.65.12-1.17.46-1.73.49-.8.93-1.86 1.98-1.85.83 0 1.51.59 1.51 1.54-.01.68-.56 1.73-.75 2.1z" fill="#f91239" data-color="1"/>
        <path d="M200.6 375.53c-.71 0-.34-.31-2.56-.31-1.17 0-3.03-.06-3.12-.06l-.74.19-1.95-.34-1.11.12h-.09c-1.11 0-1.3-2.53-1.3-2.53l-.28-1.61.31-4.57.37-.87c.03-.15.15-1.36.16-3.03 0-2.19-.43-3.74-.43-3.74l.19-.96.06-.46c.03-.93 2.07-1.51 2.07-1.51l.43.71.71.34.03 1.05s.12.62.12.96c0 .46-.15 1.21-.16 2.26.03.8.15 1.54.15 2.41 0 .4-.03.83-.09 1.3-.15.96-.37 2.47-.4 2.66l.06 1.79.12 1.36-.09.65c.03.19.09.53.4.53l3.06-.09h.06c.59 0 1.27.37 2.04.37.74 0 1.11-.37 1.82-.37 1.11 0 1.82 1.51 1.82 2.19.01.91-.64 1.56-1.66 1.56z" fill="#f91239" data-color="1"/>
        <path d="M229.87 377.43c-.71 0-1.42-.46-1.61-1.67l-.49-2.69-.4-1.02-.06-1.85-.19-.87.19-1.48-.43-5.41c-.03-.34-.09-.59-.28-.59-.12 0-.31.12-.56.49l-1.42 2.1-1.58 3.55-1.52 1.64-1.05 1.64c-.37.62-.68 1.11-1.64 1.11-.87 0-1.36-.83-1.64-1.64l-.74-2.1-.4-.53-.22-1.02-.59-.62s-1.67-3.99-2.56-3.99c-.22 0-.31.46-.31.83 0 .34.34.77.34 1.39 0 .74-.37 1.82-.5 2.19l.06.83-.22 1.24.09 2.38-.28.99-.19 2.19c-.03.8-.77 1.7-1.48 1.7-.62 0-1.79-.65-1.79-1.52 0-.56.22-1.48.37-1.88l-.12-.59.34-1.85v-2.59l.31-1.02s.12-1.27.13-3.21c0-3.58 1.33-6.49 2.51-6.49.49 0 1.2.5 1.64 1.11.59.74 2.04 2.88 2.07 2.91l.59.56.65 1.58c.09.12 1.14 1.39 1.76 2.29.4.53-.06 1.64.65 1.64.56 0 .93-.83 2.04-3.03 1.05-2.04 3.93-7.35 4.08-7.6.53-.93 1.73-1.2 2.19-1.2.74 0 1.27.93 1.51 2.69.09.56.65 2.35.93 3.83.03.22.06.43.06.62 0 .43-.09.8-.09 1.21 0 .19.03.37.06.59.09.43.4 1.11.4 1.11l.09 3.96 1.08 4.95c.09.56.19.96.19 1.48 0 .85-1.02 1.66-1.97 1.66z" fill="#f91239" data-color="1"/>
        <path d="M248.66 360.29c-.03 0-.9 1.02-.9 1.02s-2.04-2.07-3.4-2.07c-1.27 0-2.1.92-2.41 1.29l.12.77.43.53 1.98 1.24.71.74 1.02.68.43.56.68.77.56 1.54.49 1.27c.15.4.22.77.22 1.17 0 2.53-2.94 4.79-5.32 4.79-1.51 0-2.97-.37-2.97-.37l-1.45-.4-.52-.46c-.34-.22-1.51-.99-1.51-2.01 0-1.39.62-1.98 1.39-1.98.56 0 1.05 1.45 4.45 1.46 1.3 0 2.32-.77 2.32-1.95 0-.28-.12-.56-.19-.71l-.52-.43-.71-1.02-.93-.43c-1.7-.87-4.11-3.19-4.11-5.44 0-2.13 1.64-3.49 1.64-3.49l1.36-.65.74-.4s.96-.18 1.61-.18c3.4 0 5.62 1.42 5.62 3.28 0 .17-.55.63-.83.88z" fill="#f91239" data-color="1"/>
        <path d="m282.19 358.67.06.65-.19 1.24-.25 2.84-.12.52.18 1.08-.12 2.13.06 2.16.19.59v1.17l-.12 1.95c-.03.71-.84 2.25-.84 2.25s-.93.71-1.21.71c-1.48 0-1.7-.22-1.7-1.42v-2.13l.34-2.53c0-.12.03-.25.03-.4 0-.65-.15-1.51-.49-1.52-.25 0-.93.22-.93.22l-2.44-.43-2.13.18-2.53.03c-.28 0-.62.19-.62.34 0 .53.28 1.17.28 1.67 0 3.31-1.08 5.07-2.32 5.07-.71 0-1.48-1.17-1.48-1.17l-.12-1.05.12-2.01.22-.99-.12-.99.16-1.98.19-3.31.34-1.02.06-3.89.68-1.98s.77-.37 1.11-.37c.31 0 1.2.53 1.2.53v.77l.12.34c.03.12.06.22.06.34 0 .43-.22.9-.22 1.33 0 .49-.06 1.17-.06 1.36l.06 1.45-.19.53.06 1.08.34.34.74.06 1.17-.19.74.09 4.02.06 1.48-.06c.31 0 .52-.22.53-.52l-.03-.71.28-1.61.13-3.43c.09-1.24.93-2.47 1.79-2.47 1.05 0 1.67.62 1.67 1.33v.09l-.18 1.68z" fill="#f91239" data-color="1"/>
        <path d="m294.92 361.39-.16 2.53-.25.93-.19 1.73-.15 1.11s-.74 3.71-.74 4.7c0 1.24-.12 1.95-.25 2.32-.22.65-.34.89-.34.89l-.06.8c-.12.74-2.19 1.33-2.19 1.33l-.49-.99-.43-.46.16-2.13.43-2.47v-1.14l.25-.59.5-1.85.06-.99.46-2.13.19-3.65c0-.65.12-1.17.46-1.73.49-.8.93-1.85 1.98-1.85.83 0 1.51.59 1.51 1.55 0 .67-.56 1.72-.75 2.09z" fill="#f91239" data-color="1"/>
        <path d="m317.79 359.89-1.08-.03-1.64.18-1.11-.12h-.34c-1.79 0-1.95 1.42-1.95 1.7l.18.68-.09 1.58.21 1.79.28 1.02s.18 1.73.18 2.69c0 .9-.12 2.29-.12 2.29l.03 1.33c0 2.63-1.39 4.97-2.01 4.97-.8 0-1.51-1.3-1.82-2.07-.09-.28-.12-.53-.12-.77 0-.46.12-1.02.37-1.98.09-.34.19-1.21.25-1.58l-.28-.77.19-2.69v-.96c0-.68-.53-1.21-.52-2.26 0-1.08.31-2.01.31-2.66 0-.71-.31-1.21-.86-1.21h-.06l-3.96.31c-.12 0-.22.03-.34.03-1.14 0-1.58-.62-1.58-1.92 0-.9.8-1.39 1.64-1.64l.56-.18 1.51.16.59-.22 2.07-.06 1.82-.65.96-.03 3.03-.21 1.14-.28 2.1-.03 1.45.03s.15 1.21.15 1.58c.01.56-1.14 1.98-1.14 1.98z" fill="#f91239" data-color="1"/>
        <path d="m343.62 373.84-2.04.68c-.4.28-2.66 1.79-4.08 1.79-1.54 0-2.66-1.21-2.66-2.26 0-.43-.12-.83-.12-1.3 0-.15.03-.31.06-.49l.5-2.29.34-.56.65-4.2.25-.71v-1.7l.22-.53.19-2.13.46-1.73.16-.4.16-1.17.46-.49.4-.74 1.39-.19.5.09.53-.12s3.58.77 5.13 1.55c2.72 1.58 4.97 4.76 4.97 7.2-.02 3.68-3.12 8.34-7.47 9.7zm-2.87-14.96c-.15 0-.34.4-.46.65l-.03.71-.43 1.98-.09 1.11-.43 1.73.09.68-.68 4.45c-.12.74-.46 1.54-.46 2.01 0 .25.09.4.34.43.28 0 1.95-1.02 1.95-1.02s2.04-.8 3.18-1.51c.8-.49 1.85-1.3 2.19-1.57l.46-1.27.43-.46.28-.83s.65-.71.65-1.02c-.01-3.44-3.13-6.07-6.99-6.07z" fill="#f91239" data-color="1"/>
        <path d="m362.23 361.43-.16 2.53-.25.93-.19 1.73-.15 1.11s-.74 3.71-.74 4.7c0 1.24-.12 1.95-.25 2.32-.22.65-.34.9-.34.9l-.06.8c-.12.74-2.19 1.33-2.19 1.33l-.49-.99-.43-.46.16-2.13.43-2.47v-1.14l.25-.59.5-1.85.06-.99.46-2.13.19-3.65c0-.65.12-1.17.46-1.73.5-.8.93-1.85 1.98-1.85.83 0 1.51.59 1.51 1.55-.01.66-.57 1.71-.75 2.08z" fill="#f91239" data-color="1"/>
        <path d="M383.06 359.03c-.43 0-1.14-.25-1.88-.34l-.8-.09-.8.12-1.17-.22-1.33.03c-.8 0-1.73.34-1.76.93l-.19 3.21-.22.74-.03.68-.22.68v.06c0 .09.06.09.22.09.09 0 .25 0 .43-.03l1.05-.15h1.45l.65-.19 1.39.06c1.02.03 1.76 1.45 1.76 1.85 0 .87-1.24 2.13-2.78 2.13-.18 0-.37-.03-.56-.06l-.71-.16c-.19.03-.59.09-.9.15-.16.03-.34.03-.5.03-.34 0-.65-.03-.93-.03-.37 0-.68.06-.87.25s-.22.37-.22.59c0 .28.06.59.06.9 0 .87.12 1.67.12 2.53 0 .65-.25 1.51-.25 1.51l-.22 1.11s-1.11.12-1.39.12c-1.08 0-1.95-1.05-1.95-2.29 0-.31.31-2.19.4-2.56l-.06-.71.37-2.84v-1.76l.25-.62.06-.46c.34-2.1.81-4.08 1.05-5.38.5-2.44.74-3.49 2.54-3.49.31 0 .77-.15 1.82-.15.43 0 .93.31 1.45.31 1.76 0 3.89-.37 4.82-.37.93 0 1.73.65 1.73 1.67.03 1.13-.9 2.15-1.88 2.15z" fill="#f91239" data-color="1"/>
        <path d="M402.28 359.04c-.43 0-1.14-.25-1.88-.34l-.8-.09-.8.12-1.17-.22-1.33.03c-.8 0-1.73.34-1.76.93l-.19 3.21-.22.74-.03.68-.22.68v.06c0 .09.06.09.22.09.09 0 .25 0 .43-.03l1.05-.15h1.45l.65-.19 1.39.06c1.02.03 1.76 1.45 1.76 1.85 0 .87-1.24 2.13-2.78 2.13-.18 0-.37-.03-.56-.06l-.71-.15c-.19.03-.59.09-.9.15-.16.03-.34.03-.5.03-.34 0-.65-.03-.93-.03-.37 0-.68.06-.87.25s-.22.37-.22.59c0 .28.06.59.06.9 0 .87.12 1.67.12 2.53 0 .65-.25 1.51-.25 1.51l-.22 1.11s-1.11.12-1.39.12c-1.08 0-1.95-1.05-1.95-2.29 0-.31.31-2.19.4-2.56l-.03-.7.37-2.84v-1.76l.25-.62.06-.46c.34-2.1.81-4.08 1.05-5.38.5-2.44.74-3.49 2.54-3.49.31 0 .77-.15 1.82-.15.43 0 .93.31 1.45.31 1.76 0 3.89-.37 4.82-.37.93 0 1.73.65 1.73 1.67 0 1.11-.92 2.13-1.91 2.13z" fill="#f91239" data-color="1"/>
        <path d="M421.06 360.04c-.34 0-1.39-.25-1.79-.25l-2.38-.03-.53-.22-1.14-.03-.71-.06c-.31-.03-.56-.03-.74-.03-.4 0-.46.06-.49.28l-.06 1.17-.34.83-.19 1.7c-.03.31-.06.56-.06.74 0 .28.06.37.25.37l1.51-.21.68.06 1.05-.43 1.64.19c1.02.09 1.98.93 1.98 1.98 0 .87-1.24 1.67-1.82 1.67h-.06l-1.48-.19-3.31.18-.31.09-.22.31-.37.31-.22 3.96c-.03.34-.28.9-.28 1.64 0 .28 0 .49.12.56.28-.03 1.42-.16 2.01-.15 1.14 0 2.16-.06 2.47-.09l1.39-.49.83.06 1.14-.06h.09c1.11 0 2.22 1.21 2.22 1.64 0 .68-1.48 1.61-1.82 1.61h-.03l-.34-.06-.68.34-4.33.18s-3.99.92-4.79.92c-1.14 0-1.79-.96-1.79-1.92v-.12l.16-3.52.37-.93.22-2.84.25-.53.09-2.63.62-3.89.16-3.65c.03-1.27.93-2.22 2.07-2.22h.09l.83.06.65-.15 1.36.25.93-.15h2.69l1.76.19 1.58-.06c.43 0 1.17.87 1.17 1.7 0 .22-.03.43-.16.62-.51.8-1.13 1.3-1.94 1.3z" fill="#f91239" data-color="1"/>
        <path d="m440.99 364.87-2.1 1.76c-.03.03-.12.03-.09.06l1.82 3.89 1.05 1.27c.16.15.22.43.22.74 0 1.17-.93 3-1.67 3-.37 0-1.02-.68-1.36-1.24l-1.05-1.73-.28-1.08-.8-.87-.25-.68-.96-1.79c-.06-.15-.03-.25-.19-.25-.28 0-1.17.56-1.17.56l-.93.09c-.37.03-.62.87-.62 1.36v.09l.4 4.51.03 1.24c0 .53-1.02 2.29-2.07 2.29-.62 0-1.3-.99-1.3-1.64l-.12-6.18-.21-1.61v-.96l-.18-1.85.18-.74-.21-2.1-.25-1.48.09-.65-.09-2.53v-.09c0-1.36 1.42-2.72 2.16-2.75l3.43-.25 1.88-.12.93.46 1.73.65.68.68c.25.22 2.81 2.53 2.81 5.1.01 1.08-.52 1.97-1.51 2.84zm-2.44-4.17-1.14-1.27c-.34-.4-.59-.8-.99-.8h-.12l-1.17.25-1.36-.19c-.15-.03-.28-.03-.43-.03-.62 0-1.17.19-1.21.65l-.03.62.59 3.65-.03 1.21c0 .25.12.68.46.68.46 0 2.07-1.3 2.07-1.3l.9-.18 1.92-.9s1.27-.65 1.27-1.05c-.02-.36-.32-.94-.73-1.34z" fill="#f91239" data-color="1"/>
        <path d="M460.87 360.06c-.34 0-1.39-.25-1.79-.25l-2.38-.03-.53-.22-1.14-.03-.71-.06c-.31-.03-.56-.03-.74-.03-.4 0-.46.06-.49.28l-.06 1.17-.34.83-.19 1.7c-.03.31-.06.56-.06.74 0 .28.06.37.25.37l1.51-.21.68.06 1.05-.43 1.64.19c1.02.09 1.98.93 1.98 1.98 0 .87-1.24 1.67-1.82 1.67h-.06l-1.48-.19-3.31.18-.31.09-.22.31-.37.31-.22 3.96c-.03.34-.28.9-.28 1.64 0 .28 0 .49.12.56.28-.03 1.42-.15 2.01-.15 1.14 0 2.16-.06 2.47-.09l1.39-.49.83.06 1.14-.06h.09c1.11 0 2.22 1.21 2.22 1.64 0 .68-1.48 1.61-1.82 1.61h-.03l-.34-.06-.68.34-4.33.18s-3.99.92-4.79.92c-1.14 0-1.79-.96-1.79-1.92v-.12l.16-3.52.37-.93.22-2.84.25-.52.09-2.63.62-3.89.16-3.65c.03-1.27.93-2.22 2.07-2.22h.09l.83.06.65-.15 1.36.25.93-.15h2.69l1.76.19 1.58-.06c.43 0 1.17.87 1.17 1.7 0 .22-.03.43-.16.62-.52.79-1.14 1.29-1.94 1.29z" fill="#f91239" data-color="1"/>
        <path d="m486.73 364.46-.03.74-.77 1.98-.4 1.95-1.27 2.38-.31 1.27-.43.65-.65 1.33c-.46.83-1.33 1.82-1.82 1.82-.9 0-1.3-.77-1.79-1.45l-2.87-3.55-1.27-1.14-.99-1.61-.93-1.05-.22-.68-.31-.4-.31-.18c-.03-.03-.09-.03-.12-.03-.22 0-.49.22-.5.56l.03 1.27-.16 2.07-.71 3.15-.87 2.04s-.83.37-1.24.37c-.56 0-1.17-1.14-1.17-1.14v-1.05l.4-1.02-.03-.49s.84-4.48.93-5.93l.06-1.82c.03-.8.53-1.27.56-1.73.06-.74.06-2.19.06-2.19s.9-1.42 1.7-1.42c.46 0 1.42.53 1.42.53l.55 2.13 2.84 4.27c.96 1.42 1.7 2.07 2.87 3.4.59.68.77 1.98 1.7 1.98.19 0 .34-.34.37-.65.06-.59.37-.8.68-1.45.74-1.48 1.76-4.91 1.76-4.91l.25-1.36.31-.65c.03-.19.09-.62.16-1.05.16-.5.4-1.24.5-1.51.03-.31.22-1.79 1.95-1.79.87 0 1.42 1.08 1.42 2.19 0 .37-.06.74-.19 1.05l-1.16 3.12z" fill="#f91239" data-color="1"/>
        <path d="m507.93 359.99-1.08-.03-1.64.18-1.11-.12h-.34c-1.79 0-1.95 1.42-1.95 1.7l.18.68-.09 1.58.21 1.79.28 1.02s.18 1.73.18 2.69c0 .9-.12 2.29-.12 2.29l.03 1.33c0 2.63-1.39 4.97-2.01 4.97-.8 0-1.51-1.3-1.82-2.07-.09-.28-.12-.53-.12-.77 0-.46.12-1.02.37-1.98.09-.34.19-1.21.25-1.58l-.28-.77.19-2.69v-.96c0-.68-.53-1.21-.52-2.26 0-1.08.31-2.01.31-2.66 0-.71-.31-1.21-.86-1.21h-.06l-3.96.31c-.12 0-.22.03-.34.03-1.14 0-1.58-.62-1.58-1.92 0-.9.8-1.39 1.64-1.64l.56-.18 1.51.15.59-.22 2.07-.06 1.82-.65.96-.03 3.03-.21 1.14-.28 2.1-.03 1.45.03s.15 1.21.15 1.58c0 .57-1.14 1.99-1.14 1.99z" fill="#f91239" data-color="1"/>
    </g>
</svg>