<svg preserveAspectRatio="xMidYMid meet" data-bbox="50.08 160.572 500 278.714" viewBox="50.08 160.572 500 278.714" xmlns="http://www.w3.org/2000/svg" data-type="color" role="presentation">
    <g>
        <path d="M416.28 434.99c27.37-26.33 56.42-51.67 82.28-79.48 13.54-14.57 21.42-31.12 21.78-48.61 6.3-2.1 12.56-4.32 18.74-6.85 10.82-4.43 16.44-21.13 3.61-27.58-17.76-8.9-35.34-18.14-52.8-27.59-13.99-13.66-30.71-25.02-46.44-35.37-29.61-19.47-61.33-35.15-94.37-47.9-16.64-6.42-25.24 18.67-11.63 27.58 43.54 28.49 88.24 55.09 133.93 79.92 3.81 4.08 7.41 8.34 10.48 12.93.84 1.25 1.54 2.47 2.24 3.69-57.2 13.44-117.51 12.99-175.97 15.27-81.17 3.16-162.34 6.34-243.5 9.5-19.35.75-19.45 30.93 0 30.17 83.14-3.24 166.29-6.49 249.44-9.73 57.61-2.25 117.22-2.2 173.8-15.02-3.7 10.56-12.31 20.16-22.4 29.89-23.49 22.63-47.02 45.23-70.53 67.84-14.02 13.5 7.33 34.81 21.34 21.34z" fill="#f91239"/>
    </g>
</svg>
